SplineFontDB: 3.0
FontName: PTSans-Bold
FullName: PT Sans Bold
FamilyName: PT Sans
Weight: Bold
Copyright: Copyright (c) 2009 ParaType Ltd. All rights reserved.
Version: 2.003W OFL
ItalicAngle: 0
UnderlinePosition: -50
UnderlineWidth: 50
Ascent: 800
Descent: 200
sfntRevision: 0x000200c5
LayerCount: 2
Layer: 0 1 "Back"  1
Layer: 1 1 "Fore"  0
XUID: [1021 631 875253810 556351]
FSType: 0
OS2Version: 3
OS2_WeightWidthSlopeOnly: 0
OS2_UseTypoMetrics: 1
CreationTime: 1293016744
ModificationTime: 1476373383
PfmFamily: 17
TTFWeight: 700
TTFWidth: 5
LineGap: 0
VLineGap: 0
Panose: 2 11 7 3 2 2 3 2 2 4
OS2TypoAscent: 1018
OS2TypoAOffset: 0
OS2TypoDescent: -276
OS2TypoDOffset: 0
OS2TypoLinegap: 0
OS2WinAscent: 1018
OS2WinAOffset: 0
OS2WinDescent: 276
OS2WinDOffset: 0
HheadAscent: 1018
HheadAOffset: 0
HheadDescent: -276
HheadDOffset: 0
OS2SubXSize: 650
OS2SubYSize: 600
OS2SubXOff: 0
OS2SubYOff: 75
OS2SupXSize: 650
OS2SupYSize: 600
OS2SupXOff: 0
OS2SupYOff: 350
OS2StrikeYSize: 50
OS2StrikeYPos: 250
OS2FamilyClass: 2050
OS2Vendor: 'PARA'
OS2CodePages: 20000097.00000000
OS2UnicodeRanges: a00002ef.5000204b.00000000.00000000
Lookup: 1 0 0 "'aalt' Access All Alternates lookup 0"  {"'aalt' Access All Alternates lookup 0 subtable"  } ['aalt' ('cyrl' <'BSH ' 'CHU ' 'dflt' > 'latn' <'MOL ' 'ROM ' 'dflt' > ) ]
Lookup: 3 0 0 "'aalt' Access All Alternates lookup 1"  {"'aalt' Access All Alternates lookup 1 subtable"  } ['aalt' ('cyrl' <'BSH ' 'CHU ' 'dflt' > 'latn' <'MOL ' 'ROM ' 'dflt' > ) ]
Lookup: 6 0 0 "'ccmp' Glyph Composition/Decomposition lookup 2"  {"'ccmp' Glyph Composition/Decomposition lookup 2 contextual 0"  "'ccmp' Glyph Composition/Decomposition lookup 2 contextual 1"  } ['ccmp' ('cyrl' <'BSH ' 'CHU ' 'dflt' > 'latn' <'MOL ' 'ROM ' 'dflt' > ) ]
Lookup: 1 0 0 "'locl' Localized Forms in Latin lookup 3"  {"'locl' Localized Forms in Latin lookup 3 subtable"  } ['locl' ('latn' <'ROM ' > ) ]

StartChar: .notdef
Encoding: 65536 -1 0
Width: 750
Flags: W
LayerCount: 2
Fore
SplineSet
50 700 m 1,0,-1
 700 700 l 1,1,-1
 700 0 l 1,2,-1
 50 0 l 1,3,-1
 50 700 l 1,0,-1
570 620 m 1,4,-1
 375 403 l 1,5,-1
 180 620 l 1,6,-1
 130 570 l 1,7,-1
 327 350 l 1,8,-1
 130 130 l 1,9,-1
 180 80 l 1,10,-1
 375 297 l 1,11,-1
 570 80 l 1,12,-1
 620 130 l 1,13,-1
 422 350 l 1,14,-1
 620 570 l 1,15,-1
 570 620 l 1,4,-1
129 27 m 1,16,-1
 137 27 l 1,17,-1
 137 39 l 1,18,-1
 141 39 l 2,19,20
 147 39 147 39 152 41.5 c 128,-1,21
 157 44 157 44 157 51 c 0,22,23
 157 59 157 59 151.5 61 c 128,-1,24
 146 63 146 63 140 63 c 2,25,-1
 129 63 l 1,26,-1
 129 27 l 1,16,-1
141 57 m 2,27,28
 149 57 149 57 149 52 c 256,29,30
 149 47 149 47 146.5 46.5 c 128,-1,31
 144 46 144 46 140 46 c 2,32,-1
 137 46 l 1,33,-1
 137 57 l 1,34,-1
 141 57 l 2,27,28
189 63 m 1,35,-1
 158 63 l 1,36,-1
 158 57 l 1,37,-1
 170 57 l 1,38,-1
 170 27 l 1,39,-1
 177 27 l 1,40,-1
 177 57 l 1,41,-1
 189 57 l 1,42,-1
 189 63 l 1,35,-1
222 37 m 0,43,44
 222 33 222 33 215 33 c 256,45,46
 208 33 208 33 206 35 c 1,47,-1
 203 28 l 1,48,49
 205 28 205 28 208 27 c 128,-1,50
 211 26 211 26 216 26 c 0,51,52
 230 26 230 26 230 38 c 0,53,54
 230 47 230 47 221 48 c 128,-1,55
 212 49 212 49 212 54 c 0,56,57
 212 57 212 57 218 57 c 0,58,59
 223 57 223 57 227 55 c 1,60,-1
 229 62 l 1,61,62
 223 64 223 64 218 64 c 0,63,64
 204 64 204 64 204 53 c 0,65,66
 204 48 204 48 207 46 c 128,-1,67
 210 44 210 44 213 42.5 c 128,-1,68
 216 41 216 41 219 40 c 128,-1,69
 222 39 222 39 222 37 c 0,43,44
237 47 m 1,70,71
 241 49 241 49 246 49 c 256,72,73
 251 49 251 49 251 45 c 2,74,-1
 251 43 l 1,75,76
 250 43 250 43 249 43.5 c 128,-1,77
 248 44 248 44 246 44 c 0,78,79
 234 44 234 44 234 34 c 0,80,81
 234 26 234 26 242 26 c 0,82,83
 248 26 248 26 251 31 c 1,84,-1
 253 27 l 1,85,-1
 259 27 l 1,86,87
 258 29 258 29 258 34 c 2,88,-1
 258 45 l 2,89,90
 258 55 258 55 248 55 c 0,91,92
 244 55 244 55 240.5 54 c 128,-1,93
 237 53 237 53 235 52 c 1,94,-1
 237 47 l 1,70,71
245 32 m 256,95,96
 241 32 241 32 241 36 c 256,97,98
 241 40 241 40 246 40 c 0,99,100
 248 40 248 40 249 39.5 c 128,-1,101
 250 39 250 39 251 39 c 1,102,-1
 251 36 l 1,103,104
 249 32 249 32 245 32 c 256,95,96
292 27 m 1,105,-1
 292 43 l 2,106,107
 292 55 292 55 283 55 c 0,108,109
 276 55 276 55 273 50 c 1,110,-1
 271 54 l 1,111,-1
 266 54 l 1,112,-1
 266 27 l 1,113,-1
 273 27 l 1,114,-1
 273 44 l 1,115,116
 275 48 275 48 279 48 c 0,117,118
 284 48 284 48 284 42 c 2,119,-1
 284 27 l 1,120,-1
 292 27 l 1,105,-1
297 28 m 1,121,122
 301 26 301 26 307 26 c 0,123,124
 318 26 318 26 318 35 c 0,125,126
 318 40 318 40 315.5 41 c 128,-1,127
 313 42 313 42 310 44 c 0,128,129
 305 46 305 46 305 47 c 0,130,131
 305 49 305 49 308 49 c 0,132,133
 312 49 312 49 316 47 c 1,134,-1
 318 53 l 1,135,136
 314 55 314 55 308 55 c 0,137,138
 298 55 298 55 298 46 c 0,139,140
 298 41 298 41 301 39.5 c 128,-1,141
 304 38 304 38 306 37 c 1,142,143
 311 37 311 37 311 34 c 0,144,145
 311 32 311 32 308 32 c 0,146,147
 303 32 303 32 299 34 c 1,148,-1
 297 28 l 1,121,122
338 42 m 0,149,150
 338 21 338 21 358 21 c 256,151,152
 378 21 378 21 378 42 c 0,153,154
 378 62 378 62 358 62 c 0,155,156
 350 62 350 62 344 56.5 c 128,-1,157
 338 51 338 51 338 42 c 0,149,150
344 42 m 256,158,159
 344 57 344 57 358 57 c 256,160,161
 372 57 372 57 372 42 c 256,162,163
 372 27 372 27 358 27 c 256,164,165
 344 27 344 27 344 42 c 256,158,159
364 38 m 1,166,167
 362 37 362 37 360 37 c 0,168,169
 356 37 356 37 356 42 c 0,170,171
 356 46 356 46 360 46 c 2,172,-1
 363 46 l 1,173,-1
 365 50 l 1,174,175
 361 52 361 52 358 52 c 0,176,177
 349 52 349 52 349 42 c 0,178,179
 349 31 349 31 358 31 c 0,180,181
 363 31 363 31 365 33 c 1,182,-1
 364 38 l 1,166,167
399 27 m 1,183,-1
 407 27 l 1,184,-1
 407 39 l 1,185,-1
 411 39 l 2,186,187
 417 39 417 39 422 41.5 c 128,-1,188
 427 44 427 44 427 51 c 0,189,190
 427 59 427 59 421.5 61 c 128,-1,191
 416 63 416 63 410 63 c 2,192,-1
 399 63 l 1,193,-1
 399 27 l 1,183,-1
411 57 m 2,194,195
 419 57 419 57 419 52 c 256,196,197
 419 47 419 47 416.5 46.5 c 128,-1,198
 414 46 414 46 410 46 c 2,199,-1
 407 46 l 1,200,-1
 407 57 l 1,201,-1
 411 57 l 2,194,195
432 47 m 1,202,203
 436 49 436 49 441 49 c 256,204,205
 446 49 446 49 446 45 c 2,206,-1
 446 43 l 1,207,208
 445 43 445 43 444 43.5 c 128,-1,209
 443 44 443 44 441 44 c 0,210,211
 428 44 428 44 428 34 c 0,212,213
 428 26 428 26 437 26 c 0,214,215
 443 26 443 26 446 31 c 1,216,-1
 448 27 l 1,217,-1
 454 27 l 1,218,219
 453 29 453 29 453 34 c 2,220,-1
 453 45 l 2,221,222
 453 55 453 55 443 55 c 0,223,224
 439 55 439 55 435.5 54 c 128,-1,225
 432 53 432 53 430 52 c 1,226,-1
 432 47 l 1,202,203
440 32 m 256,227,228
 436 32 436 32 436 36 c 256,229,230
 436 40 436 40 441 40 c 0,231,232
 443 40 443 40 444 39.5 c 128,-1,233
 445 39 445 39 446 39 c 1,234,-1
 446 36 l 1,235,236
 444 32 444 32 440 32 c 256,227,228
478 54 m 1,237,238
 477 55 477 55 474 55 c 0,239,240
 470 55 470 55 468 50 c 1,241,-1
 467 50 l 1,242,-1
 466 54 l 1,243,-1
 460 54 l 1,244,-1
 460 27 l 1,245,-1
 468 27 l 1,246,-1
 468 44 l 2,247,248
 468 48 468 48 474 48 c 2,249,-1
 475 48 l 2,250,251
 476 48 476 48 476 47.5 c 128,-1,252
 476 47 476 47 477 47 c 2,253,-1
 478 54 l 1,237,238
483 47 m 1,254,255
 489 49 489 49 492 49 c 0,256,257
 497 49 497 49 497 45 c 2,258,-1
 497 43 l 1,259,260
 496 43 496 43 495 43.5 c 128,-1,261
 494 44 494 44 492 44 c 0,262,263
 479 44 479 44 479 34 c 0,264,265
 479 26 479 26 488 26 c 0,266,267
 495 26 495 26 497 31 c 1,268,-1
 498 31 l 1,269,-1
 499 27 l 1,270,-1
 505 27 l 1,271,272
 504 29 504 29 504 34 c 2,273,-1
 504 45 l 2,274,275
 504 55 504 55 494 55 c 0,276,277
 490 55 490 55 487 54 c 128,-1,278
 484 53 484 53 482 52 c 1,279,-1
 483 47 l 1,254,255
491 32 m 256,280,281
 487 32 487 32 487 36 c 256,282,283
 487 40 487 40 492 40 c 0,284,285
 494 40 494 40 495 39.5 c 128,-1,286
 496 39 496 39 497 39 c 1,287,-1
 497 36 l 1,288,289
 495 32 495 32 491 32 c 256,280,281
533 63 m 1,290,-1
 502 63 l 1,291,-1
 502 57 l 1,292,-1
 513 57 l 1,293,-1
 513 27 l 1,294,-1
 521 27 l 1,295,-1
 521 57 l 1,296,-1
 533 57 l 1,297,-1
 533 63 l 1,290,-1
541 54 m 1,298,-1
 533 54 l 1,299,-1
 545 27 l 1,300,301
 544 22 544 22 540 22 c 1,302,-1
 539 23 l 1,303,-1
 537 17 l 1,304,305
 539 16 539 16 542 16 c 0,306,307
 547 16 547 16 552 29 c 2,308,-1
 562 54 l 1,309,-1
 554 54 l 1,310,-1
 549 39 l 1,311,-1
 549 34 l 1,312,-1
 548 34 l 1,313,-1
 547 39 l 1,314,-1
 541 54 l 1,298,-1
565 16 m 1,315,-1
 573 16 l 1,316,-1
 573 28 l 1,317,318
 574 26 574 26 578 26 c 0,319,320
 592 26 592 26 592 41 c 0,321,322
 592 55 592 55 581 55 c 0,323,324
 576 55 576 55 572 51 c 1,325,-1
 571 51 l 1,326,-1
 570 54 l 1,327,-1
 565 54 l 1,328,-1
 565 16 l 1,315,-1
579 49 m 0,329,330
 584 49 584 49 584 41 c 0,331,332
 584 32 584 32 577 32 c 0,333,334
 575 32 575 32 573 34 c 1,335,-1
 573 44 l 2,336,337
 573 49 573 49 579 49 c 0,329,330
618 34 m 1,338,339
 616 32 616 32 611 32 c 0,340,341
 604 32 604 32 603 38 c 1,342,-1
 622 38 l 1,343,-1
 622 44 l 2,344,345
 622 50 622 50 618.5 52.5 c 128,-1,346
 615 55 615 55 610 55 c 0,347,348
 596 55 596 55 596 40 c 0,349,350
 596 26 596 26 610 26 c 0,351,352
 613 26 613 26 616 27 c 128,-1,353
 619 28 619 28 621 29 c 1,354,-1
 618 34 l 1,338,339
610 49 m 256,355,356
 616 49 616 49 615 43 c 1,357,-1
 604 43 l 1,358,359
 604 49 604 49 610 49 c 256,355,356
EndSplineSet
EndChar

StartChar: exclam
Encoding: 33 33 4
Width: 294
Flags: W
LayerCount: 2
Fore
SplineSet
100 700 m 1,0,-1
 234 700 l 1,1,-1
 234 371 l 1,2,-1
 208 208 l 1,3,-1
 126 208 l 1,4,-1
 100 371 l 1,5,-1
 100 700 l 1,0,-1
86 66 m 256,6,7
 86 101 86 101 108 121.5 c 128,-1,8
 130 142 130 142 166 142 c 0,9,10
 204 142 204 142 226 121.5 c 128,-1,11
 248 101 248 101 248 66 c 256,12,13
 248 31 248 31 226 10 c 128,-1,14
 204 -11 204 -11 166 -11 c 0,15,16
 130 -11 130 -11 108 10 c 128,-1,17
 86 31 86 31 86 66 c 256,6,7
EndSplineSet
EndChar

StartChar: numbersign
Encoding: 35 35 6
Width: 567
Flags: W
LayerCount: 2
Fore
SplineSet
289 205 m 1,0,-1
 200 205 l 1,1,-1
 164 51 l 1,2,-1
 57 51 l 1,3,-1
 93 205 l 1,4,-1
 19 205 l 1,5,-1
 41 302 l 1,6,-1
 116 302 l 1,7,-1
 141 408 l 1,8,-1
 69 408 l 1,9,-1
 91 505 l 1,10,-1
 164 505 l 1,11,-1
 199 649 l 1,12,-1
 305 649 l 1,13,-1
 271 505 l 1,14,-1
 360 505 l 1,15,-1
 395 649 l 1,16,-1
 501 649 l 1,17,-1
 467 505 l 1,18,-1
 539 505 l 1,19,-1
 514 408 l 1,20,-1
 444 408 l 1,21,-1
 419 302 l 1,22,-1
 488 302 l 1,23,-1
 464 205 l 1,24,-1
 396 205 l 1,25,-1
 360 51 l 1,26,-1
 253 51 l 1,27,-1
 289 205 l 1,0,-1
223 302 m 1,28,-1
 312 302 l 1,29,-1
 337 408 l 1,30,-1
 248 408 l 1,31,-1
 223 302 l 1,28,-1
EndSplineSet
EndChar

StartChar: dollar
Encoding: 36 36 7
Width: 567
Flags: W
LayerCount: 2
Fore
SplineSet
238 -13 m 1,0,1
 181 -11 181 -11 138 -1 c 128,-1,2
 95 9 95 9 71 22 c 1,3,-1
 110 135 l 1,4,5
 128 124 128 124 160.5 114 c 128,-1,6
 193 104 193 104 238 100 c 1,7,-1
 238 305 l 1,8,9
 207 319 207 319 176.5 336 c 128,-1,10
 146 353 146 353 122 377 c 128,-1,11
 98 401 98 401 83.5 434.5 c 128,-1,12
 69 468 69 468 69 514 c 0,13,14
 69 600 69 600 114.5 647.5 c 128,-1,15
 160 695 160 695 238 709 c 1,16,-1
 238 800 l 1,17,-1
 342 800 l 1,18,-1
 342 713 l 1,19,20
 386 710 386 710 419 701 c 128,-1,21
 452 692 452 692 480 680 c 1,22,-1
 444 569 l 1,23,24
 427 577 427 577 401 585 c 128,-1,25
 375 593 375 593 342 597 c 1,26,-1
 342 410 l 1,27,28
 373 396 373 396 404.5 378.5 c 128,-1,29
 436 361 436 361 460.5 337 c 128,-1,30
 485 313 485 313 500.5 280.5 c 128,-1,31
 516 248 516 248 516 203 c 0,32,33
 516 111 516 111 469.5 59.5 c 128,-1,34
 423 8 423 8 342 -7 c 1,35,-1
 342 -100 l 1,36,-1
 238 -100 l 1,37,-1
 238 -13 l 1,0,1
386 188 m 0,38,39
 386 220 386 220 360.5 240.5 c 128,-1,40
 335 261 335 261 299 278 c 1,41,-1
 299 100 l 1,42,43
 343 105 343 105 364.5 128 c 128,-1,44
 386 151 386 151 386 188 c 0,38,39
199 525 m 0,45,46
 199 495 199 495 222.5 475 c 128,-1,47
 246 455 246 455 281 438 c 1,48,-1
 281 600 l 1,49,50
 234 598 234 598 216.5 577 c 128,-1,51
 199 556 199 556 199 525 c 0,45,46
EndSplineSet
EndChar

StartChar: ampersand
Encoding: 38 38 9
Width: 814
Flags: W
LayerCount: 2
Fore
SplineSet
92 194 m 0,0,1
 92 232 92 232 104.5 266.5 c 128,-1,2
 117 301 117 301 139.5 331 c 128,-1,3
 162 361 162 361 193 387 c 128,-1,4
 224 413 224 413 260 433 c 1,5,6
 235 466 235 466 219 500 c 128,-1,7
 203 534 203 534 203 572 c 0,8,9
 203 597 203 597 212.5 622.5 c 128,-1,10
 222 648 222 648 242.5 668.5 c 128,-1,11
 263 689 263 689 296 701.5 c 128,-1,12
 329 714 329 714 376 714 c 0,13,14
 422 714 422 714 454.5 703 c 128,-1,15
 487 692 487 692 507 674 c 128,-1,16
 527 656 527 656 536 633 c 128,-1,17
 545 610 545 610 545 586 c 0,18,19
 545 545 545 545 516 500.5 c 128,-1,20
 487 456 487 456 417 415 c 1,21,22
 452 361 452 361 487 316 c 128,-1,23
 522 271 522 271 565 227 c 1,24,25
 588 252 588 252 606.5 289.5 c 128,-1,26
 625 327 625 327 639 366 c 1,27,-1
 733 316 l 1,28,29
 727 298 727 298 716.5 276.5 c 128,-1,30
 706 255 706 255 693.5 233 c 128,-1,31
 681 211 681 211 668 191.5 c 128,-1,32
 655 172 655 172 644 158 c 1,33,34
 676 129 676 129 700 112.5 c 128,-1,35
 724 96 724 96 749 82 c 1,36,-1
 680 -14 l 1,37,38
 652 -1 652 -1 622.5 20.5 c 128,-1,39
 593 42 593 42 564 70 c 1,40,41
 528 37 528 37 474 11.5 c 128,-1,42
 420 -14 420 -14 341 -14 c 0,43,44
 289 -14 289 -14 243.5 0 c 128,-1,45
 198 14 198 14 164.5 41 c 128,-1,46
 131 68 131 68 111.5 106.5 c 128,-1,47
 92 145 92 145 92 194 c 0,0,1
486 149 m 1,48,49
 435 202 435 202 393 254.5 c 128,-1,50
 351 307 351 307 320 354 c 1,51,52
 272 317 272 317 247 282.5 c 128,-1,53
 222 248 222 248 222 205 c 0,54,55
 222 154 222 154 259.5 125 c 128,-1,56
 297 96 297 96 358 96 c 0,57,58
 398 96 398 96 433 112.5 c 128,-1,59
 468 129 468 129 486 149 c 1,48,49
333 566 m 0,60,61
 333 524 333 524 369 476 c 1,62,63
 408 501 408 501 425.5 523 c 128,-1,64
 443 545 443 545 443 565 c 0,65,66
 443 589 443 589 429.5 603 c 128,-1,67
 416 617 416 617 386 617 c 0,68,69
 359 617 359 617 346 603 c 128,-1,70
 333 589 333 589 333 566 c 0,60,61
EndSplineSet
EndChar

StartChar: quotesingle
Encoding: 39 39 10
Width: 254
Flags: W
LayerCount: 2
Fore
SplineSet
90 700 m 1,0,-1
 204 700 l 1,1,-1
 168 484 l 1,2,-1
 90 484 l 1,3,-1
 90 700 l 1,0,-1
EndSplineSet
Substitution2: "'aalt' Access All Alternates lookup 0 subtable" uniF634
EndChar

StartChar: parenleft
Encoding: 40 40 11
Width: 327
Flags: W
LayerCount: 2
Fore
SplineSet
227 -220 m 1,0,1
 181 -172 181 -172 149 -114.5 c 128,-1,2
 117 -57 117 -57 97.5 3.5 c 128,-1,3
 78 64 78 64 69 125.5 c 128,-1,4
 60 187 60 187 60 243 c 0,5,6
 60 298 60 298 69 359 c 128,-1,7
 78 420 78 420 98 481.5 c 128,-1,8
 118 543 118 543 150.5 602 c 128,-1,9
 183 661 183 661 230 712 c 1,10,-1
 314 658 l 1,11,12
 279 611 279 611 255.5 560 c 128,-1,13
 232 509 232 509 217.5 455.5 c 128,-1,14
 203 402 203 402 196.5 348 c 128,-1,15
 190 294 190 294 190 243 c 0,16,17
 190 195 190 195 197 141 c 128,-1,18
 204 87 204 87 219 33.5 c 128,-1,19
 234 -20 234 -20 258 -71 c 128,-1,20
 282 -122 282 -122 316 -164 c 1,21,-1
 227 -220 l 1,0,1
EndSplineSet
Position2: "'case' Case-Sensitive Forms lookup 1 per glyph data 3" dx=0 dy=100 dh=0 dv=0
EndChar

StartChar: parenright
Encoding: 41 41 12
Width: 327
Flags: W
LayerCount: 2
Fore
SplineSet
97 712 m 1,0,1
 145 664 145 664 177 606.5 c 128,-1,2
 209 549 209 549 228.5 488.5 c 128,-1,3
 248 428 248 428 257 366.5 c 128,-1,4
 266 305 266 305 267 247 c 1,5,6
 266 194 266 194 257 133 c 128,-1,7
 248 72 248 72 228 10.5 c 128,-1,8
 208 -51 208 -51 175.5 -110 c 128,-1,9
 143 -169 143 -169 100 -220 c 1,10,-1
 11 -164 l 1,11,12
 49 -115 49 -115 73 -63.5 c 128,-1,13
 97 -12 97 -12 111 40.5 c 128,-1,14
 125 93 125 93 130.5 145.5 c 128,-1,15
 136 198 136 198 137 243 c 1,16,17
 136 297 136 297 128.5 350.5 c 128,-1,18
 121 404 121 404 106 457.5 c 128,-1,19
 91 511 91 511 67.5 561.5 c 128,-1,20
 44 612 44 612 13 658 c 1,21,-1
 97 712 l 1,0,1
EndSplineSet
Position2: "'case' Case-Sensitive Forms lookup 1 per glyph data 3" dx=0 dy=100 dh=0 dv=0
EndChar

StartChar: asterisk
Encoding: 42 42 13
Width: 378
Flags: W
LayerCount: 2
Fore
SplineSet
144 731 m 1,0,-1
 172 685 l 1,1,-1
 187 626 l 1,2,-1
 202 681 l 1,3,-1
 230 730 l 1,4,-1
 294 695 l 1,5,-1
 264 643 l 1,6,-1
 216 600 l 1,7,-1
 281 616 l 1,8,-1
 338 616 l 1,9,-1
 338 543 l 1,10,-1
 283 543 l 1,11,-1
 222 559 l 1,12,-1
 272 512 l 1,13,-1
 297 470 l 1,14,-1
 233 433 l 1,15,-1
 206 479 l 1,16,-1
 186 543 l 1,17,-1
 173 485 l 1,18,-1
 144 436 l 1,19,-1
 80 473 l 1,20,-1
 109 522 l 1,21,-1
 154 559 l 1,22,-1
 99 543 l 1,23,-1
 40 543 l 1,24,-1
 40 617 l 1,25,-1
 100 617 l 1,26,-1
 159 600 l 1,27,-1
 108 644 l 1,28,-1
 80 694 l 1,29,-1
 144 731 l 1,0,-1
EndSplineSet
EndChar

StartChar: plus
Encoding: 43 43 14
Width: 527
Flags: W
LayerCount: 2
Fore
SplineSet
43 394 m 1,0,-1
 205 394 l 1,1,-1
 205 563 l 1,2,-1
 322 563 l 1,3,-1
 322 394 l 1,4,-1
 485 394 l 1,5,-1
 485 282 l 1,6,-1
 322 282 l 1,7,-1
 322 111 l 1,8,-1
 205 111 l 1,9,-1
 205 282 l 1,10,-1
 43 282 l 1,11,-1
 43 394 l 1,0,-1
EndSplineSet
EndChar

StartChar: comma
Encoding: 44 44 15
Width: 252
Flags: W
LayerCount: 2
Fore
SplineSet
42 64 m 0,0,1
 42 98 42 98 64.5 118 c 128,-1,2
 87 138 87 138 120 138 c 0,3,4
 162 138 162 138 186 110 c 128,-1,5
 210 82 210 82 210 36 c 0,6,7
 210 -9 210 -9 196 -41.5 c 128,-1,8
 182 -74 182 -74 161.5 -95.5 c 128,-1,9
 141 -117 141 -117 117.5 -129.5 c 128,-1,10
 94 -142 94 -142 75 -148 c 1,11,-1
 37 -94 l 1,12,13
 64 -83 64 -83 84 -58 c 128,-1,14
 104 -33 104 -33 106 -5 c 1,15,16
 83 -8 83 -8 62.5 9 c 128,-1,17
 42 26 42 26 42 64 c 0,0,1
EndSplineSet
EndChar

StartChar: hyphen
Encoding: 45 45 16
Width: 360
Flags: W
LayerCount: 2
Fore
SplineSet
54 345 m 1,0,-1
 305 345 l 1,1,-1
 305 230 l 1,2,-1
 54 230 l 1,3,-1
 54 345 l 1,0,-1
EndSplineSet
Position2: "'case' Case-Sensitive Forms lookup 1 per glyph data 2" dx=0 dy=80 dh=0 dv=0
EndChar

StartChar: period
Encoding: 46 46 17
Width: 246
Flags: W
LayerCount: 2
Fore
SplineSet
42 66 m 256,0,1
 42 101 42 101 64 121.5 c 128,-1,2
 86 142 86 142 122 142 c 0,3,4
 160 142 160 142 182 121.5 c 128,-1,5
 204 101 204 101 204 66 c 256,6,7
 204 31 204 31 182 10 c 128,-1,8
 160 -11 160 -11 122 -11 c 0,9,10
 86 -11 86 -11 64 10 c 128,-1,11
 42 31 42 31 42 66 c 256,0,1
EndSplineSet
EndChar

StartChar: slash
Encoding: 47 47 18
Width: 408
Flags: W
LayerCount: 2
Fore
SplineSet
333 712 m 1,0,-1
 431 668 l 1,1,-1
 74 -140 l 1,2,-1
 -24 -94 l 1,3,-1
 333 712 l 1,0,-1
EndSplineSet
EndChar

StartChar: zero
Encoding: 48 48 19
Width: 567
Flags: W
LayerCount: 2
Fore
SplineSet
40 351 m 0,0,1
 40 535 40 535 103 624.5 c 128,-1,2
 166 714 166 714 284 714 c 0,3,4
 410 714 410 714 469 625.5 c 128,-1,5
 528 537 528 537 528 351 c 0,6,7
 528 166 528 166 464.5 76 c 128,-1,8
 401 -14 401 -14 283 -14 c 0,9,10
 158 -14 158 -14 99 80.5 c 128,-1,11
 40 175 40 175 40 351 c 0,0,1
170 351 m 0,12,13
 170 229 170 229 196.5 162.5 c 128,-1,14
 223 96 223 96 284 96 c 0,15,16
 343 96 343 96 370.5 157 c 128,-1,17
 398 218 398 218 398 351 c 0,18,19
 398 472 398 472 372 538 c 128,-1,20
 346 604 346 604 283 604 c 0,21,22
 223 604 223 604 196.5 542 c 128,-1,23
 170 480 170 480 170 351 c 0,12,13
EndSplineSet
EndChar

StartChar: one
Encoding: 49 49 20
Width: 567
Flags: W
LayerCount: 2
Fore
SplineSet
101 110 m 1,0,-1
 240 110 l 1,1,-1
 240 505 l 1,2,-1
 255 573 l 1,3,-1
 207 514 l 1,4,-1
 118 453 l 1,5,-1
 63 528 l 1,6,-1
 291 712 l 1,7,-1
 364 712 l 1,8,-1
 364 110 l 1,9,-1
 500 110 l 1,10,-1
 500 0 l 1,11,-1
 101 0 l 1,12,-1
 101 110 l 1,0,-1
EndSplineSet
Substitution2: "'sups' Superscript lookup 8 subtable" onesuperior
AlternateSubs2: "'aalt' Access All Alternates lookup 1 subtable" one.numerator onesuperior
EndChar

StartChar: two
Encoding: 50 50 21
Width: 567
Flags: W
LayerCount: 2
Fore
SplineSet
475 529 m 0,0,1
 475 478 475 478 456.5 426 c 128,-1,2
 438 374 438 374 409.5 324 c 128,-1,3
 381 274 381 274 346.5 227.5 c 128,-1,4
 312 181 312 181 279 142 c 1,5,-1
 226 101 l 1,6,-1
 226 96 l 1,7,-1
 298 110 l 1,8,-1
 490 110 l 1,9,-1
 490 0 l 1,10,-1
 69 0 l 1,11,-1
 69 67 l 1,12,13
 93 92 93 92 123 125.5 c 128,-1,14
 153 159 153 159 183.5 196.5 c 128,-1,15
 214 234 214 234 243 274 c 128,-1,16
 272 314 272 314 295 354.5 c 128,-1,17
 318 395 318 395 331.5 433 c 128,-1,18
 345 471 345 471 345 505 c 0,19,20
 345 546 345 546 321.5 572.5 c 128,-1,21
 298 599 298 599 247 599 c 0,22,23
 215 599 215 599 181.5 585.5 c 128,-1,24
 148 572 148 572 125 551 c 1,25,-1
 73 643 l 1,26,27
 112 675 112 675 161.5 694.5 c 128,-1,28
 211 714 211 714 278 714 c 0,29,30
 321 714 321 714 357 702 c 128,-1,31
 393 690 393 690 419 667 c 128,-1,32
 445 644 445 644 460 609.5 c 128,-1,33
 475 575 475 575 475 529 c 0,0,1
EndSplineSet
Substitution2: "'sups' Superscript lookup 8 subtable" twosuperior
Substitution2: "'aalt' Access All Alternates lookup 0 subtable" twosuperior
EndChar

StartChar: three
Encoding: 51 51 22
Width: 567
Flags: W
LayerCount: 2
Fore
SplineSet
241 96 m 0,0,1
 303 96 303 96 335.5 129 c 128,-1,2
 368 162 368 162 368 209 c 0,3,4
 368 266 368 266 334 293 c 128,-1,5
 300 320 300 320 227 320 c 2,6,-1
 155 320 l 1,7,-1
 155 389 l 1,8,-1
 276 554 l 1,9,-1
 333 599 l 1,10,-1
 254 590 l 1,11,-1
 86 590 l 1,12,-1
 86 700 l 1,13,-1
 468 700 l 1,14,-1
 468 629 l 1,15,-1
 327 440 l 1,16,-1
 283 413 l 1,17,-1
 283 408 l 1,18,-1
 325 414 l 1,19,20
 360 411 360 411 391.5 398 c 128,-1,21
 423 385 423 385 446.5 360.5 c 128,-1,22
 470 336 470 336 484 300 c 128,-1,23
 498 264 498 264 498 217 c 0,24,25
 498 158 498 158 478.5 115 c 128,-1,26
 459 72 459 72 424.5 43 c 128,-1,27
 390 14 390 14 344 0 c 128,-1,28
 298 -14 298 -14 245 -14 c 0,29,30
 201 -14 201 -14 154 -6 c 128,-1,31
 107 2 107 2 78 17 c 1,32,-1
 113 125 l 1,33,34
 139 112 139 112 170.5 104 c 128,-1,35
 202 96 202 96 241 96 c 0,0,1
EndSplineSet
Substitution2: "'sups' Superscript lookup 8 subtable" threesuperior
Substitution2: "'aalt' Access All Alternates lookup 0 subtable" threesuperior
EndChar

StartChar: four
Encoding: 52 52 23
Width: 567
Flags: W
LayerCount: 2
Fore
SplineSet
553 195 m 1,0,-1
 443 195 l 1,1,-1
 443 0 l 1,2,-1
 322 0 l 1,3,-1
 322 195 l 1,4,-1
 19 195 l 1,5,-1
 19 269 l 1,6,-1
 336 705 l 1,7,-1
 443 705 l 1,8,-1
 443 299 l 1,9,-1
 553 299 l 1,10,-1
 553 195 l 1,0,-1
322 452 m 1,11,-1
 331 536 l 1,12,-1
 327 536 l 1,13,-1
 293 464 l 1,14,-1
 189 329 l 1,15,-1
 139 291 l 1,16,-1
 203 299 l 1,17,-1
 322 299 l 1,18,-1
 322 452 l 1,11,-1
EndSplineSet
EndChar

StartChar: five
Encoding: 53 53 24
Width: 567
Flags: W
LayerCount: 2
Fore
SplineSet
220 101 m 0,0,1
 286 101 286 101 321 133 c 128,-1,2
 356 165 356 165 356 221 c 0,3,4
 356 281 356 281 315 309 c 128,-1,5
 274 337 274 337 198 337 c 1,6,-1
 119 334 l 1,7,-1
 119 700 l 1,8,-1
 463 700 l 1,9,-1
 463 578 l 1,10,-1
 231 578 l 1,11,-1
 231 443 l 1,12,-1
 272 447 l 1,13,14
 321 445 321 445 360.5 429 c 128,-1,15
 400 413 400 413 428 384.5 c 128,-1,16
 456 356 456 356 471 315.5 c 128,-1,17
 486 275 486 275 486 225 c 0,18,19
 486 166 486 166 466 121 c 128,-1,20
 446 76 446 76 410.5 46 c 128,-1,21
 375 16 375 16 327 1 c 128,-1,22
 279 -14 279 -14 222 -14 c 0,23,24
 177 -14 177 -14 136.5 -6.5 c 128,-1,25
 96 1 96 1 68 14 c 1,26,-1
 103 122 l 1,27,28
 126 112 126 112 153.5 106.5 c 128,-1,29
 181 101 181 101 220 101 c 0,0,1
EndSplineSet
EndChar

StartChar: six
Encoding: 54 54 25
Width: 567
Flags: W
LayerCount: 2
Fore
SplineSet
520 217 m 0,0,1
 520 168 520 168 503.5 126 c 128,-1,2
 487 84 487 84 457 53 c 128,-1,3
 427 22 427 22 384.5 4 c 128,-1,4
 342 -14 342 -14 291 -14 c 0,5,6
 239 -14 239 -14 195.5 2.5 c 128,-1,7
 152 19 152 19 120 52 c 128,-1,8
 88 85 88 85 70 135 c 128,-1,9
 52 185 52 185 52 251 c 0,10,11
 52 350 52 350 80.5 430 c 128,-1,12
 109 510 109 510 157.5 569.5 c 128,-1,13
 206 629 206 629 270.5 665.5 c 128,-1,14
 335 702 335 702 407 714 c 1,15,-1
 436 611 l 1,16,17
 386 603 386 603 344 580 c 128,-1,18
 302 557 302 557 269.5 525 c 128,-1,19
 237 493 237 493 214.5 453.5 c 128,-1,20
 192 414 192 414 183 372 c 1,21,22
 203 397 203 397 235 414.5 c 128,-1,23
 267 432 267 432 315 432 c 0,24,25
 360 432 360 432 398 418 c 128,-1,26
 436 404 436 404 463 376.5 c 128,-1,27
 490 349 490 349 505 309 c 128,-1,28
 520 269 520 269 520 217 c 0,0,1
394 210 m 0,29,30
 394 322 394 322 284 322 c 0,31,32
 244 322 244 322 216.5 304 c 128,-1,33
 189 286 189 286 178 262 c 1,34,35
 176 251 176 251 176 243 c 128,-1,36
 176 235 176 235 176 227 c 0,37,38
 176 203 176 203 183 179.5 c 128,-1,39
 190 156 190 156 203.5 137.5 c 128,-1,40
 217 119 217 119 238 107.5 c 128,-1,41
 259 96 259 96 288 96 c 0,42,43
 335 96 335 96 364.5 128 c 128,-1,44
 394 160 394 160 394 210 c 0,29,30
EndSplineSet
EndChar

StartChar: seven
Encoding: 55 55 26
Width: 567
Flags: W
LayerCount: 2
Fore
SplineSet
104 0 m 1,0,-1
 333 539 l 1,1,-1
 377 588 l 1,2,-1
 317 578 l 1,3,-1
 60 578 l 1,4,-1
 60 700 l 1,5,-1
 511 700 l 1,6,-1
 511 662 l 1,7,-1
 231 0 l 1,8,-1
 104 0 l 1,0,-1
EndSplineSet
EndChar

StartChar: eight
Encoding: 56 56 27
Width: 567
Flags: W
LayerCount: 2
Fore
SplineSet
61 171 m 0,0,1
 61 206 61 206 70 233.5 c 128,-1,2
 79 261 79 261 95.5 283.5 c 128,-1,3
 112 306 112 306 134.5 324 c 128,-1,4
 157 342 157 342 183 357 c 1,5,6
 134 388 134 388 106 428.5 c 128,-1,7
 78 469 78 469 78 529 c 0,8,9
 78 568 78 568 92.5 602 c 128,-1,10
 107 636 107 636 134.5 661 c 128,-1,11
 162 686 162 686 201 700 c 128,-1,12
 240 714 240 714 289 714 c 0,13,14
 334 714 334 714 371 702 c 128,-1,15
 408 690 408 690 434.5 668 c 128,-1,16
 461 646 461 646 475.5 614.5 c 128,-1,17
 490 583 490 583 490 545 c 0,18,19
 490 486 490 486 463.5 445 c 128,-1,20
 437 404 437 404 386 370 c 1,21,22
 446 335 446 335 476.5 293 c 128,-1,23
 507 251 507 251 507 185 c 0,24,25
 507 140 507 140 490.5 103.5 c 128,-1,26
 474 67 474 67 444 41 c 128,-1,27
 414 15 414 15 372 0.5 c 128,-1,28
 330 -14 330 -14 280 -14 c 256,29,30
 230 -14 230 -14 189.5 -0.5 c 128,-1,31
 149 13 149 13 120.5 37 c 128,-1,32
 92 61 92 61 76.5 95 c 128,-1,33
 61 129 61 129 61 171 c 0,0,1
383 184 m 0,34,35
 383 207 383 207 372 226 c 128,-1,36
 361 245 361 245 343.5 260.5 c 128,-1,37
 326 276 326 276 304.5 289 c 128,-1,38
 283 302 283 302 261 314 c 1,39,40
 214 287 214 287 196.5 255.5 c 128,-1,41
 179 224 179 224 179 193 c 0,42,43
 179 153 179 153 206.5 124.5 c 128,-1,44
 234 96 234 96 283 96 c 0,45,46
 328 96 328 96 355.5 118 c 128,-1,47
 383 140 383 140 383 184 c 0,34,35
202 527 m 0,48,49
 202 503 202 503 211 485 c 128,-1,50
 220 467 220 467 235.5 453.5 c 128,-1,51
 251 440 251 440 270.5 428.5 c 128,-1,52
 290 417 290 417 311 407 c 1,53,54
 371 458 371 458 371 519 c 0,55,56
 371 561 371 561 346.5 582.5 c 128,-1,57
 322 604 322 604 287 604 c 0,58,59
 243 604 243 604 222.5 581 c 128,-1,60
 202 558 202 558 202 527 c 0,48,49
EndSplineSet
EndChar

StartChar: nine
Encoding: 57 57 28
Width: 567
Flags: W
LayerCount: 2
Fore
SplineSet
45 481 m 0,0,1
 45 532 45 532 60.5 575 c 128,-1,2
 76 618 76 618 105.5 648.5 c 128,-1,3
 135 679 135 679 177.5 696.5 c 128,-1,4
 220 714 220 714 275 714 c 0,5,6
 388 714 388 714 452.5 646.5 c 128,-1,7
 517 579 517 579 517 450 c 0,8,9
 517 334 517 334 487.5 249.5 c 128,-1,10
 458 165 458 165 408.5 108.5 c 128,-1,11
 359 52 359 52 294 22 c 128,-1,12
 229 -8 229 -8 157 -14 c 1,13,-1
 129 88 l 1,14,15
 184 95 184 95 227 115 c 128,-1,16
 270 135 270 135 301 164.5 c 128,-1,17
 332 194 332 194 351.5 231.5 c 128,-1,18
 371 269 371 269 379 312 c 1,19,20
 355 286 355 286 327.5 276 c 128,-1,21
 300 266 300 266 254 266 c 0,22,23
 216 266 216 266 178.5 279 c 128,-1,24
 141 292 141 292 111.5 318.5 c 128,-1,25
 82 345 82 345 63.5 385.5 c 128,-1,26
 45 426 45 426 45 481 c 0,0,1
171 488 m 0,27,28
 171 431 171 431 203 402 c 128,-1,29
 235 373 235 373 283 373 c 0,30,31
 324 373 324 373 350 386 c 128,-1,32
 376 399 376 399 390 418 c 1,33,34
 393 439 393 439 393 458 c 0,35,36
 393 486 393 486 386 513 c 128,-1,37
 379 540 379 540 364.5 561 c 128,-1,38
 350 582 350 582 327.5 594.5 c 128,-1,39
 305 607 305 607 274 607 c 0,40,41
 225 607 225 607 198 575.5 c 128,-1,42
 171 544 171 544 171 488 c 0,27,28
EndSplineSet
EndChar

StartChar: less
Encoding: 60 60 31
Width: 527
Flags: W
LayerCount: 2
Fore
SplineSet
40 285 m 1,0,-1
 40 355 l 1,1,-1
 426 586 l 1,2,-1
 483 496 l 1,3,-1
 259 357 l 1,4,-1
 168 322 l 1,5,-1
 258 291 l 1,6,-1
 488 154 l 1,7,-1
 431 64 l 1,8,-1
 40 285 l 1,0,-1
EndSplineSet
EndChar

StartChar: greater
Encoding: 62 62 33
Width: 527
Flags: W
LayerCount: 2
Fore
SplineSet
487 365 m 1,0,-1
 487 295 l 1,1,-1
 101 64 l 1,2,-1
 44 155 l 1,3,-1
 268 293 l 1,4,-1
 359 329 l 1,5,-1
 269 359 l 1,6,-1
 39 497 l 1,7,-1
 96 586 l 1,8,-1
 487 365 l 1,0,-1
EndSplineSet
EndChar

StartChar: question
Encoding: 63 63 34
Width: 454
Flags: W
LayerCount: 2
Fore
SplineSet
136 208 m 5,0,1
 131 260 131 260 141 296.5 c 132,-1,2
 151 333 151 333 168.5 359.5 c 132,-1,3
 186 386 186 386 208.5 405.5 c 132,-1,4
 231 425 231 425 250.5 443 c 132,-1,5
 270 461 270 461 283 480.5 c 132,-1,6
 296 500 296 500 296 527 c 4,7,8
 296 562 296 562 276.5 583 c 132,-1,9
 257 604 257 604 207 604 c 4,10,11
 191 604 191 604 173 600.5 c 132,-1,12
 155 597 155 597 137 590.5 c 132,-1,13
 119 584 119 584 102.5 575.5 c 132,-1,14
 86 567 86 567 73 558 c 5,15,-1
 23 654 l 5,16,17
 61 680 61 680 110.5 697 c 132,-1,18
 160 714 160 714 230 714 c 4,19,20
 324 714 324 714 377 668.5 c 132,-1,21
 430 623 430 623 430 546 c 4,22,23
 430 495 430 495 416.5 461.5 c 132,-1,24
 403 428 403 428 383 404.5 c 132,-1,25
 363 381 363 381 339 363 c 132,-1,26
 315 345 315 345 295 324.5 c 132,-1,27
 275 304 275 304 261 277 c 132,-1,28
 247 250 247 250 247 208 c 5,29,-1
 136 208 l 5,0,1
116 66 m 256,30,31
 116 101 116 101 138 121.5 c 128,-1,32
 160 142 160 142 196 142 c 0,33,34
 234 142 234 142 256 121.5 c 128,-1,35
 278 101 278 101 278 66 c 256,36,37
 278 31 278 31 256 10 c 128,-1,38
 234 -11 234 -11 196 -11 c 0,39,40
 160 -11 160 -11 138 10 c 128,-1,41
 116 31 116 31 116 66 c 256,30,31
EndSplineSet
EndChar

StartChar: at
Encoding: 64 64 35
Width: 1059
Flags: W
LayerCount: 2
Fore
SplineSet
679 484 m 1,0,-1
 749 484 l 1,1,-1
 701 213 l 2,2,3
 693 166 693 166 700.5 145 c 128,-1,4
 708 124 708 124 734 124 c 256,5,6
 760 124 760 124 785 136 c 128,-1,7
 810 148 810 148 830 173 c 128,-1,8
 850 198 850 198 862.5 236 c 128,-1,9
 875 274 875 274 875 326 c 0,10,11
 875 401 875 401 850 454 c 128,-1,12
 825 507 825 507 781.5 541.5 c 128,-1,13
 738 576 738 576 679 592 c 128,-1,14
 620 608 620 608 552 608 c 0,15,16
 474 608 474 608 407 580 c 128,-1,17
 340 552 340 552 290.5 503 c 128,-1,18
 241 454 241 454 213 386.5 c 128,-1,19
 185 319 185 319 185 240 c 0,20,21
 185 162 185 162 208.5 100 c 128,-1,22
 232 38 232 38 277 -5.5 c 128,-1,23
 322 -49 322 -49 388.5 -72.5 c 128,-1,24
 455 -96 455 -96 541 -96 c 0,25,26
 570 -96 570 -96 607 -89 c 128,-1,27
 644 -82 644 -82 674 -68 c 1,28,-1
 705 -164 l 1,29,30
 664 -184 664 -184 621.5 -192 c 128,-1,31
 579 -200 579 -200 524 -200 c 0,32,33
 427 -200 427 -200 344.5 -172 c 128,-1,34
 262 -144 262 -144 201.5 -89 c 128,-1,35
 141 -34 141 -34 107 47.5 c 128,-1,36
 73 129 73 129 73 236 c 0,37,38
 73 345 73 345 112 433 c 128,-1,39
 151 521 151 521 217 583 c 128,-1,40
 283 645 283 645 370 678.5 c 128,-1,41
 457 712 457 712 554 712 c 0,42,43
 646 712 646 712 725 685.5 c 128,-1,44
 804 659 804 659 862 609.5 c 128,-1,45
 920 560 920 560 953 488.5 c 128,-1,46
 986 417 986 417 986 326 c 0,47,48
 986 262 986 262 963.5 206 c 128,-1,49
 941 150 941 150 901.5 109 c 128,-1,50
 862 68 862 68 809.5 44 c 128,-1,51
 757 20 757 20 697 20 c 0,52,53
 672 20 672 20 650.5 25.5 c 128,-1,54
 629 31 629 31 614.5 44 c 128,-1,55
 600 57 600 57 593 78 c 128,-1,56
 586 99 586 99 589 130 c 1,57,-1
 585 130 l 1,58,59
 570 109 570 109 552.5 89 c 128,-1,60
 535 69 535 69 514 53.5 c 128,-1,61
 493 38 493 38 468 29 c 128,-1,62
 443 20 443 20 413 20 c 0,63,64
 389 20 389 20 367 30.5 c 128,-1,65
 345 41 345 41 329 60 c 128,-1,66
 313 79 313 79 303.5 106 c 128,-1,67
 294 133 294 133 294 166 c 0,68,69
 294 228 294 228 314 286.5 c 128,-1,70
 334 345 334 345 368.5 390 c 128,-1,71
 403 435 403 435 448.5 462.5 c 128,-1,72
 494 490 494 490 545 490 c 0,73,74
 580 490 580 490 604 479.5 c 128,-1,75
 628 469 628 469 648 452 c 1,76,-1
 679 484 l 1,0,-1
616 363 m 1,77,78
 603 374 603 374 589 380 c 128,-1,79
 575 386 575 386 554 386 c 0,80,81
 524 386 524 386 498.5 369 c 128,-1,82
 473 352 473 352 454.5 325 c 128,-1,83
 436 298 436 298 426 264.5 c 128,-1,84
 416 231 416 231 416 199 c 0,85,86
 416 166 416 166 429.5 145 c 128,-1,87
 443 124 443 124 476 124 c 0,88,89
 490 124 490 124 506 132.5 c 128,-1,90
 522 141 522 141 537 155 c 128,-1,91
 552 169 552 169 566 187 c 128,-1,92
 580 205 580 205 591 225 c 1,93,-1
 616 363 l 1,77,78
EndSplineSet
Position2: "'case' Case-Sensitive Forms lookup 1 per glyph data 0" dx=0 dy=55 dh=0 dv=0
Position2: "'cpsp' Capital Spacing lookup 0 subtable" dx=40 dy=0 dh=80 dv=0
EndChar

StartChar: A
Encoding: 65 65 36
Width: 605
Flags: W
LayerCount: 2
Fore
SplineSet
405 155 m 5,0,-1
 190 155 l 5,1,-1
 137 0 l 5,2,-1
 0 0 l 5,3,-1
 252 705 l 5,4,-1
 353 705 l 5,5,-1
 605 0 l 5,6,-1
 461 0 l 5,7,-1
 405 155 l 5,0,-1
225 265 m 5,8,-1
 375 265 l 5,9,-1
 323 421 l 5,10,-1
 302 531 l 5,11,-1
 297 531 l 5,12,-1
 276 420 l 5,13,-1
 225 265 l 5,8,-1
EndSplineSet
Position2: "'cpsp' Capital Spacing lookup 0 subtable" dx=40 dy=0 dh=80 dv=0
EndChar

StartChar: B
Encoding: 66 66 37
Width: 591
Flags: W
LayerCount: 2
Fore
SplineSet
531 537 m 0,0,1
 531 511 531 511 524.5 485 c 128,-1,2
 518 459 518 459 503 437.5 c 128,-1,3
 488 416 488 416 464 399.5 c 128,-1,4
 440 383 440 383 406 375 c 1,5,-1
 406 369 l 1,6,7
 436 364 436 364 463 352 c 128,-1,8
 490 340 490 340 510 319 c 128,-1,9
 530 298 530 298 541.5 268 c 128,-1,10
 553 238 553 238 553 197 c 0,11,12
 553 143 553 143 530 103.5 c 128,-1,13
 507 64 507 64 468.5 39 c 128,-1,14
 430 14 430 14 381 2 c 128,-1,15
 332 -10 332 -10 280 -10 c 0,16,17
 263 -10 263 -10 236.5 -10 c 128,-1,18
 210 -10 210 -10 179.5 -8.5 c 128,-1,19
 149 -7 149 -7 117.5 -4 c 128,-1,20
 86 -1 86 -1 60 5 c 1,21,-1
 60 695 l 1,22,23
 79 698 79 698 103.5 701 c 128,-1,24
 128 704 128 704 156 706 c 128,-1,25
 184 708 184 708 213.5 709 c 128,-1,26
 243 710 243 710 272 710 c 0,27,28
 321 710 321 710 367.5 702.5 c 128,-1,29
 414 695 414 695 450.5 676 c 128,-1,30
 487 657 487 657 509 623 c 128,-1,31
 531 589 531 589 531 537 c 0,0,1
281 103 m 0,32,33
 306 103 306 103 329.5 109 c 128,-1,34
 353 115 353 115 371 127.5 c 128,-1,35
 389 140 389 140 400 159 c 128,-1,36
 411 178 411 178 411 204 c 0,37,38
 411 237 411 237 398 256 c 128,-1,39
 385 275 385 275 364 285.5 c 128,-1,40
 343 296 343 296 317 299 c 128,-1,41
 291 302 291 302 265 302 c 2,42,-1
 192 302 l 1,43,-1
 192 109 l 1,44,45
 197 107 197 107 208 106 c 128,-1,46
 219 105 219 105 231.5 104.5 c 128,-1,47
 244 104 244 104 257.5 103.5 c 128,-1,48
 271 103 271 103 281 103 c 0,32,33
236 406 m 2,49,50
 250 406 250 406 268.5 407 c 128,-1,51
 287 408 287 408 299 410 c 1,52,53
 337 422 337 422 364.5 446 c 128,-1,54
 392 470 392 470 392 509 c 0,55,56
 392 535 392 535 382 552 c 128,-1,57
 372 569 372 569 355.5 579 c 128,-1,58
 339 589 339 589 318 593 c 128,-1,59
 297 597 297 597 274 597 c 0,60,61
 248 597 248 597 226 596 c 128,-1,62
 204 595 204 595 192 593 c 1,63,-1
 192 406 l 1,64,-1
 236 406 l 2,49,50
EndSplineSet
Position2: "'cpsp' Capital Spacing lookup 0 subtable" dx=40 dy=0 dh=80 dv=0
EndChar

StartChar: C
Encoding: 67 67 38
Width: 559
Flags: W
LayerCount: 2
Fore
SplineSet
534 29 m 1,0,1
 502 6 502 6 452.5 -4 c 128,-1,2
 403 -14 403 -14 351 -14 c 0,3,4
 288 -14 288 -14 231.5 5.5 c 128,-1,5
 175 25 175 25 132 68.5 c 128,-1,6
 89 112 89 112 63.5 181.5 c 128,-1,7
 38 251 38 251 38 350 c 0,8,9
 38 453 38 453 66.5 522.5 c 128,-1,10
 95 592 95 592 140.5 634.5 c 128,-1,11
 186 677 186 677 242 695.5 c 128,-1,12
 298 714 298 714 354 714 c 0,13,14
 414 714 414 714 455.5 706 c 128,-1,15
 497 698 497 698 524 687 c 1,16,-1
 497 571 l 1,17,18
 474 582 474 582 442.5 587 c 128,-1,19
 411 592 411 592 366 592 c 0,20,21
 283 592 283 592 232.5 533 c 128,-1,22
 182 474 182 474 182 350 c 0,23,24
 182 296 182 296 194 251.5 c 128,-1,25
 206 207 206 207 230.5 175.5 c 128,-1,26
 255 144 255 144 291.5 126.5 c 128,-1,27
 328 109 328 109 376 109 c 0,28,29
 421 109 421 109 452 118 c 128,-1,30
 483 127 483 127 506 141 c 1,31,-1
 534 29 l 1,0,1
EndSplineSet
Position2: "'cpsp' Capital Spacing lookup 0 subtable" dx=40 dy=0 dh=80 dv=0
EndChar

StartChar: D
Encoding: 68 68 39
Width: 647
Flags: W
LayerCount: 2
Fore
SplineSet
60 700 m 1,0,1
 81 703 81 703 107.5 705 c 128,-1,2
 134 707 134 707 162 708 c 128,-1,3
 190 709 190 709 216.5 709.5 c 128,-1,4
 243 710 243 710 264 710 c 0,5,6
 357 710 357 710 423 684 c 128,-1,7
 489 658 489 658 530 611 c 128,-1,8
 571 564 571 564 590 499 c 128,-1,9
 609 434 609 434 609 356 c 0,10,11
 609 285 609 285 591 219 c 128,-1,12
 573 153 573 153 531 102 c 128,-1,13
 489 51 489 51 420.5 20 c 128,-1,14
 352 -11 352 -11 251 -11 c 0,15,16
 235 -11 235 -11 208.5 -10 c 128,-1,17
 182 -9 182 -9 153.5 -7.5 c 128,-1,18
 125 -6 125 -6 99 -4.5 c 128,-1,19
 73 -3 73 -3 60 -1 c 1,20,-1
 60 700 l 1,0,1
275 588 m 0,21,22
 253 588 253 588 230.5 587 c 128,-1,23
 208 586 208 586 197 584 c 1,24,-1
 197 115 l 1,25,26
 201 114 201 114 210.5 113.5 c 128,-1,27
 220 113 220 113 231 112.5 c 128,-1,28
 242 112 242 112 252 111.5 c 128,-1,29
 262 111 262 111 267 111 c 0,30,31
 325 111 325 111 363.5 131.5 c 128,-1,32
 402 152 402 152 424.5 186 c 128,-1,33
 447 220 447 220 456 264.5 c 128,-1,34
 465 309 465 309 465 356 c 0,35,36
 465 397 465 397 457 438.5 c 128,-1,37
 449 480 449 480 427.5 513 c 128,-1,38
 406 546 406 546 369 567 c 128,-1,39
 332 588 332 588 275 588 c 0,21,22
EndSplineSet
Position2: "'cpsp' Capital Spacing lookup 0 subtable" dx=40 dy=0 dh=80 dv=0
EndChar

StartChar: E
Encoding: 69 69 40
Width: 522
Flags: W
LayerCount: 2
Fore
SplineSet
60 700 m 5,0,-1
 475 700 l 5,1,-1
 475 578 l 5,2,-1
 197 578 l 5,3,-1
 197 415 l 5,4,-1
 450 415 l 5,5,-1
 450 293 l 5,6,-1
 197 293 l 5,7,-1
 197 122 l 5,8,-1
 480 122 l 5,9,-1
 480 0 l 5,10,-1
 60 0 l 5,11,-1
 60 700 l 5,0,-1
EndSplineSet
Position2: "'cpsp' Capital Spacing lookup 0 subtable" dx=40 dy=0 dh=80 dv=0
EndChar

StartChar: F
Encoding: 70 70 41
Width: 508
Flags: W
LayerCount: 2
Fore
SplineSet
60 700 m 1,0,-1
 475 700 l 1,1,-1
 475 578 l 1,2,-1
 197 578 l 1,3,-1
 197 405 l 1,4,-1
 453 405 l 1,5,-1
 453 283 l 1,6,-1
 197 283 l 1,7,-1
 197 0 l 1,8,-1
 60 0 l 1,9,-1
 60 700 l 1,0,-1
EndSplineSet
Position2: "'cpsp' Capital Spacing lookup 0 subtable" dx=40 dy=0 dh=80 dv=0
EndChar

StartChar: G
Encoding: 71 71 42
Width: 609
Flags: W
LayerCount: 2
Fore
SplineSet
307 365 m 1,0,-1
 568 365 l 1,1,-1
 568 53 l 1,2,3
 526 18 526 18 467.5 2 c 128,-1,4
 409 -14 409 -14 352 -14 c 0,5,6
 285 -14 285 -14 227.5 7 c 128,-1,7
 170 28 170 28 128 72.5 c 128,-1,8
 86 117 86 117 62 186 c 128,-1,9
 38 255 38 255 38 350 c 0,10,11
 38 449 38 449 66.5 518.5 c 128,-1,12
 95 588 95 588 141.5 631.5 c 128,-1,13
 188 675 188 675 246 694.5 c 128,-1,14
 304 714 304 714 364 714 c 256,15,16
 424 714 424 714 469.5 705 c 128,-1,17
 515 696 515 696 542 686 c 1,18,-1
 514 571 l 1,19,20
 489 581 489 581 458 586.5 c 128,-1,21
 427 592 427 592 379 592 c 0,22,23
 336 592 336 592 300 579 c 128,-1,24
 264 566 264 566 237.5 536.5 c 128,-1,25
 211 507 211 507 196.5 461 c 128,-1,26
 182 415 182 415 182 349 c 0,27,28
 182 286 182 286 196 240.5 c 128,-1,29
 210 195 210 195 235 165.5 c 128,-1,30
 260 136 260 136 293.5 122 c 128,-1,31
 327 108 327 108 365 108 c 0,32,33
 391 108 391 108 416 114.5 c 128,-1,34
 441 121 441 121 458 134 c 1,35,-1
 458 266 l 1,36,-1
 307 282 l 1,37,-1
 307 365 l 1,0,-1
EndSplineSet
Position2: "'cpsp' Capital Spacing lookup 0 subtable" dx=40 dy=0 dh=80 dv=0
EndChar

StartChar: H
Encoding: 72 72 43
Width: 651
Flags: W
LayerCount: 2
Fore
SplineSet
453 293 m 1,0,-1
 197 293 l 1,1,-1
 197 0 l 1,2,-1
 60 0 l 1,3,-1
 60 700 l 1,4,-1
 197 700 l 1,5,-1
 197 415 l 1,6,-1
 453 415 l 1,7,-1
 453 700 l 1,8,-1
 590 700 l 1,9,-1
 590 0 l 1,10,-1
 453 0 l 1,11,-1
 453 293 l 1,0,-1
EndSplineSet
Position2: "'cpsp' Capital Spacing lookup 0 subtable" dx=40 dy=0 dh=80 dv=0
EndChar

StartChar: I
Encoding: 73 73 44
Width: 285
Flags: W
LayerCount: 2
Fore
SplineSet
74 700 m 5,0,-1
 211 700 l 5,1,-1
 211 0 l 5,2,-1
 74 0 l 5,3,-1
 74 700 l 5,0,-1
EndSplineSet
Position2: "'cpsp' Capital Spacing lookup 0 subtable" dx=40 dy=0 dh=80 dv=0
EndChar

StartChar: J
Encoding: 74 74 45
Width: 334
Flags: W
LayerCount: 2
Fore
SplineSet
131 700 m 1,0,-1
 268 700 l 1,1,-1
 268 188 l 2,2,3
 268 148 268 148 259 112 c 128,-1,4
 250 76 250 76 229.5 48.5 c 128,-1,5
 209 21 209 21 177 4.5 c 128,-1,6
 145 -12 145 -12 99 -12 c 0,7,8
 70 -12 70 -12 36 -6 c 128,-1,9
 2 0 2 0 -23 11 c 1,10,-1
 7 123 l 1,11,12
 33 110 33 110 66 110 c 0,13,14
 108 110 108 110 119.5 141 c 128,-1,15
 131 172 131 172 131 223 c 2,16,-1
 131 700 l 1,0,-1
EndSplineSet
Position2: "'cpsp' Capital Spacing lookup 0 subtable" dx=40 dy=0 dh=80 dv=0
EndChar

StartChar: K
Encoding: 75 75 46
Width: 620
Flags: W
LayerCount: 2
Fore
SplineSet
233 299 m 1,0,-1
 197 299 l 1,1,-1
 197 0 l 1,2,-1
 60 0 l 1,3,-1
 60 700 l 1,4,-1
 197 700 l 1,5,-1
 197 390 l 1,6,-1
 229 404 l 1,7,-1
 422 700 l 1,8,-1
 578 700 l 1,9,-1
 374 406 l 1,10,-1
 320 368 l 1,11,-1
 376 329 l 1,12,-1
 609 0 l 1,13,-1
 440 0 l 1,14,-1
 233 299 l 1,0,-1
EndSplineSet
Position2: "'cpsp' Capital Spacing lookup 0 subtable" dx=40 dy=0 dh=80 dv=0
EndChar

StartChar: L
Encoding: 76 76 47
Width: 514
Flags: W
LayerCount: 2
Fore
SplineSet
503 0 m 1,0,-1
 60 0 l 1,1,-1
 60 700 l 1,2,-1
 197 700 l 1,3,-1
 197 122 l 1,4,-1
 503 122 l 1,5,-1
 503 0 l 1,0,-1
EndSplineSet
Position2: "'cpsp' Capital Spacing lookup 0 subtable" dx=40 dy=0 dh=80 dv=0
EndChar

StartChar: M
Encoding: 77 77 48
Width: 800
Flags: W
LayerCount: 2
Fore
SplineSet
603 363 m 1,0,-1
 618 502 l 1,1,-1
 612 502 l 1,2,-1
 569 390 l 1,3,-1
 420 129 l 1,4,-1
 376 129 l 1,5,-1
 219 391 l 1,6,-1
 175 502 l 1,7,-1
 170 502 l 1,8,-1
 190 364 l 1,9,-1
 190 0 l 1,10,-1
 60 0 l 1,11,-1
 60 700 l 1,12,-1
 185 700 l 1,13,-1
 372 380 l 1,14,-1
 405 300 l 1,15,-1
 409 300 l 1,16,-1
 439 382 l 1,17,-1
 616 700 l 1,18,-1
 740 700 l 1,19,-1
 740 0 l 1,20,-1
 603 0 l 1,21,-1
 603 363 l 1,0,-1
EndSplineSet
Position2: "'cpsp' Capital Spacing lookup 0 subtable" dx=40 dy=0 dh=80 dv=0
EndChar

StartChar: N
Encoding: 78 78 49
Width: 657
Flags: W
LayerCount: 2
Fore
SplineSet
234 365 m 1,0,-1
 179 475 l 1,1,-1
 174 475 l 1,2,-1
 190 365 l 1,3,-1
 190 0 l 1,4,-1
 60 0 l 1,5,-1
 60 705 l 1,6,-1
 160 705 l 1,7,-1
 425 332 l 1,8,-1
 478 225 l 1,9,-1
 483 225 l 1,10,-1
 467 332 l 1,11,-1
 467 700 l 1,12,-1
 597 700 l 1,13,-1
 597 -5 l 1,14,-1
 497 -5 l 1,15,-1
 234 365 l 1,0,-1
EndSplineSet
Position2: "'cpsp' Capital Spacing lookup 0 subtable" dx=40 dy=0 dh=80 dv=0
EndChar

StartChar: O
Encoding: 79 79 50
Width: 670
Flags: W
LayerCount: 2
Fore
SplineSet
38 350 m 4,0,1
 38 525 38 525 115 619.5 c 132,-1,2
 192 714 192 714 335 714 c 4,3,4
 410 714 410 714 466 688 c 132,-1,5
 522 662 522 662 559 614 c 132,-1,6
 596 566 596 566 614 499 c 132,-1,7
 632 432 632 432 632 350 c 4,8,9
 632 175 632 175 554.5 80.5 c 132,-1,10
 477 -14 477 -14 335 -14 c 4,11,12
 259 -14 259 -14 203 12 c 132,-1,13
 147 38 147 38 110.5 86 c 132,-1,14
 74 134 74 134 56 201 c 132,-1,15
 38 268 38 268 38 350 c 4,0,1
182 350 m 4,16,17
 182 297 182 297 191 252.5 c 132,-1,18
 200 208 200 208 218.5 176 c 132,-1,19
 237 144 237 144 266 126 c 132,-1,20
 295 108 295 108 335 108 c 4,21,22
 408 108 408 108 448 165 c 132,-1,23
 488 222 488 222 488 350 c 4,24,25
 488 401 488 401 479.5 445 c 132,-1,26
 471 489 471 489 453 522 c 132,-1,27
 435 555 435 555 406 573.5 c 132,-1,28
 377 592 377 592 335 592 c 4,29,30
 262 592 262 592 222 533.5 c 132,-1,31
 182 475 182 475 182 350 c 4,16,17
EndSplineSet
Position2: "'cpsp' Capital Spacing lookup 0 subtable" dx=40 dy=0 dh=80 dv=0
EndChar

StartChar: P
Encoding: 80 80 51
Width: 572
Flags: W
LayerCount: 2
Fore
SplineSet
60 693 m 1,0,1
 102 701 102 701 152.5 705.5 c 128,-1,2
 203 710 203 710 253 710 c 0,3,4
 305 710 305 710 357.5 701.5 c 128,-1,5
 410 693 410 693 452 667.5 c 128,-1,6
 494 642 494 642 520.5 596.5 c 128,-1,7
 547 551 547 551 547 478 c 0,8,9
 547 412 547 412 524 366.5 c 128,-1,10
 501 321 501 321 463 292 c 128,-1,11
 425 263 425 263 376.5 250 c 128,-1,12
 328 237 328 237 276 237 c 0,13,14
 271 237 271 237 260 237 c 128,-1,15
 249 237 249 237 237 237.5 c 128,-1,16
 225 238 225 238 213.5 239 c 128,-1,17
 202 240 202 240 197 241 c 1,18,-1
 197 0 l 1,19,-1
 60 0 l 1,20,-1
 60 693 l 1,0,1
264 592 m 0,21,22
 244 592 244 592 226 590.5 c 128,-1,23
 208 589 208 589 197 587 c 1,24,-1
 197 360 l 1,25,26
 201 359 201 359 209 358 c 128,-1,27
 217 357 217 357 226 356.5 c 128,-1,28
 235 356 235 356 243.5 356 c 128,-1,29
 252 356 252 356 256 356 c 0,30,31
 283 356 283 356 309.5 361 c 128,-1,32
 336 366 336 366 357 379.5 c 128,-1,33
 378 393 378 393 390.5 417 c 128,-1,34
 403 441 403 441 403 480 c 0,35,36
 403 513 403 513 391 534.5 c 128,-1,37
 379 556 379 556 359.5 569 c 128,-1,38
 340 582 340 582 315 587 c 128,-1,39
 290 592 290 592 264 592 c 0,21,22
EndSplineSet
Position2: "'cpsp' Capital Spacing lookup 0 subtable" dx=40 dy=0 dh=80 dv=0
EndChar

StartChar: Q
Encoding: 81 81 52
Width: 670
Flags: W
LayerCount: 2
Fore
SplineSet
702 -202 m 1,0,1
 654 -215 654 -215 605 -215 c 0,2,3
 554 -215 554 -215 506 -204.5 c 128,-1,4
 458 -194 458 -194 413 -182 c 128,-1,5
 368 -170 368 -170 326 -159.5 c 128,-1,6
 284 -149 284 -149 247 -149 c 0,7,8
 223 -149 223 -149 201 -155 c 1,9,-1
 201 -37 l 1,10,11
 229 -31 229 -31 259 -31 c 0,12,13
 301 -31 301 -31 342.5 -41 c 128,-1,14
 384 -51 384 -51 427 -62.5 c 128,-1,15
 470 -74 470 -74 515 -84 c 128,-1,16
 560 -94 560 -94 610 -94 c 0,17,18
 632 -94 632 -94 655 -91.5 c 128,-1,19
 678 -89 678 -89 702 -83 c 1,20,-1
 702 -202 l 1,0,1
38 350 m 0,21,22
 38 525 38 525 115 619.5 c 128,-1,23
 192 714 192 714 335 714 c 0,24,25
 410 714 410 714 466 688 c 128,-1,26
 522 662 522 662 559 614 c 128,-1,27
 596 566 596 566 614 499 c 128,-1,28
 632 432 632 432 632 350 c 0,29,30
 632 175 632 175 554.5 80.5 c 128,-1,31
 477 -14 477 -14 335 -14 c 0,32,33
 259 -14 259 -14 203 12 c 128,-1,34
 147 38 147 38 110.5 86 c 128,-1,35
 74 134 74 134 56 201 c 128,-1,36
 38 268 38 268 38 350 c 0,21,22
182 350 m 0,37,38
 182 297 182 297 191 252.5 c 128,-1,39
 200 208 200 208 218.5 176 c 128,-1,40
 237 144 237 144 266 126 c 128,-1,41
 295 108 295 108 335 108 c 0,42,43
 408 108 408 108 448 165 c 128,-1,44
 488 222 488 222 488 350 c 0,45,46
 488 401 488 401 479.5 445 c 128,-1,47
 471 489 471 489 453 522 c 128,-1,48
 435 555 435 555 406 573.5 c 128,-1,49
 377 592 377 592 335 592 c 0,50,51
 262 592 262 592 222 533.5 c 128,-1,52
 182 475 182 475 182 350 c 0,37,38
EndSplineSet
Position2: "'cpsp' Capital Spacing lookup 0 subtable" dx=40 dy=0 dh=80 dv=0
EndChar

StartChar: R
Encoding: 82 82 53
Width: 602
Flags: W
LayerCount: 2
Fore
SplineSet
60 693 m 1,0,1
 83 697 83 697 109.5 700.5 c 128,-1,2
 136 704 136 704 162.5 706 c 128,-1,3
 189 708 189 708 214 709 c 128,-1,4
 239 710 239 710 260 710 c 0,5,6
 309 710 309 710 356.5 701 c 128,-1,7
 404 692 404 692 441.5 670 c 128,-1,8
 479 648 479 648 501.5 609.5 c 128,-1,9
 524 571 524 571 524 513 c 0,10,11
 524 427 524 427 484 373 c 128,-1,12
 444 319 444 319 377 298 c 1,13,-1
 426 267 l 1,14,-1
 586 0 l 1,15,-1
 428 0 l 1,16,-1
 269 274 l 1,17,-1
 197 287 l 1,18,-1
 197 0 l 1,19,-1
 60 0 l 1,20,-1
 60 693 l 1,0,1
270 588 m 0,21,22
 249 588 249 588 228.5 587 c 128,-1,23
 208 586 208 586 197 583 c 1,24,-1
 197 380 l 1,25,-1
 255 380 l 2,26,27
 312 380 312 380 346 406 c 128,-1,28
 380 432 380 432 380 492 c 0,29,30
 380 537 380 537 352 562.5 c 128,-1,31
 324 588 324 588 270 588 c 0,21,22
EndSplineSet
Position2: "'cpsp' Capital Spacing lookup 0 subtable" dx=40 dy=0 dh=80 dv=0
EndChar

StartChar: S
Encoding: 83 83 54
Width: 530
Flags: W
LayerCount: 2
Fore
SplineSet
362 188 m 0,0,1
 362 220 362 220 338.5 240 c 128,-1,2
 315 260 315 260 279.5 276.5 c 128,-1,3
 244 293 244 293 202.5 310.5 c 128,-1,4
 161 328 161 328 125.5 353.5 c 128,-1,5
 90 379 90 379 66.5 417 c 128,-1,6
 43 455 43 455 43 514 c 0,7,8
 43 565 43 565 60 602.5 c 128,-1,9
 77 640 77 640 108.5 665 c 128,-1,10
 140 690 140 690 183 702 c 128,-1,11
 226 714 226 714 279 714 c 0,12,13
 340 714 340 714 394 703.5 c 128,-1,14
 448 693 448 693 483 673 c 1,15,-1
 440 558 l 1,16,17
 418 572 418 572 374 583.5 c 128,-1,18
 330 595 330 595 279 595 c 0,19,20
 231 595 231 595 205.5 576 c 128,-1,21
 180 557 180 557 180 525 c 0,22,23
 180 495 180 495 203.5 475 c 128,-1,24
 227 455 227 455 262.5 438 c 128,-1,25
 298 421 298 421 339.5 403 c 128,-1,26
 381 385 381 385 416.5 359.5 c 128,-1,27
 452 334 452 334 475.5 296.5 c 128,-1,28
 499 259 499 259 499 203 c 256,29,30
 499 147 499 147 480.5 106.5 c 128,-1,31
 462 66 462 66 428.5 39 c 128,-1,32
 395 12 395 12 347.5 -1 c 128,-1,33
 300 -14 300 -14 243 -14 c 0,34,35
 168 -14 168 -14 111 0 c 128,-1,36
 54 14 54 14 27 28 c 1,37,-1
 71 145 l 1,38,39
 82 139 82 139 99.5 132 c 128,-1,40
 117 125 117 125 139 119 c 128,-1,41
 161 113 161 113 185.5 109 c 128,-1,42
 210 105 210 105 236 105 c 0,43,44
 297 105 297 105 329.5 125.5 c 128,-1,45
 362 146 362 146 362 188 c 0,0,1
EndSplineSet
Position2: "'cpsp' Capital Spacing lookup 0 subtable" dx=40 dy=0 dh=80 dv=0
EndChar

StartChar: T
Encoding: 84 84 55
Width: 568
Flags: W
LayerCount: 2
Fore
SplineSet
557 578 m 1,0,-1
 353 578 l 1,1,-1
 353 0 l 1,2,-1
 216 0 l 1,3,-1
 216 578 l 1,4,-1
 11 578 l 1,5,-1
 11 700 l 1,6,-1
 557 700 l 1,7,-1
 557 578 l 1,0,-1
EndSplineSet
Position2: "'cpsp' Capital Spacing lookup 0 subtable" dx=40 dy=0 dh=80 dv=0
EndChar

StartChar: U
Encoding: 85 85 56
Width: 627
Flags: W
LayerCount: 2
Fore
SplineSet
440 700 m 5,0,-1
 570 700 l 5,1,-1
 570 248 l 6,2,3
 570 180 570 180 552 131 c 132,-1,4
 534 82 534 82 502 50 c 132,-1,5
 470 18 470 18 424 3 c 132,-1,6
 378 -12 378 -12 323 -12 c 4,7,8
 57 -12 57 -12 57 231 c 6,9,-1
 57 700 l 5,10,-1
 194 700 l 5,11,-1
 194 258 l 6,12,13
 194 217 194 217 201.5 188.5 c 132,-1,14
 209 160 209 160 225 142.5 c 132,-1,15
 241 125 241 125 265 117.5 c 132,-1,16
 289 110 289 110 321 110 c 4,17,18
 384 110 384 110 412 145 c 132,-1,19
 440 180 440 180 440 258 c 6,20,-1
 440 700 l 5,0,-1
EndSplineSet
Position2: "'cpsp' Capital Spacing lookup 0 subtable" dx=40 dy=0 dh=80 dv=0
EndChar

StartChar: V
Encoding: 86 86 57
Width: 602
Flags: W
LayerCount: 2
Fore
SplineSet
290 289 m 1,0,-1
 308 170 l 1,1,-1
 313 170 l 1,2,-1
 333 290 l 1,3,-1
 467 700 l 1,4,-1
 611 700 l 1,5,-1
 351 -5 l 1,6,-1
 253 -5 l 1,7,-1
 -9 700 l 1,8,-1
 150 700 l 1,9,-1
 290 289 l 1,0,-1
EndSplineSet
Position2: "'cpsp' Capital Spacing lookup 0 subtable" dx=40 dy=0 dh=80 dv=0
EndChar

StartChar: W
Encoding: 87 87 58
Width: 862
Flags: W
LayerCount: 2
Fore
SplineSet
242 309 m 1,0,-1
 255 185 l 1,1,-1
 259 185 l 1,2,-1
 273 311 l 1,3,-1
 395 700 l 1,4,-1
 485 700 l 1,5,-1
 605 309 l 1,6,-1
 619 185 l 1,7,-1
 623 185 l 1,8,-1
 638 311 l 1,9,-1
 723 700 l 1,10,-1
 862 700 l 1,11,-1
 669 -5 l 1,12,-1
 577 -5 l 1,13,-1
 452 384 l 1,14,-1
 435 491 l 1,15,-1
 430 491 l 1,16,-1
 413 383 l 1,17,-1
 289 -5 l 1,18,-1
 192 -5 l 1,19,-1
 0 700 l 1,20,-1
 149 700 l 1,21,-1
 242 309 l 1,0,-1
EndSplineSet
Position2: "'cpsp' Capital Spacing lookup 0 subtable" dx=40 dy=0 dh=80 dv=0
EndChar

StartChar: X
Encoding: 88 88 59
Width: 633
Flags: W
LayerCount: 2
Fore
SplineSet
225 356 m 1,0,-1
 30 700 l 1,1,-1
 195 700 l 1,2,-1
 303 498 l 1,3,-1
 327 427 l 1,4,-1
 350 498 l 1,5,-1
 463 700 l 1,6,-1
 612 700 l 1,7,-1
 410 363 l 1,8,-1
 622 0 l 1,9,-1
 459 0 l 1,10,-1
 336 216 l 1,11,-1
 309 290 l 1,12,-1
 283 216 l 1,13,-1
 159 0 l 1,14,-1
 10 0 l 1,15,-1
 225 356 l 1,0,-1
EndSplineSet
Position2: "'cpsp' Capital Spacing lookup 0 subtable" dx=40 dy=0 dh=80 dv=0
EndChar

StartChar: Y
Encoding: 89 89 60
Width: 592
Flags: W
LayerCount: 2
Fore
SplineSet
228 260 m 5,0,-1
 -2 700 l 5,1,-1
 161 700 l 5,2,-1
 289 437 l 5,3,-1
 303 363 l 5,4,-1
 308 363 l 5,5,-1
 323 439 l 5,6,-1
 447 700 l 5,7,-1
 594 700 l 5,8,-1
 365 261 l 5,9,-1
 365 0 l 5,10,-1
 228 0 l 5,11,-1
 228 260 l 5,0,-1
EndSplineSet
Position2: "'cpsp' Capital Spacing lookup 0 subtable" dx=40 dy=0 dh=80 dv=0
EndChar

StartChar: Z
Encoding: 90 90 61
Width: 539
Flags: W
LayerCount: 2
Fore
SplineSet
27 122 m 1,0,-1
 323 536 l 1,1,-1
 375 578 l 1,2,-1
 27 578 l 1,3,-1
 27 700 l 1,4,-1
 512 700 l 1,5,-1
 512 578 l 1,6,-1
 214 160 l 1,7,-1
 163 122 l 1,8,-1
 512 122 l 1,9,-1
 512 0 l 1,10,-1
 27 0 l 1,11,-1
 27 122 l 1,0,-1
EndSplineSet
Position2: "'cpsp' Capital Spacing lookup 0 subtable" dx=40 dy=0 dh=80 dv=0
EndChar

StartChar: bracketleft
Encoding: 91 91 62
Width: 324
Flags: W
LayerCount: 2
Fore
SplineSet
60 700 m 1,0,-1
 295 700 l 1,1,-1
 295 590 l 1,2,-1
 184 590 l 1,3,-1
 184 -120 l 1,4,-1
 295 -120 l 1,5,-1
 295 -230 l 1,6,-1
 60 -230 l 1,7,-1
 60 700 l 1,0,-1
EndSplineSet
Position2: "'case' Case-Sensitive Forms lookup 1 per glyph data 3" dx=0 dy=100 dh=0 dv=0
EndChar

StartChar: backslash
Encoding: 92 92 63
Width: 424
Flags: W
LayerCount: 2
Fore
SplineSet
438 -95 m 1,0,-1
 339 -140 l 1,1,-1
 -24 668 l 1,2,-1
 78 711 l 1,3,-1
 438 -95 l 1,0,-1
EndSplineSet
EndChar

StartChar: bracketright
Encoding: 93 93 64
Width: 324
Flags: W
LayerCount: 2
Fore
SplineSet
264 -230 m 1,0,-1
 29 -230 l 1,1,-1
 29 -120 l 1,2,-1
 140 -120 l 1,3,-1
 140 590 l 1,4,-1
 29 590 l 1,5,-1
 29 700 l 1,6,-1
 264 700 l 1,7,-1
 264 -230 l 1,0,-1
EndSplineSet
Position2: "'case' Case-Sensitive Forms lookup 1 per glyph data 3" dx=0 dy=100 dh=0 dv=0
EndChar

StartChar: asciicircum
Encoding: 94 94 65
Width: 500
Flags: W
LayerCount: 2
Fore
SplineSet
216 705 m 1,0,-1
 285 705 l 1,1,-1
 470 413 l 1,2,-1
 339 413 l 1,3,-1
 268 535 l 1,4,-1
 247 605 l 1,5,-1
 222 534 l 1,6,-1
 144 413 l 1,7,-1
 20 413 l 1,8,-1
 216 705 l 1,0,-1
EndSplineSet
EndChar

StartChar: underscore
Encoding: 95 95 66
Width: 444
Flags: W
LayerCount: 2
Fore
SplineSet
0 -117 m 1,0,-1
 444 -117 l 1,1,-1
 444 -224 l 1,2,-1
 0 -224 l 1,3,-1
 0 -117 l 1,0,-1
EndSplineSet
EndChar

StartChar: grave
Encoding: 96 96 67
Width: 316
Flags: W
LayerCount: 2
Fore
SplineSet
256 566 m 1,0,-1
 184 566 l 1,1,-1
 60 690 l 1,2,-1
 60 720 l 1,3,-1
 196 720 l 1,4,-1
 256 566 l 1,0,-1
EndSplineSet
EndChar

StartChar: a
Encoding: 97 97 68
Width: 496
Flags: W
LayerCount: 2
Fore
SplineSet
54 471 m 5,0,1
 94 489 94 489 149 499.5 c 132,-1,2
 204 510 204 510 264 510 c 4,3,4
 316 510 316 510 351 497.5 c 132,-1,5
 386 485 386 485 406.5 462 c 132,-1,6
 427 439 427 439 435.5 407 c 132,-1,7
 444 375 444 375 444 335 c 4,8,9
 444 291 444 291 441 246.5 c 132,-1,10
 438 202 438 202 437.5 159 c 132,-1,11
 437 116 437 116 440 75.5 c 132,-1,12
 443 35 443 35 455 -1 c 5,13,-1
 349 -1 l 5,14,-1
 328 68 l 5,15,-1
 323 68 l 5,16,17
 303 37 303 37 267.5 14.5 c 132,-1,18
 232 -8 232 -8 176 -8 c 4,19,20
 141 -8 141 -8 113 2.5 c 132,-1,21
 85 13 85 13 65 32.5 c 132,-1,22
 45 52 45 52 34 78.5 c 132,-1,23
 23 105 23 105 23 138 c 4,24,25
 23 184 23 184 43.5 215.5 c 132,-1,26
 64 247 64 247 102.5 266.5 c 132,-1,27
 141 286 141 286 194.5 293.5 c 132,-1,28
 248 301 248 301 314 298 c 5,29,30
 321 354 321 354 306 378.5 c 132,-1,31
 291 403 291 403 239 403 c 4,32,33
 200 403 200 403 156.5 395 c 132,-1,34
 113 387 113 387 85 374 c 5,35,-1
 54 471 l 5,0,1
219 99 m 4,36,37
 258 99 258 99 281 116.5 c 132,-1,38
 304 134 304 134 315 154 c 5,39,-1
 315 219 l 5,40,41
 284 222 284 222 255.5 220 c 132,-1,42
 227 218 227 218 205 211 c 132,-1,43
 183 204 183 204 170 191 c 132,-1,44
 157 178 157 178 157 158 c 4,45,46
 157 130 157 130 173.5 114.5 c 132,-1,47
 190 99 190 99 219 99 c 4,36,37
EndSplineSet
Substitution2: "Single Substitution lookup 13 subtable" ordfeminine
EndChar

StartChar: b
Encoding: 98 98 69
Width: 536
Flags: W
LayerCount: 2
Fore
SplineSet
57 700 m 1,0,-1
 187 700 l 1,1,-1
 187 460 l 1,2,-1
 191 460 l 1,3,4
 212 484 212 484 245 498 c 128,-1,5
 278 512 278 512 318 512 c 0,6,7
 408 512 408 512 455.5 450.5 c 128,-1,8
 503 389 503 389 503 263 c 0,9,10
 503 128 503 128 436.5 58 c 128,-1,11
 370 -12 370 -12 254 -12 c 0,12,13
 190 -12 190 -12 137 -1.5 c 128,-1,14
 84 9 84 9 57 22 c 1,15,-1
 57 700 l 1,0,-1
280 402 m 0,16,17
 244 402 244 402 221.5 383.5 c 128,-1,18
 199 365 199 365 187 330 c 1,19,-1
 187 112 l 1,20,21
 203 104 203 104 221.5 101 c 128,-1,22
 240 98 240 98 261 98 c 0,23,24
 314 98 314 98 341.5 136.5 c 128,-1,25
 369 175 369 175 369 259 c 0,26,27
 369 402 369 402 280 402 c 0,16,17
EndSplineSet
EndChar

StartChar: c
Encoding: 99 99 70
Width: 433
Flags: W
LayerCount: 2
Fore
SplineSet
411 31 m 1,0,1
 381 9 381 9 338.5 -2.5 c 128,-1,2
 296 -14 296 -14 251 -14 c 0,3,4
 191 -14 191 -14 149.5 5 c 128,-1,5
 108 24 108 24 82 58.5 c 128,-1,6
 56 93 56 93 44.5 142 c 128,-1,7
 33 191 33 191 33 250 c 0,8,9
 33 377 33 377 90 445.5 c 128,-1,10
 147 514 147 514 256 514 c 0,11,12
 311 514 311 514 344.5 505 c 128,-1,13
 378 496 378 496 405 482 c 1,14,-1
 374 376 l 1,15,16
 351 387 351 387 328.5 393 c 128,-1,17
 306 399 306 399 277 399 c 0,18,19
 223 399 223 399 195 363.5 c 128,-1,20
 167 328 167 328 167 250 c 0,21,22
 167 218 167 218 174 191 c 128,-1,23
 181 164 181 164 195 144 c 128,-1,24
 209 124 209 124 231.5 112.5 c 128,-1,25
 254 101 254 101 284 101 c 0,26,27
 317 101 317 101 340 109.5 c 128,-1,28
 363 118 363 118 381 130 c 1,29,-1
 411 31 l 1,0,1
EndSplineSet
EndChar

StartChar: d
Encoding: 100 100 71
Width: 539
Flags: W
LayerCount: 2
Fore
SplineSet
482 176 m 2,0,1
 482 134 482 134 483 92 c 128,-1,2
 484 50 484 50 492 -1 c 1,3,-1
 399 -1 l 1,4,-1
 381 64 l 1,5,-1
 377 64 l 1,6,7
 357 29 357 29 319.5 7.5 c 128,-1,8
 282 -14 282 -14 231 -14 c 0,9,10
 137 -14 137 -14 85 48 c 128,-1,11
 33 110 33 110 33 242 c 0,12,13
 33 370 33 370 91 441 c 128,-1,14
 149 512 149 512 261 512 c 0,15,16
 292 512 292 512 312 508.5 c 128,-1,17
 332 505 332 505 352 497 c 1,18,-1
 352 700 l 1,19,-1
 482 700 l 1,20,-1
 482 176 l 2,0,1
261 96 m 0,21,22
 299 96 299 96 321 114.5 c 128,-1,23
 343 133 343 133 352 168 c 1,24,-1
 352 380 l 1,25,26
 338 391 338 391 321 396.5 c 128,-1,27
 304 402 304 402 277 402 c 0,28,29
 222 402 222 402 194.5 365 c 128,-1,30
 167 328 167 328 167 238 c 0,31,32
 167 174 167 174 189.5 135 c 128,-1,33
 212 96 212 96 261 96 c 0,21,22
EndSplineSet
EndChar

StartChar: e
Encoding: 101 101 72
Width: 508
Flags: W
LayerCount: 2
Fore
SplineSet
457 43 m 5,0,1
 427 19 427 19 375.5 2.5 c 132,-1,2
 324 -14 324 -14 266 -14 c 4,3,4
 145 -14 145 -14 89 56.5 c 132,-1,5
 33 127 33 127 33 250 c 4,6,7
 33 382 33 382 96 448 c 132,-1,8
 159 514 159 514 273 514 c 4,9,10
 311 514 311 514 347 504 c 132,-1,11
 383 494 383 494 411 471 c 132,-1,12
 439 448 439 448 456 409 c 132,-1,13
 473 370 473 370 473 312 c 4,14,15
 473 291 473 291 470.5 267 c 132,-1,16
 468 243 468 243 463 217 c 5,17,-1
 163 217 l 5,18,19
 166 154 166 154 195.5 122 c 132,-1,20
 225 90 225 90 291 90 c 4,21,22
 332 90 332 90 364.5 102.5 c 132,-1,23
 397 115 397 115 414 128 c 5,24,-1
 457 43 l 5,0,1
271 410 m 4,25,26
 220 410 220 410 195.5 379.5 c 132,-1,27
 171 349 171 349 166 298 c 5,28,-1
 352 298 l 5,29,30
 356 352 356 352 335.5 381 c 132,-1,31
 315 410 315 410 271 410 c 4,25,26
EndSplineSet
EndChar

StartChar: f
Encoding: 102 102 73
Width: 321
Flags: W
LayerCount: 2
Fore
SplineSet
11 500 m 1,0,-1
 80 500 l 1,1,-1
 80 528 l 2,2,3
 80 623 80 623 120 665.5 c 128,-1,4
 160 708 160 708 236 708 c 0,5,6
 316 708 316 708 369 689 c 1,7,-1
 344 585 l 1,8,9
 321 593 321 593 303.5 595.5 c 128,-1,10
 286 598 286 598 267 598 c 0,11,12
 247 598 247 598 235.5 592 c 128,-1,13
 224 586 224 586 218.5 573.5 c 128,-1,14
 213 561 213 561 211.5 542.5 c 128,-1,15
 210 524 210 524 210 500 c 1,16,-1
 320 500 l 1,17,-1
 320 390 l 1,18,-1
 210 390 l 1,19,-1
 210 0 l 1,20,-1
 80 0 l 1,21,-1
 80 390 l 1,22,-1
 11 390 l 1,23,-1
 11 500 l 1,0,-1
EndSplineSet
EndChar

StartChar: g
Encoding: 103 103 74
Width: 536
Flags: W
LayerCount: 2
Fore
SplineSet
480 0 m 2,0,1
 480 -109 480 -109 421 -160.5 c 128,-1,2
 362 -212 362 -212 256 -212 c 0,3,4
 184 -212 184 -212 142.5 -202 c 128,-1,5
 101 -192 101 -192 80 -181 c 1,6,-1
 107 -78 l 1,7,8
 130 -87 130 -87 160.5 -96 c 128,-1,9
 191 -105 191 -105 236 -105 c 0,10,11
 304 -105 304 -105 328.5 -75.5 c 128,-1,12
 353 -46 353 -46 353 7 c 2,13,-1
 353 39 l 1,14,-1
 349 39 l 1,15,16
 314 -8 314 -8 225 -8 c 0,17,18
 128 -8 128 -8 80.5 52 c 128,-1,19
 33 112 33 112 33 240 c 0,20,21
 33 374 33 374 97 443 c 128,-1,22
 161 512 161 512 283 512 c 0,23,24
 347 512 347 512 397.5 503 c 128,-1,25
 448 494 448 494 480 482 c 1,26,-1
 480 0 l 2,0,1
260 96 m 0,27,28
 298 96 298 96 318.5 113 c 128,-1,29
 339 130 339 130 350 164 c 1,30,-1
 350 389 l 1,31,32
 319 402 319 402 273 402 c 0,33,34
 223 402 223 402 195 364.5 c 128,-1,35
 167 327 167 327 167 245 c 0,36,37
 167 172 167 172 191 134 c 128,-1,38
 215 96 215 96 260 96 c 0,27,28
EndSplineSet
EndChar

StartChar: h
Encoding: 104 104 75
Width: 545
Flags: W
LayerCount: 2
Fore
SplineSet
363 0 m 1,0,-1
 363 284 l 2,1,2
 363 345 363 345 346 372 c 128,-1,3
 329 399 329 399 284 399 c 0,4,5
 251 399 251 399 223.5 376.5 c 128,-1,6
 196 354 196 354 187 319 c 1,7,-1
 187 0 l 1,8,-1
 57 0 l 1,9,-1
 57 700 l 1,10,-1
 187 700 l 1,11,-1
 187 444 l 1,12,-1
 191 444 l 1,13,14
 215 476 215 476 250 495 c 128,-1,15
 285 514 285 514 339 514 c 0,16,17
 377 514 377 514 406 504 c 128,-1,18
 435 494 435 494 454.5 471 c 128,-1,19
 474 448 474 448 483.5 408.5 c 128,-1,20
 493 369 493 369 493 311 c 2,21,-1
 493 0 l 1,22,-1
 363 0 l 1,0,-1
EndSplineSet
EndChar

StartChar: k
Encoding: 107 107 78
Width: 491
Flags: W
LayerCount: 2
Fore
SplineSet
222 207 m 1,0,-1
 187 207 l 1,1,-1
 187 0 l 1,2,-1
 57 0 l 1,3,-1
 57 700 l 1,4,-1
 187 700 l 1,5,-1
 187 287 l 1,6,-1
 217 301 l 1,7,-1
 331 500 l 1,8,-1
 474 500 l 1,9,-1
 354 310 l 1,10,-1
 303 272 l 1,11,-1
 358 233 l 1,12,-1
 493 0 l 1,13,-1
 344 0 l 1,14,-1
 222 207 l 1,0,-1
EndSplineSet
EndChar

StartChar: l
Encoding: 108 108 79
Width: 294
Flags: W
LayerCount: 2
Fore
SplineSet
191 168 m 2,0,1
 191 133 191 133 200 117 c 128,-1,2
 209 101 209 101 229 101 c 0,3,4
 241 101 241 101 252.5 103 c 128,-1,5
 264 105 264 105 281 112 c 1,6,-1
 295 10 l 1,7,8
 279 2 279 2 246 -6 c 128,-1,9
 213 -14 213 -14 178 -14 c 0,10,11
 121 -14 121 -14 91 12.5 c 128,-1,12
 61 39 61 39 61 100 c 2,13,-1
 61 700 l 1,14,-1
 191 700 l 1,15,-1
 191 168 l 2,0,1
EndSplineSet
Substitution2: "'aalt' Access All Alternates lookup 0 subtable" l.var
EndChar

StartChar: m
Encoding: 109 109 80
Width: 805
Flags: W
LayerCount: 2
Fore
SplineSet
341 0 m 1,0,-1
 341 272 l 2,1,2
 341 341 341 341 328 370 c 128,-1,3
 315 399 315 399 274 399 c 0,4,5
 240 399 240 399 219 380.5 c 128,-1,6
 198 362 198 362 187 333 c 1,7,-1
 187 0 l 1,8,-1
 57 0 l 1,9,-1
 57 500 l 1,10,-1
 158 500 l 1,11,-1
 173 434 l 1,12,-1
 177 434 l 1,13,14
 200 466 200 466 235.5 490 c 128,-1,15
 271 514 271 514 327 514 c 0,16,17
 375 514 375 514 405.5 494.5 c 128,-1,18
 436 475 436 475 453 429 c 1,19,20
 476 468 476 468 512 491 c 128,-1,21
 548 514 548 514 599 514 c 0,22,23
 641 514 641 514 670.5 504 c 128,-1,24
 700 494 700 494 718.5 469.5 c 128,-1,25
 737 445 737 445 746 404 c 128,-1,26
 755 363 755 363 755 300 c 2,27,-1
 755 0 l 1,28,-1
 625 0 l 1,29,-1
 625 281 l 2,30,31
 625 340 625 340 612.5 369.5 c 128,-1,32
 600 399 600 399 557 399 c 0,33,34
 522 399 522 399 501.5 380 c 128,-1,35
 481 361 481 361 471 328 c 1,36,-1
 471 0 l 1,37,-1
 341 0 l 1,0,-1
EndSplineSet
EndChar

StartChar: n
Encoding: 110 110 81
Width: 545
Flags: W
LayerCount: 2
Fore
SplineSet
363 0 m 1,0,-1
 363 284 l 2,1,2
 363 345 363 345 345.5 372 c 128,-1,3
 328 399 328 399 286 399 c 0,4,5
 249 399 249 399 223.5 377.5 c 128,-1,6
 198 356 198 356 187 324 c 1,7,-1
 187 0 l 1,8,-1
 57 0 l 1,9,-1
 57 500 l 1,10,-1
 160 500 l 1,11,-1
 175 434 l 1,12,-1
 179 434 l 1,13,14
 202 466 202 466 240 490 c 128,-1,15
 278 514 278 514 338 514 c 0,16,17
 375 514 375 514 404 504 c 128,-1,18
 433 494 433 494 453 471 c 128,-1,19
 473 448 473 448 483 408.5 c 128,-1,20
 493 369 493 369 493 311 c 2,21,-1
 493 0 l 1,22,-1
 363 0 l 1,0,-1
EndSplineSet
EndChar

StartChar: o
Encoding: 111 111 82
Width: 537
Flags: W
LayerCount: 2
Fore
SplineSet
33 250 m 4,0,1
 33 377 33 377 95 445.5 c 132,-1,2
 157 514 157 514 269 514 c 4,3,4
 329 514 329 514 373 495 c 132,-1,5
 417 476 417 476 446 441.5 c 132,-1,6
 475 407 475 407 489.5 358 c 132,-1,7
 504 309 504 309 504 250 c 4,8,9
 504 123 504 123 442.5 54.5 c 132,-1,10
 381 -14 381 -14 269 -14 c 4,11,12
 209 -14 209 -14 165 5 c 132,-1,13
 121 24 121 24 91.5 58.5 c 132,-1,14
 62 93 62 93 47.5 142 c 132,-1,15
 33 191 33 191 33 250 c 4,0,1
167 250 m 4,16,17
 167 217 167 217 173 189 c 132,-1,18
 179 161 179 161 191 140 c 132,-1,19
 203 119 203 119 222.5 107.5 c 132,-1,20
 242 96 242 96 269 96 c 4,21,22
 320 96 320 96 345 133 c 132,-1,23
 370 170 370 170 370 250 c 4,24,25
 370 319 370 319 347 361.5 c 132,-1,26
 324 404 324 404 269 404 c 4,27,28
 221 404 221 404 194 368 c 132,-1,29
 167 332 167 332 167 250 c 4,16,17
EndSplineSet
Substitution2: "Single Substitution lookup 13 subtable" ordmasculine
EndChar

StartChar: p
Encoding: 112 112 83
Width: 540
Flags: W
LayerCount: 2
Fore
SplineSet
57 500 m 1,0,-1
 152 500 l 1,1,-1
 167 440 l 1,2,-1
 171 440 l 1,3,4
 197 478 197 478 232.5 496 c 128,-1,5
 268 514 268 514 319 514 c 0,6,7
 413 514 413 514 460 454.5 c 128,-1,8
 507 395 507 395 507 263 c 0,9,10
 507 199 507 199 492 147.5 c 128,-1,11
 477 96 477 96 447.5 60 c 128,-1,12
 418 24 418 24 375.5 5 c 128,-1,13
 333 -14 333 -14 278 -14 c 0,14,15
 247 -14 247 -14 227 -9.5 c 128,-1,16
 207 -5 207 -5 187 5 c 1,17,-1
 187 -200 l 1,18,-1
 57 -200 l 1,19,-1
 57 500 l 1,0,-1
280 404 m 0,20,21
 242 404 242 404 220.5 385 c 128,-1,22
 199 366 199 366 187 328 c 1,23,-1
 187 120 l 1,24,25
 201 109 201 109 217.5 102.5 c 128,-1,26
 234 96 234 96 261 96 c 0,27,28
 317 96 317 96 345 135.5 c 128,-1,29
 373 175 373 175 373 266 c 0,30,31
 373 332 373 332 351 368 c 128,-1,32
 329 404 329 404 280 404 c 0,20,21
EndSplineSet
EndChar

StartChar: q
Encoding: 113 113 84
Width: 536
Flags: W
LayerCount: 2
Fore
SplineSet
480 -200 m 1,0,-1
 350 -200 l 1,1,-1
 350 43 l 1,2,-1
 346 43 l 1,3,4
 329 17 329 17 300 1.5 c 128,-1,5
 271 -14 271 -14 225 -14 c 0,6,7
 132 -14 132 -14 82.5 49 c 128,-1,8
 33 112 33 112 33 240 c 0,9,10
 33 374 33 374 100.5 443 c 128,-1,11
 168 512 168 512 294 512 c 0,12,13
 321 512 321 512 348 509.5 c 128,-1,14
 375 507 375 507 399.5 502.5 c 128,-1,15
 424 498 424 498 445 492.5 c 128,-1,16
 466 487 466 487 480 482 c 1,17,-1
 480 -200 l 1,0,-1
260 96 m 0,18,19
 298 96 298 96 318.5 113 c 128,-1,20
 339 130 339 130 350 164 c 1,21,-1
 350 389 l 1,22,23
 335 397 335 397 316 399.5 c 128,-1,24
 297 402 297 402 273 402 c 0,25,26
 220 402 220 402 193.5 362 c 128,-1,27
 167 322 167 322 167 245 c 0,28,29
 167 172 167 172 191 134 c 128,-1,30
 215 96 215 96 260 96 c 0,18,19
EndSplineSet
EndChar

StartChar: r
Encoding: 114 114 85
Width: 351
Flags: W
LayerCount: 2
Fore
SplineSet
333 378 m 1,0,1
 302 389 302 389 277 389 c 0,2,3
 242 389 242 389 218.5 370.5 c 128,-1,4
 195 352 195 352 187 323 c 1,5,-1
 187 0 l 1,6,-1
 57 0 l 1,7,-1
 57 500 l 1,8,-1
 158 500 l 1,9,-1
 173 434 l 1,10,-1
 177 434 l 1,11,12
 194 471 194 471 223 491 c 128,-1,13
 252 511 252 511 291 511 c 0,14,15
 317 511 317 511 350 500 c 1,16,-1
 333 378 l 1,0,1
EndSplineSet
EndChar

StartChar: s
Encoding: 115 115 86
Width: 422
Flags: W
LayerCount: 2
Fore
SplineSet
264 138 m 0,0,1
 264 158 264 158 247 170 c 128,-1,2
 230 182 230 182 205 192 c 128,-1,3
 180 202 180 202 150 212.5 c 128,-1,4
 120 223 120 223 95 241.5 c 128,-1,5
 70 260 70 260 53 288.5 c 128,-1,6
 36 317 36 317 36 362 c 0,7,8
 36 436 36 436 80 475 c 128,-1,9
 124 514 124 514 207 514 c 0,10,11
 264 514 264 514 310 502 c 128,-1,12
 356 490 356 490 382 475 c 1,13,-1
 353 381 l 1,14,15
 330 390 330 390 295 400 c 128,-1,16
 260 410 260 410 224 410 c 0,17,18
 166 410 166 410 166 365 c 0,19,20
 166 347 166 347 183 336 c 128,-1,21
 200 325 200 325 225 315.5 c 128,-1,22
 250 306 250 306 280 295 c 128,-1,23
 310 284 310 284 335 266.5 c 128,-1,24
 360 249 360 249 377 221 c 128,-1,25
 394 193 394 193 394 149 c 0,26,27
 394 73 394 73 345.5 29.5 c 128,-1,28
 297 -14 297 -14 200 -14 c 0,29,30
 147 -14 147 -14 100.5 -0.5 c 128,-1,31
 54 13 54 13 25 31 c 1,32,-1
 61 128 l 1,33,34
 84 115 84 115 122 102.5 c 128,-1,35
 160 90 160 90 200 90 c 0,36,37
 229 90 229 90 246.5 101 c 128,-1,38
 264 112 264 112 264 138 c 0,0,1
EndSplineSet
Substitution2: "'hist' Historical Forms lookup 10 subtable" longs
Substitution2: "'aalt' Access All Alternates lookup 0 subtable" longs
EndChar

StartChar: t
Encoding: 116 116 87
Width: 349
Flags: W
LayerCount: 2
Fore
SplineSet
5 500 m 1,0,-1
 74 500 l 1,1,-1
 74 594 l 1,2,-1
 204 631 l 1,3,-1
 204 500 l 1,4,-1
 326 500 l 1,5,-1
 326 390 l 1,6,-1
 204 390 l 1,7,-1
 204 198 l 2,8,9
 204 146 204 146 214.5 123.5 c 128,-1,10
 225 101 225 101 254 101 c 0,11,12
 274 101 274 101 288.5 105 c 128,-1,13
 303 109 303 109 321 117 c 1,14,-1
 344 17 l 1,15,16
 317 4 317 4 281 -5 c 128,-1,17
 245 -14 245 -14 208 -14 c 0,18,19
 139 -14 139 -14 106.5 21.5 c 128,-1,20
 74 57 74 57 74 138 c 2,21,-1
 74 390 l 1,22,-1
 5 390 l 1,23,-1
 5 500 l 1,0,-1
EndSplineSet
EndChar

StartChar: u
Encoding: 117 117 88
Width: 538
Flags: W
LayerCount: 2
Fore
SplineSet
182 500 m 5,0,-1
 182 216 l 6,1,2
 182 155 182 155 196.5 128 c 132,-1,3
 211 101 211 101 253 101 c 4,4,5
 290 101 290 101 314.5 123 c 132,-1,6
 339 145 339 145 351 177 c 5,7,-1
 351 500 l 5,8,-1
 481 500 l 5,9,-1
 481 152 l 6,10,11
 481 111 481 111 485 71.5 c 132,-1,12
 489 32 489 32 497 0 c 5,13,-1
 399 0 l 5,14,-1
 376 74 l 5,15,-1
 372 74 l 5,16,17
 349 36 349 36 308 11 c 132,-1,18
 267 -14 267 -14 211 -14 c 4,19,20
 173 -14 173 -14 143 -4 c 132,-1,21
 113 6 113 6 93 29 c 132,-1,22
 73 52 73 52 62.5 91 c 132,-1,23
 52 130 52 130 52 189 c 6,24,-1
 52 500 l 5,25,-1
 182 500 l 5,0,-1
EndSplineSet
EndChar

StartChar: v
Encoding: 118 118 89
Width: 477
Flags: W
LayerCount: 2
Fore
SplineSet
230 238 m 1,0,-1
 247 161 l 1,1,-1
 252 161 l 1,2,-1
 266 240 l 1,3,-1
 351 500 l 1,4,-1
 491 500 l 1,5,-1
 282 -5 l 1,6,-1
 203 -5 l 1,7,-1
 -14 500 l 1,8,-1
 137 500 l 1,9,-1
 230 238 l 1,0,-1
EndSplineSet
EndChar

StartChar: w
Encoding: 119 119 90
Width: 721
Flags: W
LayerCount: 2
Fore
SplineSet
419 500 m 1,0,-1
 510 244 l 1,1,-1
 528 161 l 1,2,-1
 532 161 l 1,3,-1
 546 245 l 1,4,-1
 610 500 l 1,5,-1
 729 500 l 1,6,-1
 575 -5 l 1,7,-1
 479 -5 l 1,8,-1
 378 275 l 1,9,-1
 365 338 l 1,10,-1
 360 338 l 1,11,-1
 348 274 l 1,12,-1
 252 -5 l 1,13,-1
 153 -5 l 1,14,-1
 -8 500 l 1,15,-1
 133 500 l 1,16,-1
 206 249 l 1,17,-1
 218 160 l 1,18,-1
 223 160 l 1,19,-1
 240 250 l 1,20,-1
 323 500 l 1,21,-1
 419 500 l 1,0,-1
EndSplineSet
EndChar

StartChar: x
Encoding: 120 120 91
Width: 525
Flags: W
LayerCount: 2
Fore
SplineSet
170 256 m 1,0,-1
 20 500 l 1,1,-1
 175 500 l 1,2,-1
 240 393 l 1,3,-1
 268 323 l 1,4,-1
 298 393 l 1,5,-1
 366 500 l 1,6,-1
 507 500 l 1,7,-1
 356 260 l 1,8,-1
 517 0 l 1,9,-1
 366 0 l 1,10,-1
 289 120 l 1,11,-1
 259 194 l 1,12,-1
 227 120 l 1,13,-1
 150 0 l 1,14,-1
 8 0 l 1,15,-1
 170 256 l 1,0,-1
EndSplineSet
EndChar

StartChar: y
Encoding: 121 121 92
Width: 478
Flags: W
LayerCount: 2
Fore
SplineSet
239 219 m 5,0,-1
 257 141 l 5,1,-1
 263 141 l 5,2,-1
 276 220 l 5,3,-1
 352 500 l 5,4,-1
 486 500 l 5,5,-1
 334 49 l 6,6,7
 315 -7 315 -7 297.5 -53.5 c 132,-1,8
 280 -100 280 -100 259 -134 c 132,-1,9
 238 -168 238 -168 212.5 -186.5 c 132,-1,10
 187 -205 187 -205 152 -205 c 4,11,12
 100 -205 100 -205 69 -188 c 5,13,-1
 93 -84 l 5,14,15
 108 -90 108 -90 123 -90 c 4,16,17
 146 -90 146 -90 167.5 -70.5 c 132,-1,18
 189 -51 189 -51 200 0 c 5,19,-1
 -9 500 l 5,20,-1
 147 500 l 5,21,-1
 239 219 l 5,0,-1
EndSplineSet
EndChar

StartChar: z
Encoding: 122 122 93
Width: 458
Flags: W
LayerCount: 2
Fore
SplineSet
31 110 m 1,0,-1
 228 347 l 1,1,-1
 279 390 l 1,2,-1
 31 390 l 1,3,-1
 31 500 l 1,4,-1
 423 500 l 1,5,-1
 423 390 l 1,6,-1
 228 149 l 1,7,-1
 178 110 l 1,8,-1
 423 110 l 1,9,-1
 423 0 l 1,10,-1
 31 0 l 1,11,-1
 31 110 l 1,0,-1
EndSplineSet
EndChar

StartChar: braceleft
Encoding: 123 123 94
Width: 371
Flags: W
LayerCount: 2
Fore
SplineSet
123 96 m 2,0,1
 123 147 123 147 102 166 c 128,-1,2
 81 185 81 185 43 185 c 1,3,-1
 43 285 l 1,4,5
 81 285 81 285 102 305.5 c 128,-1,6
 123 326 123 326 123 370 c 2,7,-1
 123 579 l 2,8,9
 123 633 123 633 148.5 667 c 128,-1,10
 174 701 174 701 230 701 c 2,11,-1
 350 701 l 1,12,-1
 350 591 l 1,13,-1
 300 591 l 2,14,15
 273 591 273 591 260.5 577 c 128,-1,16
 248 563 248 563 248 531 c 2,17,-1
 248 336 l 2,18,19
 248 292 248 292 227 269.5 c 128,-1,20
 206 247 206 247 178 242 c 1,21,-1
 178 232 l 1,22,23
 205 228 205 228 226.5 202 c 128,-1,24
 248 176 248 176 248 134 c 2,25,-1
 248 -60 l 2,26,27
 248 -92 248 -92 260 -106 c 128,-1,28
 272 -120 272 -120 301 -120 c 2,29,-1
 350 -120 l 1,30,-1
 350 -230 l 1,31,-1
 230 -230 l 2,32,33
 178 -230 178 -230 150.5 -198.5 c 128,-1,34
 123 -167 123 -167 123 -109 c 2,35,-1
 123 96 l 2,0,1
EndSplineSet
Position2: "'case' Case-Sensitive Forms lookup 1 per glyph data 3" dx=0 dy=100 dh=0 dv=0
EndChar

StartChar: bar
Encoding: 124 124 95
Width: 227
Flags: W
LayerCount: 2
Fore
SplineSet
60 700 m 1,0,-1
 167 700 l 1,1,-1
 167 -130 l 1,2,-1
 60 -130 l 1,3,-1
 60 700 l 1,0,-1
EndSplineSet
EndChar

StartChar: braceright
Encoding: 125 125 96
Width: 371
Flags: W
LayerCount: 2
Fore
SplineSet
261 375 m 2,0,1
 261 324 261 324 282 305 c 128,-1,2
 303 286 303 286 341 286 c 1,3,-1
 341 186 l 1,4,5
 303 186 303 186 282 165.5 c 128,-1,6
 261 145 261 145 261 101 c 2,7,-1
 261 -108 l 2,8,9
 261 -162 261 -162 234.5 -196 c 128,-1,10
 208 -230 208 -230 152 -230 c 2,11,-1
 35 -230 l 1,12,-1
 35 -120 l 1,13,-1
 85 -120 l 2,14,15
 112 -120 112 -120 124.5 -106.5 c 128,-1,16
 137 -93 137 -93 137 -60 c 2,17,-1
 137 135 l 2,18,19
 137 179 137 179 158 201.5 c 128,-1,20
 179 224 179 224 207 229 c 1,21,-1
 207 239 l 1,22,23
 180 243 180 243 158.5 269 c 128,-1,24
 137 295 137 295 137 337 c 2,25,-1
 137 531 l 2,26,27
 137 562 137 562 125 576.5 c 128,-1,28
 113 591 113 591 84 591 c 2,29,-1
 35 591 l 1,30,-1
 35 701 l 1,31,-1
 154 701 l 2,32,33
 207 701 207 701 234 669.5 c 128,-1,34
 261 638 261 638 261 580 c 2,35,-1
 261 375 l 2,0,1
EndSplineSet
Position2: "'case' Case-Sensitive Forms lookup 1 per glyph data 3" dx=0 dy=100 dh=0 dv=0
EndChar

StartChar: asciitilde
Encoding: 126 126 97
Width: 527
Flags: W
LayerCount: 2
Fore
SplineSet
28 378 m 1,0,1
 75 416 75 416 112.5 430.5 c 128,-1,2
 150 445 150 445 182 445 c 0,3,4
 211 445 211 445 236 436.5 c 128,-1,5
 261 428 261 428 284 418.5 c 128,-1,6
 307 409 307 409 329.5 400.5 c 128,-1,7
 352 392 352 392 375 392 c 0,8,9
 393 392 393 392 412 398 c 128,-1,10
 431 404 431 404 452 421 c 1,11,-1
 499 318 l 1,12,13
 463 291 463 291 433 280 c 128,-1,14
 403 269 403 269 377 269 c 0,15,16
 349 269 349 269 325 278 c 128,-1,17
 301 287 301 287 278.5 298 c 128,-1,18
 256 309 256 309 233 318 c 128,-1,19
 210 327 210 327 184 327 c 0,20,21
 160 327 160 327 132.5 316.5 c 128,-1,22
 105 306 105 306 72 278 c 1,23,-1
 28 378 l 1,0,1
EndSplineSet
EndChar

StartChar: exclamdown
Encoding: 161 161 99
Width: 293
Flags: W
LayerCount: 2
Fore
SplineSet
191 -200 m 1,0,-1
 57 -200 l 1,1,-1
 57 129 l 1,2,-1
 83 291 l 1,3,-1
 165 291 l 1,4,-1
 191 129 l 1,5,-1
 191 -200 l 1,0,-1
44 435 m 256,6,7
 44 470 44 470 66 490.5 c 128,-1,8
 88 511 88 511 124 511 c 0,9,10
 162 511 162 511 184 490.5 c 128,-1,11
 206 470 206 470 206 435 c 256,12,13
 206 400 206 400 184 379 c 128,-1,14
 162 358 162 358 124 358 c 0,15,16
 88 358 88 358 66 379 c 128,-1,17
 44 400 44 400 44 435 c 256,6,7
EndSplineSet
Position2: "'case' Case-Sensitive Forms lookup 1 per glyph data 3" dx=0 dy=100 dh=0 dv=0
EndChar

StartChar: cent
Encoding: 162 162 100
Width: 567
Flags: W
LayerCount: 2
Fore
SplineSet
489 31 m 1,0,1
 472 18 472 18 446.5 8.5 c 128,-1,2
 421 -1 421 -1 392 -6 c 1,3,-1
 392 -100 l 1,4,-1
 271 -100 l 1,5,-1
 271 -11 l 1,6,7
 220 -4 220 -4 184.5 17.5 c 128,-1,8
 149 39 149 39 126.5 72.5 c 128,-1,9
 104 106 104 106 94 151 c 128,-1,10
 84 196 84 196 84 250 c 0,11,12
 84 362 84 362 132 428.5 c 128,-1,13
 180 495 180 495 271 510 c 1,14,-1
 271 600 l 1,15,-1
 392 600 l 1,16,-1
 392 510 l 1,17,18
 420 506 420 506 442 499.5 c 128,-1,19
 464 493 464 493 482 484 c 1,20,-1
 452 378 l 1,21,22
 437 385 437 385 420 389 c 128,-1,23
 403 393 403 393 385 395 c 1,24,-1
 385 104 l 1,25,26
 408 107 408 107 426.5 114 c 128,-1,27
 445 121 445 121 459 129 c 1,28,-1
 489 31 l 1,0,1
212 250 m 0,29,30
 212 199 212 199 231 160.5 c 128,-1,31
 250 122 250 122 295 108 c 1,32,-1
 295 394 l 1,33,34
 253 383 253 383 232.5 348.5 c 128,-1,35
 212 314 212 314 212 250 c 0,29,30
EndSplineSet
EndChar

StartChar: sterling
Encoding: 163 163 101
Width: 567
Flags: W
LayerCount: 2
Fore
SplineSet
51 394 m 1,0,-1
 119 394 l 1,1,2
 106 418 106 418 96.5 448 c 128,-1,3
 87 478 87 478 87 520 c 0,4,5
 87 569 87 569 103.5 605.5 c 128,-1,6
 120 642 120 642 149.5 666 c 128,-1,7
 179 690 179 690 220 702 c 128,-1,8
 261 714 261 714 310 714 c 0,9,10
 371 714 371 714 421 702.5 c 128,-1,11
 471 691 471 691 507 674 c 1,12,-1
 465 558 l 1,13,14
 445 569 445 569 410 580.5 c 128,-1,15
 375 592 375 592 326 592 c 0,16,17
 278 592 278 592 251 569.5 c 128,-1,18
 224 547 224 547 224 502 c 0,19,20
 224 468 224 468 236.5 443.5 c 128,-1,21
 249 419 249 419 264 394 c 1,22,-1
 405 394 l 1,23,-1
 405 287 l 1,24,-1
 307 287 l 1,25,26
 310 270 310 270 310 253 c 0,27,28
 310 223 310 223 300 190 c 128,-1,29
 290 157 290 157 269 136 c 1,30,-1
 226 105 l 1,31,-1
 226 100 l 1,32,-1
 293 115 l 1,33,-1
 523 115 l 1,34,-1
 523 0 l 1,35,-1
 51 0 l 1,36,-1
 51 115 l 1,37,-1
 53 115 l 1,38,39
 84 116 84 116 107.5 126 c 128,-1,40
 131 136 131 136 146.5 152.5 c 128,-1,41
 162 169 162 169 170 191 c 128,-1,42
 178 213 178 213 178 237 c 0,43,44
 178 264 178 264 172 287 c 1,45,-1
 51 287 l 1,46,-1
 51 394 l 1,0,-1
EndSplineSet
EndChar

StartChar: currency
Encoding: 164 164 102
Width: 567
Flags: W
LayerCount: 2
Fore
SplineSet
81 622 m 1,0,-1
 159 545 l 1,1,-1
 178 508 l 1,2,3
 198 523 198 523 225.5 530.5 c 128,-1,4
 253 538 253 538 283 538 c 0,5,6
 312 538 312 538 340.5 530.5 c 128,-1,7
 369 523 369 523 388 509 c 1,8,-1
 408 545 l 1,9,-1
 486 622 l 1,10,-1
 563 542 l 1,11,-1
 486 464 l 1,12,-1
 449 448 l 1,13,14
 463 427 463 427 469 400.5 c 128,-1,15
 475 374 475 374 475 345 c 0,16,17
 475 315 475 315 468.5 288.5 c 128,-1,18
 462 262 462 262 449 244 c 1,19,-1
 486 228 l 1,20,-1
 563 150 l 1,21,-1
 486 70 l 1,22,-1
 408 147 l 1,23,-1
 390 184 l 1,24,25
 371 170 371 170 341.5 162 c 128,-1,26
 312 154 312 154 283 154 c 0,27,28
 253 154 253 154 225.5 161.5 c 128,-1,29
 198 169 198 169 178 183 c 1,30,-1
 159 147 l 1,31,-1
 81 70 l 1,32,-1
 5 150 l 1,33,-1
 82 228 l 1,34,-1
 118 245 l 1,35,36
 106 266 106 266 99 290.5 c 128,-1,37
 92 315 92 315 92 345 c 0,38,39
 92 374 92 374 99.5 399 c 128,-1,40
 107 424 107 424 120 447 c 1,41,-1
 82 464 l 1,42,-1
 5 542 l 1,43,-1
 81 622 l 1,0,-1
201 346 m 0,44,45
 201 308 201 308 224 284 c 128,-1,46
 247 260 247 260 284 260 c 256,47,48
 321 260 321 260 343.5 284 c 128,-1,49
 366 308 366 308 366 346 c 0,50,51
 366 382 366 382 343.5 407 c 128,-1,52
 321 432 321 432 284 432 c 256,53,54
 247 432 247 432 224 407 c 128,-1,55
 201 382 201 382 201 346 c 0,44,45
EndSplineSet
EndChar

StartChar: yen
Encoding: 165 165 103
Width: 567
Flags: W
LayerCount: 2
Fore
SplineSet
85 337 m 1,0,-1
 175 337 l 1,1,-1
 -14 700 l 1,2,-1
 149 700 l 1,3,-1
 277 437 l 1,4,-1
 291 363 l 1,5,-1
 296 363 l 1,6,-1
 311 439 l 1,7,-1
 435 700 l 1,8,-1
 582 700 l 1,9,-1
 392 337 l 1,10,-1
 483 337 l 1,11,-1
 483 257 l 1,12,-1
 353 257 l 1,13,-1
 353 199 l 1,14,-1
 483 199 l 1,15,-1
 483 119 l 1,16,-1
 353 119 l 1,17,-1
 353 0 l 1,18,-1
 216 0 l 1,19,-1
 216 119 l 1,20,-1
 85 119 l 1,21,-1
 85 199 l 1,22,-1
 216 199 l 1,23,-1
 216 257 l 1,24,-1
 85 257 l 1,25,-1
 85 337 l 1,0,-1
EndSplineSet
EndChar

StartChar: brokenbar
Encoding: 166 166 104
Width: 227
Flags: W
LayerCount: 2
Fore
SplineSet
60 213 m 1,0,-1
 167 213 l 1,1,-1
 167 -130 l 1,2,-1
 60 -130 l 1,3,-1
 60 213 l 1,0,-1
167 357 m 1,4,-1
 60 357 l 1,5,-1
 60 700 l 1,6,-1
 167 700 l 1,7,-1
 167 357 l 1,4,-1
EndSplineSet
EndChar

StartChar: section
Encoding: 167 167 105
Width: 530
Flags: W
LayerCount: 2
Fore
SplineSet
49 353 m 0,0,1
 49 384 49 384 64 413.5 c 128,-1,2
 79 443 79 443 105 466 c 1,3,-1
 146 480 l 1,4,5
 120 496 120 496 103 520.5 c 128,-1,6
 86 545 86 545 86 586 c 0,7,8
 86 642 86 642 129.5 678 c 128,-1,9
 173 714 173 714 261 714 c 0,10,11
 320 714 320 714 371 704 c 128,-1,12
 422 694 422 694 449 681 c 1,13,-1
 417 576 l 1,14,15
 394 587 394 587 356 595.5 c 128,-1,16
 318 604 318 604 283 604 c 0,17,18
 246 604 246 604 231 593 c 128,-1,19
 216 582 216 582 216 565 c 0,20,21
 216 547 216 547 235.5 537 c 128,-1,22
 255 527 255 527 284.5 519 c 128,-1,23
 314 511 314 511 348.5 501 c 128,-1,24
 383 491 383 491 412.5 473 c 128,-1,25
 442 455 442 455 461.5 425 c 128,-1,26
 481 395 481 395 481 347 c 0,27,28
 481 316 481 316 466.5 287 c 128,-1,29
 452 258 452 258 426 235 c 1,30,-1
 381 221 l 1,31,32
 408 205 408 205 426 180 c 128,-1,33
 444 155 444 155 444 114 c 0,34,35
 444 51 444 51 395 18.5 c 128,-1,36
 346 -14 346 -14 265 -14 c 0,37,38
 197 -14 197 -14 151.5 -0.5 c 128,-1,39
 106 13 106 13 77 29 c 1,40,-1
 111 129 l 1,41,42
 134 118 134 118 167 107 c 128,-1,43
 200 96 200 96 244 96 c 0,44,45
 281 96 281 96 297.5 105.5 c 128,-1,46
 314 115 314 115 314 136 c 0,47,48
 314 155 314 155 294.5 165.5 c 128,-1,49
 275 176 275 176 245.5 184.5 c 128,-1,50
 216 193 216 193 181.5 203 c 128,-1,51
 147 213 147 213 117.5 230.5 c 128,-1,52
 88 248 88 248 68.5 277 c 128,-1,53
 49 306 49 306 49 353 c 0,0,1
351 345 m 0,54,55
 351 363 351 363 342.5 375 c 128,-1,56
 334 387 334 387 318 396.5 c 128,-1,57
 302 406 302 406 279 414 c 128,-1,58
 256 422 256 422 227 431 c 1,59,60
 207 419 207 419 193 399.5 c 128,-1,61
 179 380 179 380 179 355 c 0,62,63
 179 320 179 320 211 303 c 128,-1,64
 243 286 243 286 299 270 c 1,65,66
 321 282 321 282 336 302 c 128,-1,67
 351 322 351 322 351 345 c 0,54,55
EndSplineSet
EndChar

StartChar: dieresis
Encoding: 168 168 106
Width: 479
Flags: W
LayerCount: 2
Fore
SplineSet
60 651 m 0,0,1
 60 683 60 683 79.5 702 c 128,-1,2
 99 721 99 721 131 721 c 256,3,4
 163 721 163 721 181.5 702 c 128,-1,5
 200 683 200 683 200 651 c 0,6,7
 200 621 200 621 181.5 602 c 128,-1,8
 163 583 163 583 131 583 c 256,9,10
 99 583 99 583 79.5 602 c 128,-1,11
 60 621 60 621 60 651 c 0,0,1
279 651 m 0,12,13
 279 683 279 683 297.5 702 c 128,-1,14
 316 721 316 721 348 721 c 256,15,16
 380 721 380 721 399.5 702 c 128,-1,17
 419 683 419 683 419 651 c 0,18,19
 419 621 419 621 399.5 602 c 128,-1,20
 380 583 380 583 348 583 c 256,21,22
 316 583 316 583 297.5 602 c 128,-1,23
 279 621 279 621 279 651 c 0,12,13
EndSplineSet
EndChar

StartChar: copyright
Encoding: 169 169 107
Width: 833
Flags: W
LayerCount: 2
Fore
SplineSet
55 290 m 256,0,1
 55 373 55 373 83 439.5 c 128,-1,2
 111 506 111 506 159.5 553 c 128,-1,3
 208 600 208 600 274 625.5 c 128,-1,4
 340 651 340 651 416 651 c 256,5,6
 492 651 492 651 557.5 625.5 c 128,-1,7
 623 600 623 600 672 553 c 128,-1,8
 721 506 721 506 749 439.5 c 128,-1,9
 777 373 777 373 777 290 c 256,10,11
 777 207 777 207 749 140.5 c 128,-1,12
 721 74 721 74 672 27 c 128,-1,13
 623 -20 623 -20 557.5 -45.5 c 128,-1,14
 492 -71 492 -71 416 -71 c 0,15,16
 333 -71 333 -71 266 -45.5 c 128,-1,17
 199 -20 199 -20 152 27 c 128,-1,18
 105 74 105 74 80 140.5 c 128,-1,19
 55 207 55 207 55 290 c 256,0,1
153 290 m 256,20,21
 153 228 153 228 172.5 178 c 128,-1,22
 192 128 192 128 227.5 93.5 c 128,-1,23
 263 59 263 59 311 40.5 c 128,-1,24
 359 22 359 22 416 22 c 256,25,26
 473 22 473 22 521.5 40.5 c 128,-1,27
 570 59 570 59 605.5 93.5 c 128,-1,28
 641 128 641 128 660.5 178 c 128,-1,29
 680 228 680 228 680 290 c 256,30,31
 680 352 680 352 660.5 402 c 128,-1,32
 641 452 641 452 605.5 486.5 c 128,-1,33
 570 521 570 521 521.5 539.5 c 128,-1,34
 473 558 473 558 416 558 c 256,35,36
 359 558 359 558 311 539.5 c 128,-1,37
 263 521 263 521 227.5 486.5 c 128,-1,38
 192 452 192 452 172.5 402 c 128,-1,39
 153 352 153 352 153 290 c 256,20,21
541 131 m 1,40,41
 519 117 519 117 485.5 108.5 c 128,-1,42
 452 100 452 100 414 100 c 0,43,44
 333 100 333 100 290.5 151 c 128,-1,45
 248 202 248 202 248 290 c 0,46,47
 248 381 248 381 293.5 430.5 c 128,-1,48
 339 480 339 480 414 480 c 0,49,50
 451 480 451 480 479.5 471.5 c 128,-1,51
 508 463 508 463 534 448 c 1,52,-1
 502 361 l 1,53,54
 484 370 484 370 469.5 373 c 128,-1,55
 455 376 455 376 441 376 c 0,56,57
 412 376 412 376 395 357 c 128,-1,58
 378 338 378 338 378 290 c 0,59,60
 378 204 378 204 448 204 c 0,61,62
 467 204 467 204 482 207.5 c 128,-1,63
 497 211 497 211 512 219 c 1,64,-1
 541 131 l 1,40,41
EndSplineSet
EndChar

StartChar: ordfeminine
Encoding: 170 170 108
Width: 420
Flags: W
LayerCount: 2
Fore
SplineSet
61 674 m 1,0,1
 87 688 87 688 134.5 698 c 128,-1,2
 182 708 182 708 241 708 c 0,3,4
 317 708 317 708 345 680.5 c 128,-1,5
 373 653 373 653 373 596 c 0,6,7
 373 536 373 536 370 480 c 128,-1,8
 367 424 367 424 378 380 c 1,9,-1
 277 380 l 1,10,-1
 264 426 l 1,11,-1
 260 426 l 1,12,13
 247 409 247 409 223 392.5 c 128,-1,14
 199 376 199 376 156 376 c 0,15,16
 104 376 104 376 73 403.5 c 128,-1,17
 42 431 42 431 42 475 c 0,18,19
 42 508 42 508 59.5 530 c 128,-1,20
 77 552 77 552 106.5 565 c 128,-1,21
 136 578 136 578 175.5 582.5 c 128,-1,22
 215 587 215 587 259 585 c 1,23,24
 261 611 261 611 252 622.5 c 128,-1,25
 243 634 243 634 208 634 c 0,26,27
 168 634 168 634 135.5 626 c 128,-1,28
 103 618 103 618 83 610 c 1,29,-1
 61 674 l 1,0,1
194 454 m 0,30,31
 226 454 226 454 239 465.5 c 128,-1,32
 252 477 252 477 259 489 c 1,33,-1
 259 524 l 1,34,35
 216 529 216 529 186.5 522 c 128,-1,36
 157 515 157 515 157 488 c 0,37,38
 157 472 157 472 167.5 463 c 128,-1,39
 178 454 178 454 194 454 c 0,30,31
EndSplineSet
EndChar

StartChar: guillemotleft
Encoding: 171 171 109
Width: 488
Flags: W
LayerCount: 2
Fore
SplineSet
223 261 m 1,0,-1
 377 477 l 1,1,-1
 448 421 l 1,2,-1
 367 299 l 1,3,-1
 321 260 l 1,4,-1
 367 225 l 1,5,-1
 454 104 l 1,6,-1
 383 48 l 1,7,-1
 223 261 l 1,0,-1
29 259 m 1,8,-1
 189 489 l 1,9,-1
 268 427 l 1,10,-1
 181 301 l 1,11,-1
 133 260 l 1,12,-1
 181 224 l 1,13,-1
 274 100 l 1,14,-1
 195 38 l 1,15,-1
 29 259 l 1,8,-1
EndSplineSet
Position2: "'case' Case-Sensitive Forms lookup 1 per glyph data 3" dx=0 dy=100 dh=0 dv=0
EndChar

StartChar: logicalnot
Encoding: 172 172 110
Width: 527
Flags: W
LayerCount: 2
Fore
SplineSet
45 412 m 1,0,-1
 487 412 l 1,1,-1
 487 186 l 1,2,-1
 367 186 l 1,3,-1
 367 300 l 1,4,-1
 45 300 l 1,5,-1
 45 412 l 1,0,-1
EndSplineSet
EndChar

StartChar: registered
Encoding: 174 174 112
Width: 690
Flags: W
LayerCount: 2
Fore
SplineSet
62 451 m 0,0,1
 62 518 62 518 84.5 570.5 c 128,-1,2
 107 623 107 623 146 659 c 128,-1,3
 185 695 185 695 236.5 714 c 128,-1,4
 288 733 288 733 345 733 c 0,5,6
 404 733 404 733 455.5 714 c 128,-1,7
 507 695 507 695 545 659 c 128,-1,8
 583 623 583 623 605 570.5 c 128,-1,9
 627 518 627 518 627 451 c 0,10,11
 627 383 627 383 604.5 330.5 c 128,-1,12
 582 278 582 278 543.5 242 c 128,-1,13
 505 206 505 206 453.5 187.5 c 128,-1,14
 402 169 402 169 345 169 c 0,15,16
 286 169 286 169 234.5 187.5 c 128,-1,17
 183 206 183 206 144.5 242 c 128,-1,18
 106 278 106 278 84 330.5 c 128,-1,19
 62 383 62 383 62 451 c 0,0,1
156 451 m 0,20,21
 156 403 156 403 171.5 366.5 c 128,-1,22
 187 330 187 330 213 306 c 128,-1,23
 239 282 239 282 273 270 c 128,-1,24
 307 258 307 258 345 258 c 0,25,26
 385 258 385 258 419.5 269.5 c 128,-1,27
 454 281 454 281 479 305 c 128,-1,28
 504 329 504 329 518.5 365.5 c 128,-1,29
 533 402 533 402 533 451 c 0,30,31
 533 499 533 499 518 535 c 128,-1,32
 503 571 503 571 477.5 595 c 128,-1,33
 452 619 452 619 417.5 631 c 128,-1,34
 383 643 383 643 345 643 c 0,35,36
 303 643 303 643 268 630 c 128,-1,37
 233 617 233 617 208 592 c 128,-1,38
 183 567 183 567 169.5 531.5 c 128,-1,39
 156 496 156 496 156 451 c 0,20,21
242 581 m 1,40,41
 258 586 258 586 287 588.5 c 128,-1,42
 316 591 316 591 342 591 c 0,43,44
 384 591 384 591 414 573.5 c 128,-1,45
 444 556 444 556 444 513 c 0,46,47
 444 481 444 481 423.5 464 c 128,-1,48
 403 447 403 447 373 445 c 1,49,-1
 401 431 l 1,50,-1
 466 322 l 1,51,-1
 405 322 l 1,52,-1
 342 426 l 1,53,-1
 294 441 l 1,54,-1
 294 322 l 1,55,-1
 242 322 l 1,56,-1
 242 581 l 1,40,41
331 546 m 0,57,58
 320 546 320 546 310 545.5 c 128,-1,59
 300 545 300 545 294 542 c 1,60,-1
 294 471 l 1,61,-1
 328 471 l 2,62,63
 357 471 357 471 373 480 c 128,-1,64
 389 489 389 489 389 511 c 0,65,66
 389 546 389 546 331 546 c 0,57,58
EndSplineSet
EndChar

StartChar: macron
Encoding: 175 175 113
Width: 443
Flags: W
LayerCount: 2
Fore
SplineSet
60 658 m 1,0,-1
 383 658 l 1,1,-1
 383 566 l 1,2,-1
 60 566 l 1,3,-1
 60 658 l 1,0,-1
EndSplineSet
EndChar

StartChar: degree
Encoding: 176 176 114
Width: 437
Flags: W
LayerCount: 2
Fore
SplineSet
60 548 m 0,0,1
 60 585 60 585 73 615.5 c 128,-1,2
 86 646 86 646 108.5 668 c 128,-1,3
 131 690 131 690 160.5 702 c 128,-1,4
 190 714 190 714 224 714 c 256,5,6
 258 714 258 714 288.5 703 c 128,-1,7
 319 692 319 692 342 670.5 c 128,-1,8
 365 649 365 649 378 618 c 128,-1,9
 391 587 391 587 391 548 c 256,10,11
 391 509 391 509 378 478.5 c 128,-1,12
 365 448 365 448 342 427 c 128,-1,13
 319 406 319 406 288.5 395 c 128,-1,14
 258 384 258 384 224 384 c 256,15,16
 190 384 190 384 160.5 395 c 128,-1,17
 131 406 131 406 108.5 427 c 128,-1,18
 86 448 86 448 73 478.5 c 128,-1,19
 60 509 60 509 60 548 c 0,0,1
160 548 m 256,20,21
 160 516 160 516 179 497.5 c 128,-1,22
 198 479 198 479 225 479 c 256,23,24
 252 479 252 479 272 497.5 c 128,-1,25
 292 516 292 516 292 548 c 256,26,27
 292 580 292 580 272 599.5 c 128,-1,28
 252 619 252 619 225 619 c 256,29,30
 198 619 198 619 179 599.5 c 128,-1,31
 160 580 160 580 160 548 c 256,20,21
EndSplineSet
EndChar

StartChar: plusminus
Encoding: 177 177 115
Width: 527
Flags: W
LayerCount: 2
Fore
SplineSet
43 518 m 1,0,-1
 205 518 l 1,1,-1
 205 682 l 1,2,-1
 322 682 l 1,3,-1
 322 518 l 1,4,-1
 485 518 l 1,5,-1
 485 406 l 1,6,-1
 322 406 l 1,7,-1
 322 299 l 1,8,-1
 205 299 l 1,9,-1
 205 406 l 1,10,-1
 43 406 l 1,11,-1
 43 518 l 1,0,-1
43 253 m 1,12,-1
 485 253 l 1,13,-1
 485 141 l 1,14,-1
 43 141 l 1,15,-1
 43 253 l 1,12,-1
EndSplineSet
EndChar

StartChar: acute
Encoding: 180 180 118
Width: 305
Flags: W
LayerCount: 2
Fore
SplineSet
113 720 m 1,0,-1
 245 720 l 1,1,-1
 245 690 l 1,2,-1
 134 566 l 1,3,-1
 60 566 l 1,4,-1
 113 720 l 1,0,-1
EndSplineSet
EndChar

StartChar: mu
Encoding: 181 181 119
AltUni2: 0003bc.ffffffff.0
Width: 569
Flags: W
LayerCount: 2
Fore
SplineSet
182 500 m 1,0,-1
 182 227 l 2,1,2
 182 163 182 163 202.5 130.5 c 128,-1,3
 223 98 223 98 274 98 c 0,4,5
 320 98 320 98 348 121 c 128,-1,6
 376 144 376 144 388 185 c 1,7,-1
 388 500 l 1,8,-1
 518 500 l 1,9,-1
 518 163 l 2,10,11
 518 122 518 122 520.5 80.5 c 128,-1,12
 523 39 523 39 533 0 c 1,13,-1
 437 0 l 1,14,-1
 405 74 l 1,15,-1
 401 74 l 1,16,17
 384 39 384 39 351 13.5 c 128,-1,18
 318 -12 318 -12 265 -12 c 0,19,20
 226 -12 226 -12 205 2 c 128,-1,21
 184 16 184 16 166 38 c 1,22,-1
 161 38 l 1,23,-1
 182 -67 l 1,24,-1
 182 -200 l 1,25,-1
 52 -200 l 1,26,-1
 52 500 l 1,27,-1
 182 500 l 1,0,-1
EndSplineSet
EndChar

StartChar: paragraph
Encoding: 182 182 120
Width: 529
Flags: W
LayerCount: 2
Fore
SplineSet
362 700 m 1,0,-1
 469 700 l 1,1,-1
 469 -130 l 1,2,-1
 362 -130 l 1,3,-1
 362 700 l 1,0,-1
178 294 m 1,4,5
 145 294 145 294 117 310.5 c 128,-1,6
 89 327 89 327 68.5 355.5 c 128,-1,7
 48 384 48 384 37 420.5 c 128,-1,8
 26 457 26 457 26 498 c 0,9,10
 26 538 26 538 39 574.5 c 128,-1,11
 52 611 52 611 76 639 c 128,-1,12
 100 667 100 667 134 683.5 c 128,-1,13
 168 700 168 700 210 700 c 2,14,-1
 284 700 l 1,15,-1
 284 -130 l 1,16,-1
 178 -130 l 1,17,-1
 178 294 l 1,4,5
EndSplineSet
EndChar

StartChar: cedilla
Encoding: 184 184 122
Width: 332
Flags: W
LayerCount: 2
Fore
SplineSet
208 0 m 1,0,-1
 184 -43 l 1,1,2
 225 -47 225 -47 248.5 -64.5 c 128,-1,3
 272 -82 272 -82 272 -118 c 0,4,5
 272 -141 272 -141 260.5 -158 c 128,-1,6
 249 -175 249 -175 229 -186.5 c 128,-1,7
 209 -198 209 -198 182 -204 c 128,-1,8
 155 -210 155 -210 124 -210 c 256,9,10
 93 -210 93 -210 60 -204 c 1,11,-1
 69 -156 l 1,12,13
 76 -157 76 -157 82 -157 c 128,-1,14
 88 -157 88 -157 93 -157 c 0,15,16
 131 -157 131 -157 142 -148 c 128,-1,17
 153 -139 153 -139 153 -127 c 0,18,19
 153 -99 153 -99 67 -95 c 1,20,-1
 124 0 l 1,21,-1
 208 0 l 1,0,-1
EndSplineSet
EndChar

StartChar: ordmasculine
Encoding: 186 186 124
Width: 419
Flags: W
LayerCount: 2
Fore
SplineSet
34 542 m 0,0,1
 34 587 34 587 47 619 c 128,-1,2
 60 651 60 651 83 672 c 128,-1,3
 106 693 106 693 138.5 702.5 c 128,-1,4
 171 712 171 712 209 712 c 256,5,6
 247 712 247 712 279 703 c 128,-1,7
 311 694 311 694 334.5 674 c 128,-1,8
 358 654 358 654 371 621.5 c 128,-1,9
 384 589 384 589 385 542 c 1,10,11
 384 495 384 495 371 462.5 c 128,-1,12
 358 430 358 430 334.5 410 c 128,-1,13
 311 390 311 390 279 381 c 128,-1,14
 247 372 247 372 209 372 c 256,15,16
 171 372 171 372 138.5 381 c 128,-1,17
 106 390 106 390 83 410 c 128,-1,18
 60 430 60 430 47 462.5 c 128,-1,19
 34 495 34 495 34 542 c 0,0,1
150 542 m 0,20,21
 150 456 150 456 209 456 c 0,22,23
 240 456 240 456 253.5 474.5 c 128,-1,24
 267 493 267 493 268 542 c 1,25,26
 267 590 267 590 253.5 609 c 128,-1,27
 240 628 240 628 209 628 c 256,28,29
 178 628 178 628 164 609 c 128,-1,30
 150 590 150 590 150 542 c 0,20,21
EndSplineSet
EndChar

StartChar: guillemotright
Encoding: 187 187 125
Width: 488
Flags: W
LayerCount: 2
Fore
SplineSet
264 266 m 1,0,-1
 111 50 l 1,1,-1
 39 106 l 1,2,-1
 121 228 l 1,3,-1
 166 267 l 1,4,-1
 121 302 l 1,5,-1
 34 423 l 1,6,-1
 104 479 l 1,7,-1
 264 266 l 1,0,-1
459 268 m 1,8,-1
 299 38 l 1,9,-1
 220 100 l 1,10,-1
 307 226 l 1,11,-1
 355 267 l 1,12,-1
 307 303 l 1,13,-1
 214 427 l 1,14,-1
 293 489 l 1,15,-1
 459 268 l 1,8,-1
EndSplineSet
Position2: "'case' Case-Sensitive Forms lookup 1 per glyph data 3" dx=0 dy=100 dh=0 dv=0
EndChar

StartChar: questiondown
Encoding: 191 191 129
Width: 454
Flags: W
LayerCount: 2
Fore
SplineSet
317 293 m 1,0,1
 322 241 322 241 312.5 204.5 c 128,-1,2
 303 168 303 168 285 141.5 c 128,-1,3
 267 115 267 115 245 96 c 128,-1,4
 223 77 223 77 203.5 59 c 128,-1,5
 184 41 184 41 170.5 21.5 c 128,-1,6
 157 2 157 2 157 -25 c 0,7,8
 157 -60 157 -60 177 -81.5 c 128,-1,9
 197 -103 197 -103 247 -103 c 0,10,11
 263 -103 263 -103 281 -99.5 c 128,-1,12
 299 -96 299 -96 317 -89.5 c 128,-1,13
 335 -83 335 -83 351.5 -74.5 c 128,-1,14
 368 -66 368 -66 381 -56 c 1,15,-1
 430 -152 l 1,16,17
 392 -178 392 -178 343 -195 c 128,-1,18
 294 -212 294 -212 224 -212 c 0,19,20
 130 -212 130 -212 76.5 -167 c 128,-1,21
 23 -122 23 -122 23 -44 c 0,22,23
 23 7 23 7 36.5 40 c 128,-1,24
 50 73 50 73 70.5 96.5 c 128,-1,25
 91 120 91 120 114.5 138 c 128,-1,26
 138 156 138 156 158.5 176.5 c 128,-1,27
 179 197 179 197 192.5 224 c 128,-1,28
 206 251 206 251 206 293 c 1,29,-1
 317 293 l 1,0,1
178 435 m 256,30,31
 178 470 178 470 200 490.5 c 128,-1,32
 222 511 222 511 258 511 c 0,33,34
 296 511 296 511 318 490.5 c 128,-1,35
 340 470 340 470 340 435 c 256,36,37
 340 400 340 400 318 379 c 128,-1,38
 296 358 296 358 258 358 c 0,39,40
 222 358 222 358 200 379 c 128,-1,41
 178 400 178 400 178 435 c 256,30,31
EndSplineSet
Position2: "'case' Case-Sensitive Forms lookup 1 per glyph data 3" dx=0 dy=100 dh=0 dv=0
EndChar

StartChar: Aring
Encoding: 197 197 135
Width: 605
Flags: W
LayerCount: 2
Fore
SplineSet
175 771 m 0,0,1
 175 789 175 789 181 805.5 c 128,-1,2
 187 822 187 822 201.5 834.5 c 128,-1,3
 216 847 216 847 240.5 854 c 128,-1,4
 265 861 265 861 303 861 c 0,5,6
 373 861 373 861 402 837 c 128,-1,7
 431 813 431 813 431 771 c 0,8,9
 431 742 431 742 415 720.5 c 128,-1,10
 399 699 399 699 358 689 c 1,11,-1
 605 0 l 1,12,-1
 461 0 l 1,13,-1
 405 155 l 1,14,-1
 190 155 l 1,15,-1
 137 0 l 1,16,-1
 0 0 l 1,17,-1
 246 689 l 1,18,19
 207 698 207 698 191 720 c 128,-1,20
 175 742 175 742 175 771 c 0,0,1
225 265 m 1,21,-1
 375 265 l 1,22,-1
 323 421 l 1,23,-1
 302 531 l 1,24,-1
 297 531 l 1,25,-1
 276 420 l 1,26,-1
 225 265 l 1,21,-1
259 771 m 0,27,28
 259 740 259 740 303 740 c 0,29,30
 328 740 328 740 338 748 c 128,-1,31
 348 756 348 756 348 771 c 0,32,33
 348 788 348 788 337.5 796 c 128,-1,34
 327 804 327 804 303 804 c 0,35,36
 259 804 259 804 259 771 c 0,27,28
EndSplineSet
Position2: "'cpsp' Capital Spacing lookup 0 subtable" dx=40 dy=0 dh=80 dv=0
EndChar

StartChar: AE
Encoding: 198 198 136
Width: 862
Flags: W
LayerCount: 2
Fore
SplineSet
394 532 m 1,0,-1
 358 429 l 1,1,-1
 274 281 l 1,2,-1
 400 281 l 1,3,-1
 400 532 l 1,4,-1
 394 532 l 1,0,-1
400 170 m 1,5,-1
 214 170 l 1,6,-1
 115 0 l 1,7,-1
 -29 0 l 1,8,-1
 395 700 l 1,9,-1
 814 700 l 1,10,-1
 814 578 l 1,11,-1
 537 578 l 1,12,-1
 537 415 l 1,13,-1
 789 415 l 1,14,-1
 789 293 l 1,15,-1
 537 293 l 1,16,-1
 537 122 l 1,17,-1
 819 122 l 1,18,-1
 819 0 l 1,19,-1
 400 0 l 1,20,-1
 400 170 l 1,5,-1
EndSplineSet
Position2: "'cpsp' Capital Spacing lookup 0 subtable" dx=40 dy=0 dh=80 dv=0
EndChar

StartChar: Ccedilla
Encoding: 199 199 137
Width: 559
Flags: W
LayerCount: 2
Fore
SplineSet
534 29 m 1,0,1
 508 10 508 10 468.5 0 c 128,-1,2
 429 -10 429 -10 385 -13 c 1,3,-1
 369 -43 l 1,4,5
 410 -47 410 -47 433.5 -64.5 c 128,-1,6
 457 -82 457 -82 457 -118 c 0,7,8
 457 -141 457 -141 445.5 -158 c 128,-1,9
 434 -175 434 -175 414 -186.5 c 128,-1,10
 394 -198 394 -198 367 -204 c 128,-1,11
 340 -210 340 -210 309 -210 c 256,12,13
 278 -210 278 -210 245 -204 c 1,14,-1
 254 -156 l 1,15,16
 261 -157 261 -157 267 -157 c 128,-1,17
 273 -157 273 -157 278 -157 c 0,18,19
 316 -157 316 -157 327 -148 c 128,-1,20
 338 -139 338 -139 338 -127 c 0,21,22
 338 -99 338 -99 252 -95 c 1,23,-1
 302 -11 l 1,24,25
 247 -4 247 -4 199 19.5 c 128,-1,26
 151 43 151 43 115 87 c 128,-1,27
 79 131 79 131 58.5 196 c 128,-1,28
 38 261 38 261 38 350 c 0,29,30
 38 453 38 453 66.5 522.5 c 128,-1,31
 95 592 95 592 140.5 634.5 c 128,-1,32
 186 677 186 677 242 695.5 c 128,-1,33
 298 714 298 714 354 714 c 0,34,35
 414 714 414 714 455.5 706 c 128,-1,36
 497 698 497 698 524 687 c 1,37,-1
 497 571 l 1,38,39
 474 582 474 582 442.5 587 c 128,-1,40
 411 592 411 592 366 592 c 0,41,42
 283 592 283 592 232.5 533 c 128,-1,43
 182 474 182 474 182 350 c 0,44,45
 182 296 182 296 194 251.5 c 128,-1,46
 206 207 206 207 230.5 175.5 c 128,-1,47
 255 144 255 144 291.5 126.5 c 128,-1,48
 328 109 328 109 376 109 c 0,49,50
 421 109 421 109 452 118 c 128,-1,51
 483 127 483 127 506 141 c 1,52,-1
 534 29 l 1,0,1
EndSplineSet
Position2: "'cpsp' Capital Spacing lookup 0 subtable" dx=40 dy=0 dh=80 dv=0
EndChar

StartChar: Eth
Encoding: 208 208 146
Width: 669
Flags: W
LayerCount: 2
Fore
SplineSet
-6 401 m 1,0,-1
 82 401 l 1,1,-1
 82 700 l 1,2,3
 103 703 103 703 129.5 705 c 128,-1,4
 156 707 156 707 184 708 c 128,-1,5
 212 709 212 709 238.5 709.5 c 128,-1,6
 265 710 265 710 286 710 c 0,7,8
 379 710 379 710 445 684 c 128,-1,9
 511 658 511 658 552 611 c 128,-1,10
 593 564 593 564 612 499 c 128,-1,11
 631 434 631 434 631 356 c 0,12,13
 631 285 631 285 613 219 c 128,-1,14
 595 153 595 153 553 102 c 128,-1,15
 511 51 511 51 442.5 20 c 128,-1,16
 374 -11 374 -11 273 -11 c 0,17,18
 257 -11 257 -11 230.5 -10 c 128,-1,19
 204 -9 204 -9 175.5 -7.5 c 128,-1,20
 147 -6 147 -6 121 -4.5 c 128,-1,21
 95 -3 95 -3 82 -1 c 1,22,-1
 82 321 l 1,23,-1
 -6 321 l 1,24,-1
 -6 401 l 1,0,-1
297 588 m 0,25,26
 275 588 275 588 252.5 587 c 128,-1,27
 230 586 230 586 219 584 c 1,28,-1
 219 401 l 1,29,-1
 359 401 l 1,30,-1
 359 321 l 1,31,-1
 219 321 l 1,32,-1
 219 114 l 1,33,34
 223 113 223 113 232.5 112.5 c 128,-1,35
 242 112 242 112 253 111.5 c 128,-1,36
 264 111 264 111 274 111 c 128,-1,37
 284 111 284 111 289 111 c 0,38,39
 347 111 347 111 385.5 131.5 c 128,-1,40
 424 152 424 152 446.5 186 c 128,-1,41
 469 220 469 220 478 264.5 c 128,-1,42
 487 309 487 309 487 356 c 0,43,44
 487 397 487 397 479 438.5 c 128,-1,45
 471 480 471 480 449.5 513 c 128,-1,46
 428 546 428 546 391 567 c 128,-1,47
 354 588 354 588 297 588 c 0,25,26
EndSplineSet
Position2: "'cpsp' Capital Spacing lookup 0 subtable" dx=40 dy=0 dh=80 dv=0
EndChar

StartChar: multiply
Encoding: 215 215 153
Width: 527
Flags: W
LayerCount: 2
Fore
SplineSet
134 547 m 1,0,-1
 265 417 l 1,1,-1
 395 547 l 1,2,-1
 474 466 l 1,3,-1
 344 339 l 1,4,-1
 474 210 l 1,5,-1
 395 128 l 1,6,-1
 265 259 l 1,7,-1
 133 127 l 1,8,-1
 54 208 l 1,9,-1
 185 339 l 1,10,-1
 56 466 l 1,11,-1
 134 547 l 1,0,-1
EndSplineSet
EndChar

StartChar: Oslash
Encoding: 216 216 154
Width: 670
Flags: W
LayerCount: 2
Fore
SplineSet
111 86 m 1,0,1
 74 134 74 134 56 200.5 c 128,-1,2
 38 267 38 267 38 350 c 0,3,4
 38 525 38 525 115 619.5 c 128,-1,5
 192 714 192 714 335 714 c 0,6,7
 380 714 380 714 418 704 c 128,-1,8
 456 694 456 694 487 676 c 1,9,-1
 512 715 l 1,10,-1
 597 665 l 1,11,-1
 562 609 l 1,12,13
 597 561 597 561 614.5 495.5 c 128,-1,14
 632 430 632 430 632 350 c 0,15,16
 632 175 632 175 554.5 80.5 c 128,-1,17
 477 -14 477 -14 335 -14 c 0,18,19
 291 -14 291 -14 255 -5.5 c 128,-1,20
 219 3 219 3 188 19 c 1,21,-1
 167 -14 l 1,22,-1
 81 39 l 1,23,-1
 111 86 l 1,0,1
182 350 m 0,24,25
 182 314 182 314 186 282 c 128,-1,26
 190 250 190 250 198 223 c 1,27,-1
 417 565 l 1,28,29
 382 592 382 592 335 592 c 0,30,31
 262 592 262 592 222 533.5 c 128,-1,32
 182 475 182 475 182 350 c 0,24,25
488 350 m 0,33,34
 488 383 488 383 485 413.5 c 128,-1,35
 482 444 482 444 474 470 c 1,36,-1
 259 130 l 1,37,38
 292 108 292 108 335 108 c 0,39,40
 408 108 408 108 448 165 c 128,-1,41
 488 222 488 222 488 350 c 0,33,34
EndSplineSet
Position2: "'cpsp' Capital Spacing lookup 0 subtable" dx=40 dy=0 dh=80 dv=0
EndChar

StartChar: Thorn
Encoding: 222 222 160
Width: 572
Flags: W
LayerCount: 2
Fore
SplineSet
60 700 m 1,0,-1
 197 700 l 1,1,-1
 197 628 l 1,2,3
 211 629 211 629 225 629.5 c 128,-1,4
 239 630 239 630 253 630 c 0,5,6
 305 630 305 630 357.5 621.5 c 128,-1,7
 410 613 410 613 452 587.5 c 128,-1,8
 494 562 494 562 520.5 516.5 c 128,-1,9
 547 471 547 471 547 398 c 0,10,11
 547 332 547 332 524 286.5 c 128,-1,12
 501 241 501 241 463 212 c 128,-1,13
 425 183 425 183 376.5 170 c 128,-1,14
 328 157 328 157 276 157 c 0,15,16
 271 157 271 157 260 157 c 128,-1,17
 249 157 249 157 237 157.5 c 128,-1,18
 225 158 225 158 213.5 159 c 128,-1,19
 202 160 202 160 197 161 c 1,20,-1
 197 0 l 1,21,-1
 60 0 l 1,22,-1
 60 700 l 1,0,-1
264 512 m 0,23,24
 244 512 244 512 226 510.5 c 128,-1,25
 208 509 208 509 197 507 c 1,26,-1
 197 280 l 1,27,28
 201 279 201 279 209 278 c 128,-1,29
 217 277 217 277 226 276.5 c 128,-1,30
 235 276 235 276 243.5 276 c 128,-1,31
 252 276 252 276 256 276 c 0,32,33
 283 276 283 276 309.5 281 c 128,-1,34
 336 286 336 286 357 299.5 c 128,-1,35
 378 313 378 313 390.5 337 c 128,-1,36
 403 361 403 361 403 400 c 0,37,38
 403 433 403 433 391 454.5 c 128,-1,39
 379 476 379 476 359.5 489 c 128,-1,40
 340 502 340 502 315 507 c 128,-1,41
 290 512 290 512 264 512 c 0,23,24
EndSplineSet
Position2: "'cpsp' Capital Spacing lookup 0 subtable" dx=40 dy=0 dh=80 dv=0
EndChar

StartChar: germandbls
Encoding: 223 223 161
Width: 630
Flags: W
LayerCount: 2
Fore
SplineSet
81 390 m 1,0,-1
 12 390 l 1,1,-1
 12 500 l 1,2,-1
 81 500 l 1,3,4
 81 558 81 558 97 597.5 c 128,-1,5
 113 637 113 637 141.5 661.5 c 128,-1,6
 170 686 170 686 209.5 697 c 128,-1,7
 249 708 249 708 296 708 c 0,8,9
 347 708 347 708 387.5 696.5 c 128,-1,10
 428 685 428 685 456.5 664 c 128,-1,11
 485 643 485 643 500.5 613.5 c 128,-1,12
 516 584 516 584 516 548 c 0,13,14
 516 509 516 509 498.5 485 c 128,-1,15
 481 461 481 461 459.5 444 c 128,-1,16
 438 427 438 427 420.5 412 c 128,-1,17
 403 397 403 397 403 375 c 0,18,19
 403 357 403 357 417.5 346 c 128,-1,20
 432 335 432 335 454.5 325.5 c 128,-1,21
 477 316 477 316 502.5 305.5 c 128,-1,22
 528 295 528 295 550.5 278 c 128,-1,23
 573 261 573 261 587.5 234.5 c 128,-1,24
 602 208 602 208 602 167 c 0,25,26
 602 132 602 132 591 99.5 c 128,-1,27
 580 67 580 67 556.5 41.5 c 128,-1,28
 533 16 533 16 497.5 1 c 128,-1,29
 462 -14 462 -14 414 -14 c 0,30,31
 367 -14 367 -14 327.5 -2.5 c 128,-1,32
 288 9 288 9 260 26 c 1,33,-1
 295 123 l 1,34,35
 318 110 318 110 341 100 c 128,-1,36
 364 90 364 90 403 90 c 0,37,38
 433 90 433 90 452.5 110.5 c 128,-1,39
 472 131 472 131 472 160 c 0,40,41
 472 181 472 181 457.5 194 c 128,-1,42
 443 207 443 207 420.5 217.5 c 128,-1,43
 398 228 398 228 372.5 238 c 128,-1,44
 347 248 347 248 324.5 263.5 c 128,-1,45
 302 279 302 279 287.5 302 c 128,-1,46
 273 325 273 325 273 361 c 0,47,48
 273 404 273 404 290.5 428 c 128,-1,49
 308 452 308 452 329.5 468.5 c 128,-1,50
 351 485 351 485 368.5 499 c 128,-1,51
 386 513 386 513 386 537 c 0,52,53
 386 550 386 550 379 561.5 c 128,-1,54
 372 573 372 573 360 581 c 128,-1,55
 348 589 348 589 333 594 c 128,-1,56
 318 599 318 599 303 599 c 0,57,58
 255 599 255 599 232.5 575.5 c 128,-1,59
 210 552 210 552 210 488 c 2,60,-1
 210 0 l 1,61,-1
 81 0 l 1,62,-1
 81 390 l 1,0,-1
EndSplineSet
EndChar

StartChar: ae
Encoding: 230 230 168
Width: 785
Flags: W
LayerCount: 2
Fore
SplineSet
219 99 m 0,0,1
 258 99 258 99 281 116.5 c 128,-1,2
 304 134 304 134 315 154 c 1,3,-1
 315 219 l 1,4,5
 284 222 284 222 255.5 220 c 128,-1,6
 227 218 227 218 205 211 c 128,-1,7
 183 204 183 204 170 191 c 128,-1,8
 157 178 157 178 157 158 c 0,9,10
 157 130 157 130 173.5 114.5 c 128,-1,11
 190 99 190 99 219 99 c 0,0,1
350 76 m 1,12,13
 323 42 323 42 283.5 17 c 128,-1,14
 244 -8 244 -8 176 -8 c 0,15,16
 141 -8 141 -8 113 2.5 c 128,-1,17
 85 13 85 13 65 32.5 c 128,-1,18
 45 52 45 52 34 78.5 c 128,-1,19
 23 105 23 105 23 138 c 0,20,21
 23 184 23 184 43.5 215.5 c 128,-1,22
 64 247 64 247 102 266.5 c 128,-1,23
 140 286 140 286 193.5 293.5 c 128,-1,24
 247 301 247 301 313 298 c 1,25,26
 320 354 320 354 305.5 378.5 c 128,-1,27
 291 403 291 403 239 403 c 0,28,29
 200 403 200 403 159.5 392.5 c 128,-1,30
 119 382 119 382 88 367 c 1,31,-1
 54 461 l 1,32,33
 92 481 92 481 148 495.5 c 128,-1,34
 204 510 204 510 264 510 c 0,35,36
 316 510 316 510 347 496.5 c 128,-1,37
 378 483 378 483 398 456 c 1,38,39
 423 484 423 484 463 499 c 128,-1,40
 503 514 503 514 550 514 c 0,41,42
 588 514 588 514 624 504 c 128,-1,43
 660 494 660 494 688 471 c 128,-1,44
 716 448 716 448 733 409 c 128,-1,45
 750 370 750 370 750 312 c 0,46,47
 750 291 750 291 747.5 267.5 c 128,-1,48
 745 244 745 244 740 217 c 1,49,-1
 439 217 l 1,50,51
 443 154 443 154 472.5 122 c 128,-1,52
 502 90 502 90 568 90 c 0,53,54
 609 90 609 90 641.5 102.5 c 128,-1,55
 674 115 674 115 691 128 c 1,56,-1
 734 43 l 1,57,58
 704 19 704 19 652.5 2.5 c 128,-1,59
 601 -14 601 -14 543 -14 c 0,60,61
 479 -14 479 -14 430.5 9.5 c 128,-1,62
 382 33 382 33 355 76 c 1,63,-1
 350 76 l 1,12,13
548 410 m 0,64,65
 497 410 497 410 472.5 379.5 c 128,-1,66
 448 349 448 349 443 298 c 1,67,-1
 630 298 l 1,68,69
 633 352 633 352 613 381 c 128,-1,70
 593 410 593 410 548 410 c 0,64,65
EndSplineSet
EndChar

StartChar: ccedilla
Encoding: 231 231 169
Width: 433
Flags: W
LayerCount: 2
Fore
SplineSet
411 31 m 1,0,1
 388 14 388 14 358.5 4 c 128,-1,2
 329 -6 329 -6 296 -11 c 1,3,-1
 278 -43 l 1,4,5
 319 -47 319 -47 342.5 -64.5 c 128,-1,6
 366 -82 366 -82 366 -118 c 0,7,8
 366 -141 366 -141 354.5 -158 c 128,-1,9
 343 -175 343 -175 323 -186.5 c 128,-1,10
 303 -198 303 -198 276 -204 c 128,-1,11
 249 -210 249 -210 218 -210 c 256,12,13
 187 -210 187 -210 154 -204 c 1,14,-1
 163 -156 l 1,15,16
 170 -157 170 -157 176 -157 c 128,-1,17
 182 -157 182 -157 187 -157 c 0,18,19
 225 -157 225 -157 236 -148 c 128,-1,20
 247 -139 247 -139 247 -127 c 0,21,22
 247 -99 247 -99 161 -95 c 1,23,-1
 211 -11 l 1,24,25
 162 -5 162 -5 128 16.5 c 128,-1,26
 94 38 94 38 73 71.5 c 128,-1,27
 52 105 52 105 42.5 150.5 c 128,-1,28
 33 196 33 196 33 250 c 0,29,30
 33 377 33 377 90 445.5 c 128,-1,31
 147 514 147 514 256 514 c 0,32,33
 311 514 311 514 344.5 505 c 128,-1,34
 378 496 378 496 405 482 c 1,35,-1
 374 376 l 1,36,37
 351 387 351 387 328.5 393 c 128,-1,38
 306 399 306 399 277 399 c 0,39,40
 223 399 223 399 195 363.5 c 128,-1,41
 167 328 167 328 167 250 c 0,42,43
 167 218 167 218 174 191 c 128,-1,44
 181 164 181 164 195 144 c 128,-1,45
 209 124 209 124 231.5 112.5 c 128,-1,46
 254 101 254 101 284 101 c 0,47,48
 317 101 317 101 340 109.5 c 128,-1,49
 363 118 363 118 381 130 c 1,50,-1
 411 31 l 1,0,1
EndSplineSet
EndChar

StartChar: eth
Encoding: 240 240 178
Width: 563
Flags: W
LayerCount: 2
Fore
SplineSet
163 243 m 0,0,1
 163 171 163 171 196 134 c 128,-1,2
 229 97 229 97 284 97 c 0,3,4
 336 97 336 97 369 141.5 c 128,-1,5
 402 186 402 186 402 280 c 0,6,7
 402 293 402 293 400.5 314 c 128,-1,8
 399 335 399 335 395 347 c 1,9,10
 379 370 379 370 347 379.5 c 128,-1,11
 315 389 315 389 285 389 c 0,12,13
 225 389 225 389 194 347.5 c 128,-1,14
 163 306 163 306 163 243 c 0,0,1
197 584 m 1,15,-1
 241 614 l 1,16,17
 207 629 207 629 172 635 c 1,18,-1
 224 715 l 1,19,20
 249 708 249 708 281 695 c 0,21,22
 304 686 304 686 328 673 c 1,23,-1
 381 709 l 1,24,-1
 423 654 l 1,25,-1
 390 631 l 1,26,27
 402 622 402 622 413 611 c 0,28,29
 445 581 445 581 470 537.5 c 128,-1,30
 495 494 495 494 510.5 436 c 128,-1,31
 526 378 526 378 526 302 c 0,32,33
 526 221 526 221 507.5 161.5 c 128,-1,34
 489 102 489 102 456 63 c 128,-1,35
 423 24 423 24 377 5 c 128,-1,36
 331 -14 331 -14 276 -14 c 0,37,38
 217 -14 217 -14 172 5 c 128,-1,39
 127 24 127 24 97 58.5 c 128,-1,40
 67 93 67 93 52 140.5 c 128,-1,41
 37 188 37 188 37 245 c 0,42,43
 37 299 37 299 54 345 c 128,-1,44
 71 391 71 391 101.5 425.5 c 128,-1,45
 132 460 132 460 175 479.5 c 128,-1,46
 218 499 218 499 269 499 c 0,47,48
 307 499 307 499 339.5 488.5 c 128,-1,49
 372 478 372 478 392 458 c 1,50,51
 380 494 380 494 358 524 c 0,52,53
 336 553 336 553 308 575 c 1,54,-1
 240 529 l 1,55,-1
 197 584 l 1,15,-1
EndSplineSet
EndChar

StartChar: divide
Encoding: 247 247 185
Width: 527
Flags: W
LayerCount: 2
Fore
SplineSet
43 394 m 1,0,-1
 485 394 l 1,1,-1
 485 282 l 1,2,-1
 43 282 l 1,3,-1
 43 394 l 1,0,-1
184 532 m 256,4,5
 184 567 184 567 206 587.5 c 128,-1,6
 228 608 228 608 264 608 c 0,7,8
 302 608 302 608 324 587.5 c 128,-1,9
 346 567 346 567 346 532 c 256,10,11
 346 497 346 497 324 476 c 128,-1,12
 302 455 302 455 264 455 c 0,13,14
 228 455 228 455 206 476 c 128,-1,15
 184 497 184 497 184 532 c 256,4,5
184 145 m 256,16,17
 184 180 184 180 206 200.5 c 128,-1,18
 228 221 228 221 264 221 c 0,19,20
 302 221 302 221 324 200.5 c 128,-1,21
 346 180 346 180 346 145 c 256,22,23
 346 110 346 110 324 89 c 128,-1,24
 302 68 302 68 264 68 c 0,25,26
 228 68 228 68 206 89 c 128,-1,27
 184 110 184 110 184 145 c 256,16,17
EndSplineSet
EndChar

StartChar: oslash
Encoding: 248 248 186
Width: 536
Flags: W
LayerCount: 2
Fore
SplineSet
33 250 m 0,0,1
 33 377 33 377 94.5 445.5 c 128,-1,2
 156 514 156 514 268 514 c 0,3,4
 300 514 300 514 327 508.5 c 128,-1,5
 354 503 354 503 377 492 c 1,6,-1
 401 526 l 1,7,-1
 481 467 l 1,8,-1
 454 429 l 1,9,10
 479 395 479 395 491 349.5 c 128,-1,11
 503 304 503 304 503 250 c 0,12,13
 503 123 503 123 441.5 54.5 c 128,-1,14
 380 -14 380 -14 268 -14 c 0,15,16
 234 -14 234 -14 205.5 -7.5 c 128,-1,17
 177 -1 177 -1 153 10 c 1,18,-1
 128 -24 l 1,19,-1
 45 36 l 1,20,-1
 76 79 l 1,21,22
 54 112 54 112 43.5 155.5 c 128,-1,23
 33 199 33 199 33 250 c 0,0,1
369 250 m 0,24,25
 369 287 369 287 361 321 c 1,26,-1
 212 114 l 1,27,28
 234 96 234 96 268 96 c 0,29,30
 319 96 319 96 344 133 c 128,-1,31
 369 170 369 170 369 250 c 0,24,25
167 250 m 0,32,33
 167 215 167 215 173 185 c 1,34,-1
 320 389 l 1,35,36
 299 404 299 404 268 404 c 0,37,38
 220 404 220 404 193.5 368 c 128,-1,39
 167 332 167 332 167 250 c 0,32,33
EndSplineSet
EndChar

StartChar: thorn
Encoding: 254 254 192
Width: 540
Flags: W
LayerCount: 2
Fore
SplineSet
57 700 m 1,0,-1
 187 700 l 1,1,-1
 187 457 l 1,2,-1
 191 457 l 1,3,4
 212 483 212 483 241.5 498.5 c 128,-1,5
 271 514 271 514 319 514 c 0,6,7
 413 514 413 514 460 454.5 c 128,-1,8
 507 395 507 395 507 263 c 0,9,10
 507 199 507 199 492 147.5 c 128,-1,11
 477 96 477 96 447.5 60 c 128,-1,12
 418 24 418 24 375.5 5 c 128,-1,13
 333 -14 333 -14 278 -14 c 0,14,15
 247 -14 247 -14 227 -9.5 c 128,-1,16
 207 -5 207 -5 187 5 c 1,17,-1
 187 -200 l 1,18,-1
 57 -200 l 1,19,-1
 57 700 l 1,0,-1
280 404 m 0,20,21
 244 404 244 404 221.5 385 c 128,-1,22
 199 366 199 366 187 328 c 1,23,-1
 187 120 l 1,24,25
 201 109 201 109 217.5 102.5 c 128,-1,26
 234 96 234 96 261 96 c 0,27,28
 317 96 317 96 345 135.5 c 128,-1,29
 373 175 373 175 373 266 c 0,30,31
 373 332 373 332 351 368 c 128,-1,32
 329 404 329 404 280 404 c 0,20,21
EndSplineSet
EndChar

StartChar: Aogonek
Encoding: 260 260 198
Width: 605
Flags: W
LayerCount: 2
Fore
SplineSet
405 155 m 1,0,-1
 190 155 l 1,1,-1
 137 0 l 1,2,-1
 0 0 l 1,3,-1
 252 705 l 1,4,-1
 353 705 l 1,5,-1
 605 0 l 1,6,-1
 584 0 l 1,7,8
 526 -22 526 -22 526 -73 c 0,9,10
 526 -99 526 -99 548 -111.5 c 128,-1,11
 570 -124 570 -124 610 -104 c 1,12,-1
 629 -166 l 1,13,14
 614 -178 614 -178 581.5 -189.5 c 128,-1,15
 549 -201 549 -201 514 -201 c 0,16,17
 458 -201 458 -201 428.5 -176 c 128,-1,18
 399 -151 399 -151 399 -110 c 0,19,20
 399 -72 399 -72 422 -44.5 c 128,-1,21
 445 -17 445 -17 486 0 c 1,22,-1
 461 0 l 1,23,-1
 405 155 l 1,0,-1
225 265 m 1,24,-1
 375 265 l 1,25,-1
 323 421 l 1,26,-1
 302 531 l 1,27,-1
 297 531 l 1,28,-1
 276 420 l 1,29,-1
 225 265 l 1,24,-1
EndSplineSet
Position2: "'cpsp' Capital Spacing lookup 0 subtable" dx=40 dy=0 dh=80 dv=0
EndChar

StartChar: aogonek
Encoding: 261 261 199
Width: 496
Flags: W
LayerCount: 2
Fore
SplineSet
54 466 m 1,0,1
 92 487 92 487 143.5 498.5 c 128,-1,2
 195 510 195 510 264 510 c 0,3,4
 316 510 316 510 351 497.5 c 128,-1,5
 386 485 386 485 406.5 462 c 128,-1,6
 427 439 427 439 435.5 407 c 128,-1,7
 444 375 444 375 444 335 c 0,8,9
 444 291 444 291 441 246.5 c 128,-1,10
 438 202 438 202 437.5 159 c 128,-1,11
 437 116 437 116 440 75.5 c 128,-1,12
 443 35 443 35 455 -1 c 1,13,-1
 432 -1 l 1,14,15
 376 -25 376 -25 376 -73 c 0,16,17
 376 -99 376 -99 398 -111.5 c 128,-1,18
 420 -124 420 -124 460 -104 c 1,19,-1
 479 -166 l 1,20,21
 464 -178 464 -178 431.5 -189.5 c 128,-1,22
 399 -201 399 -201 364 -201 c 0,23,24
 308 -201 308 -201 278.5 -176 c 128,-1,25
 249 -151 249 -151 249 -110 c 0,26,27
 249 -70 249 -70 275.5 -41.5 c 128,-1,28
 302 -13 302 -13 347 4 c 1,29,-1
 328 68 l 1,30,-1
 323 68 l 1,31,32
 303 37 303 37 267.5 14.5 c 128,-1,33
 232 -8 232 -8 176 -8 c 0,34,35
 141 -8 141 -8 113 2.5 c 128,-1,36
 85 13 85 13 65 32.5 c 128,-1,37
 45 52 45 52 34 78.5 c 128,-1,38
 23 105 23 105 23 138 c 0,39,40
 23 184 23 184 43.5 215.5 c 128,-1,41
 64 247 64 247 102 266.5 c 128,-1,42
 140 286 140 286 193.5 293.5 c 128,-1,43
 247 301 247 301 313 298 c 1,44,45
 320 354 320 354 305.5 378.5 c 128,-1,46
 291 403 291 403 239 403 c 0,47,48
 200 403 200 403 159.5 394.5 c 128,-1,49
 119 386 119 386 88 372 c 1,50,-1
 54 466 l 1,0,1
219 99 m 0,51,52
 258 99 258 99 281 116.5 c 128,-1,53
 304 134 304 134 315 154 c 1,54,-1
 315 219 l 1,55,56
 284 222 284 222 255.5 220 c 128,-1,57
 227 218 227 218 205 211 c 128,-1,58
 183 204 183 204 170 191 c 128,-1,59
 157 178 157 178 157 158 c 0,60,61
 157 130 157 130 173.5 114.5 c 128,-1,62
 190 99 190 99 219 99 c 0,51,52
EndSplineSet
EndChar

StartChar: dcroat
Encoding: 273 273 209
Width: 550
Flags: W
LayerCount: 2
Fore
SplineSet
482 641 m 1,0,-1
 558 641 l 1,1,-1
 558 561 l 1,2,-1
 482 561 l 1,3,-1
 482 176 l 2,4,5
 482 134 482 134 483 92 c 128,-1,6
 484 50 484 50 492 -1 c 1,7,-1
 399 -1 l 1,8,-1
 381 64 l 1,9,-1
 377 64 l 1,10,11
 357 29 357 29 319.5 7.5 c 128,-1,12
 282 -14 282 -14 231 -14 c 0,13,14
 137 -14 137 -14 85 48 c 128,-1,15
 33 110 33 110 33 242 c 0,16,17
 33 370 33 370 91 441 c 128,-1,18
 149 512 149 512 261 512 c 0,19,20
 292 512 292 512 312 508.5 c 128,-1,21
 332 505 332 505 352 497 c 1,22,-1
 352 561 l 1,23,-1
 204 561 l 1,24,-1
 204 641 l 1,25,-1
 352 641 l 1,26,-1
 352 700 l 1,27,-1
 482 700 l 1,28,-1
 482 641 l 1,0,-1
261 96 m 0,29,30
 299 96 299 96 321 114.5 c 128,-1,31
 343 133 343 133 352 168 c 1,32,-1
 352 380 l 1,33,34
 338 391 338 391 321 396.5 c 128,-1,35
 304 402 304 402 277 402 c 0,36,37
 222 402 222 402 194.5 365 c 128,-1,38
 167 328 167 328 167 238 c 0,39,40
 167 174 167 174 189.5 135 c 128,-1,41
 212 96 212 96 261 96 c 0,29,30
EndSplineSet
EndChar

StartChar: Eogonek
Encoding: 280 280 214
Width: 522
Flags: W
LayerCount: 2
Fore
SplineSet
60 700 m 1,0,-1
 475 700 l 1,1,-1
 475 578 l 1,2,-1
 197 578 l 1,3,-1
 197 415 l 1,4,-1
 450 415 l 1,5,-1
 450 293 l 1,6,-1
 197 293 l 1,7,-1
 197 122 l 1,8,-1
 480 122 l 1,9,-1
 480 0 l 1,10,-1
 453 0 l 1,11,12
 395 -22 395 -22 395 -73 c 0,13,14
 395 -91 395 -91 406 -103.5 c 128,-1,15
 417 -116 417 -116 437 -116 c 0,16,17
 455 -116 455 -116 479 -104 c 1,18,-1
 498 -166 l 1,19,20
 483 -178 483 -178 450.5 -189.5 c 128,-1,21
 418 -201 418 -201 383 -201 c 0,22,23
 327 -201 327 -201 297.5 -176 c 128,-1,24
 268 -151 268 -151 268 -110 c 0,25,26
 268 -72 268 -72 291 -44.5 c 128,-1,27
 314 -17 314 -17 355 0 c 1,28,-1
 60 0 l 1,29,-1
 60 700 l 1,0,-1
EndSplineSet
Position2: "'cpsp' Capital Spacing lookup 0 subtable" dx=40 dy=0 dh=80 dv=0
EndChar

StartChar: eogonek
Encoding: 281 281 215
Width: 508
Flags: W
LayerCount: 2
Fore
SplineSet
457 43 m 1,0,1
 432 23 432 23 391 8 c 1,2,3
 343 -23 343 -23 343 -68 c 0,4,5
 343 -81 343 -81 349 -91.5 c 128,-1,6
 355 -102 355 -102 365.5 -108 c 128,-1,7
 376 -114 376 -114 391.5 -113.5 c 128,-1,8
 407 -113 407 -113 427 -103 c 1,9,-1
 446 -165 l 1,10,11
 431 -177 431 -177 399 -189 c 128,-1,12
 367 -201 367 -201 332 -201 c 0,13,14
 275 -201 275 -201 245.5 -173.5 c 128,-1,15
 216 -146 216 -146 216 -105 c 0,16,17
 216 -77 216 -77 228 -54 c 128,-1,18
 240 -31 240 -31 262 -14 c 1,19,20
 144 -13 144 -13 89 56 c 0,21,22
 33 127 33 127 33 250 c 0,23,24
 33 382 33 382 96 448 c 128,-1,25
 159 514 159 514 273 514 c 0,26,27
 311 514 311 514 347 504 c 128,-1,28
 383 494 383 494 411 471 c 128,-1,29
 439 448 439 448 456 409 c 128,-1,30
 473 370 473 370 473 312 c 0,31,32
 473 291 473 291 470.5 267 c 128,-1,33
 468 243 468 243 463 217 c 1,34,-1
 163 217 l 1,35,36
 166 154 166 154 195.5 122 c 128,-1,37
 225 90 225 90 291 90 c 0,38,39
 332 90 332 90 364.5 102.5 c 128,-1,40
 397 115 397 115 414 128 c 1,41,-1
 457 43 l 1,0,1
271 410 m 0,42,43
 220 410 220 410 195.5 379.5 c 128,-1,44
 171 349 171 349 166 298 c 1,45,-1
 352 298 l 1,46,47
 356 352 356 352 335.5 381 c 128,-1,48
 315 410 315 410 271 410 c 0,42,43
EndSplineSet
EndChar

StartChar: Hbar
Encoding: 294 294 226
Width: 683
Flags: W
LayerCount: 2
Fore
SplineSet
2 598 m 1,0,-1
 77 598 l 1,1,-1
 77 700 l 1,2,-1
 214 700 l 1,3,-1
 214 598 l 1,4,-1
 470 598 l 1,5,-1
 470 700 l 1,6,-1
 607 700 l 1,7,-1
 607 598 l 1,8,-1
 681 598 l 1,9,-1
 681 516 l 1,10,-1
 607 516 l 1,11,-1
 607 0 l 1,12,-1
 470 0 l 1,13,-1
 470 293 l 1,14,-1
 214 293 l 1,15,-1
 214 0 l 1,16,-1
 77 0 l 1,17,-1
 77 516 l 1,18,-1
 2 516 l 1,19,-1
 2 598 l 1,0,-1
470 415 m 1,20,-1
 470 516 l 1,21,-1
 214 516 l 1,22,-1
 214 415 l 1,23,-1
 470 415 l 1,20,-1
EndSplineSet
Position2: "'cpsp' Capital Spacing lookup 0 subtable" dx=40 dy=0 dh=80 dv=0
EndChar

StartChar: hbar
Encoding: 295 295 227
Width: 556
Flags: W
LayerCount: 2
Fore
SplineSet
-6 641 m 1,0,-1
 68 641 l 1,1,-1
 68 700 l 1,2,-1
 198 700 l 1,3,-1
 198 641 l 1,4,-1
 359 641 l 1,5,-1
 359 561 l 1,6,-1
 198 561 l 1,7,-1
 198 444 l 1,8,-1
 202 444 l 1,9,10
 226 476 226 476 261 495 c 128,-1,11
 296 514 296 514 350 514 c 0,12,13
 388 514 388 514 417 504 c 128,-1,14
 446 494 446 494 465.5 471 c 128,-1,15
 485 448 485 448 494.5 408.5 c 128,-1,16
 504 369 504 369 504 311 c 2,17,-1
 504 0 l 1,18,-1
 374 0 l 1,19,-1
 374 284 l 2,20,21
 374 345 374 345 357 372 c 128,-1,22
 340 399 340 399 295 399 c 0,23,24
 262 399 262 399 234.5 376.5 c 128,-1,25
 207 354 207 354 198 319 c 1,26,-1
 198 0 l 1,27,-1
 68 0 l 1,28,-1
 68 561 l 1,29,-1
 -6 561 l 1,30,-1
 -6 641 l 1,0,-1
EndSplineSet
EndChar

StartChar: Iogonek
Encoding: 302 302 230
Width: 285
Flags: W
LayerCount: 2
Fore
SplineSet
74 700 m 1,0,-1
 211 700 l 1,1,-1
 211 0 l 1,2,-1
 197 0 l 1,3,4
 174 -12 174 -12 161 -30 c 128,-1,5
 148 -48 148 -48 149 -73 c 0,6,7
 149 -91 149 -91 160 -103.5 c 128,-1,8
 171 -116 171 -116 191 -116 c 0,9,10
 208 -116 208 -116 232 -104 c 1,11,-1
 252 -166 l 1,12,13
 237 -178 237 -178 204.5 -190 c 128,-1,14
 172 -202 172 -202 137 -202 c 0,15,16
 80 -202 80 -202 51 -176.5 c 128,-1,17
 22 -151 22 -151 22 -110 c 0,18,19
 22 -72 22 -72 45 -44.5 c 128,-1,20
 68 -17 68 -17 109 0 c 1,21,-1
 74 0 l 1,22,-1
 74 700 l 1,0,-1
EndSplineSet
Position2: "'cpsp' Capital Spacing lookup 0 subtable" dx=40 dy=0 dh=80 dv=0
EndChar

StartChar: iogonek
Encoding: 303 303 231
Width: 270
Flags: W
LayerCount: 2
Fore
SplineSet
70 500 m 1,0,-1
 200 500 l 1,1,-1
 200 0 l 1,2,-1
 187 0 l 1,3,4
 164 -14 164 -14 152 -32 c 128,-1,5
 140 -50 140 -50 140 -73 c 1,6,7
 141 -91 141 -91 152 -103.5 c 128,-1,8
 163 -116 163 -116 183 -116 c 0,9,10
 200 -116 200 -116 224 -104 c 1,11,-1
 243 -166 l 1,12,13
 228 -178 228 -178 196 -190 c 128,-1,14
 164 -202 164 -202 129 -202 c 0,15,16
 72 -202 72 -202 42.5 -176.5 c 128,-1,17
 13 -151 13 -151 13 -110 c 0,18,19
 13 -72 13 -72 36 -44.5 c 128,-1,20
 59 -17 59 -17 100 0 c 1,21,-1
 70 0 l 1,22,-1
 70 500 l 1,0,-1
51 641 m 256,23,24
 51 670 51 670 72.5 690.5 c 128,-1,25
 94 711 94 711 132 711 c 256,26,27
 170 711 170 711 193.5 690.5 c 128,-1,28
 217 670 217 670 217 641 c 256,29,30
 217 612 217 612 193.5 592.5 c 128,-1,31
 170 573 170 573 132 573 c 256,32,33
 94 573 94 573 72.5 592.5 c 128,-1,34
 51 612 51 612 51 641 c 256,23,24
EndSplineSet
EndChar

StartChar: dotlessi
Encoding: 305 305 233
Width: 269
Flags: W
LayerCount: 2
Fore
SplineSet
70 500 m 1,0,-1
 200 500 l 1,1,-1
 200 0 l 1,2,-1
 70 0 l 1,3,-1
 70 500 l 1,0,-1
EndSplineSet
EndChar

StartChar: Lslash
Encoding: 321 321 244
Width: 525
Flags: W
LayerCount: 2
Fore
SplineSet
3 318 m 1,0,-1
 71 363 l 1,1,-1
 71 700 l 1,2,-1
 208 700 l 1,3,-1
 208 455 l 1,4,-1
 308 522 l 1,5,-1
 308 397 l 1,6,-1
 208 331 l 1,7,-1
 208 122 l 1,8,-1
 514 122 l 1,9,-1
 514 0 l 1,10,-1
 71 0 l 1,11,-1
 71 241 l 1,12,-1
 3 197 l 1,13,-1
 3 318 l 1,0,-1
EndSplineSet
Position2: "'cpsp' Capital Spacing lookup 0 subtable" dx=40 dy=0 dh=80 dv=0
EndChar

StartChar: lslash
Encoding: 322 322 245
Width: 319
Flags: W
LayerCount: 2
Fore
SplineSet
6 307 m 1,0,-1
 85 360 l 1,1,-1
 85 700 l 1,2,-1
 215 700 l 1,3,-1
 215 447 l 1,4,-1
 311 511 l 1,5,-1
 311 386 l 1,6,-1
 215 323 l 1,7,-1
 215 168 l 2,8,9
 215 133 215 133 224 117 c 128,-1,10
 233 101 233 101 253 101 c 0,11,12
 265 101 265 101 276.5 103 c 128,-1,13
 288 105 288 105 305 112 c 1,14,-1
 319 10 l 1,15,16
 303 2 303 2 270 -6 c 128,-1,17
 237 -14 237 -14 202 -14 c 0,18,19
 145 -14 145 -14 115 12.5 c 128,-1,20
 85 39 85 39 85 100 c 2,21,-1
 85 238 l 1,22,-1
 6 186 l 1,23,-1
 6 307 l 1,0,-1
EndSplineSet
EndChar

StartChar: OE
Encoding: 338 338 256
Width: 915
Flags: W
LayerCount: 2
Fore
SplineSet
453 567 m 1,0,1
 432 578 432 578 402 585 c 128,-1,2
 372 592 372 592 335 592 c 0,3,4
 262 592 262 592 222 533.5 c 128,-1,5
 182 475 182 475 182 350 c 0,6,7
 182 297 182 297 191 252.5 c 128,-1,8
 200 208 200 208 219.5 176 c 128,-1,9
 239 144 239 144 269 126 c 128,-1,10
 299 108 299 108 342 108 c 0,11,12
 371 108 371 108 397.5 111.5 c 128,-1,13
 424 115 424 115 453 127 c 1,14,-1
 453 567 l 1,0,1
453 0 m 1,15,16
 434 -7 434 -7 400.5 -10.5 c 128,-1,17
 367 -14 367 -14 335 -14 c 0,18,19
 259 -14 259 -14 203 12 c 128,-1,20
 147 38 147 38 110.5 86 c 128,-1,21
 74 134 74 134 56 201 c 128,-1,22
 38 268 38 268 38 350 c 0,23,24
 38 525 38 525 115 619.5 c 128,-1,25
 192 714 192 714 335 714 c 0,26,27
 374 714 374 714 402.5 709.5 c 128,-1,28
 431 705 431 705 453 700 c 1,29,-1
 868 700 l 1,30,-1
 868 578 l 1,31,-1
 590 578 l 1,32,-1
 590 415 l 1,33,-1
 843 415 l 1,34,-1
 843 293 l 1,35,-1
 590 293 l 1,36,-1
 590 122 l 1,37,-1
 873 122 l 1,38,-1
 873 0 l 1,39,-1
 453 0 l 1,15,16
EndSplineSet
Position2: "'cpsp' Capital Spacing lookup 0 subtable" dx=40 dy=0 dh=80 dv=0
EndChar

StartChar: oe
Encoding: 339 339 257
Width: 841
Flags: W
LayerCount: 2
Fore
SplineSet
167 250 m 0,0,1
 167 217 167 217 173 189 c 128,-1,2
 179 161 179 161 191 140 c 128,-1,3
 203 119 203 119 222.5 107.5 c 128,-1,4
 242 96 242 96 269 96 c 0,5,6
 320 96 320 96 345 133 c 128,-1,7
 370 170 370 170 370 250 c 0,8,9
 370 319 370 319 347 361.5 c 128,-1,10
 324 404 324 404 269 404 c 0,11,12
 221 404 221 404 194 368 c 128,-1,13
 167 332 167 332 167 250 c 0,0,1
431 60 m 1,14,15
 406 27 406 27 366.5 6.5 c 128,-1,16
 327 -14 327 -14 269 -14 c 0,17,18
 209 -14 209 -14 165 5 c 128,-1,19
 121 24 121 24 91.5 58.5 c 128,-1,20
 62 93 62 93 47.5 142 c 128,-1,21
 33 191 33 191 33 250 c 0,22,23
 33 377 33 377 95 445.5 c 128,-1,24
 157 514 157 514 269 514 c 0,25,26
 335 514 335 514 375 491.5 c 128,-1,27
 415 469 415 469 438 442 c 1,28,29
 461 471 461 471 501.5 492.5 c 128,-1,30
 542 514 542 514 606 514 c 0,31,32
 644 514 644 514 680 504 c 128,-1,33
 716 494 716 494 744 471 c 128,-1,34
 772 448 772 448 789 409 c 128,-1,35
 806 370 806 370 806 312 c 0,36,37
 806 291 806 291 803.5 267 c 128,-1,38
 801 243 801 243 796 217 c 1,39,-1
 495 217 l 1,40,41
 498 154 498 154 528 122 c 128,-1,42
 558 90 558 90 624 90 c 0,43,44
 665 90 665 90 697.5 102.5 c 128,-1,45
 730 115 730 115 747 128 c 1,46,-1
 790 43 l 1,47,48
 760 19 760 19 708.5 2.5 c 128,-1,49
 657 -14 657 -14 599 -14 c 0,50,51
 488 -14 488 -14 431 60 c 1,14,15
604 410 m 0,52,53
 553 410 553 410 528.5 379.5 c 128,-1,54
 504 349 504 349 499 298 c 1,55,-1
 685 298 l 1,56,57
 685 302 685 302 685.5 306 c 128,-1,58
 686 310 686 310 686 314 c 0,59,60
 686 360 686 360 665.5 385 c 128,-1,61
 645 410 645 410 604 410 c 0,52,53
EndSplineSet
EndChar

StartChar: Scedilla
Encoding: 350 350 268
Width: 530
Flags: W
LayerCount: 2
Fore
SplineSet
362 188 m 0,0,1
 362 220 362 220 338.5 240 c 128,-1,2
 315 260 315 260 279.5 276.5 c 128,-1,3
 244 293 244 293 202.5 310.5 c 128,-1,4
 161 328 161 328 125.5 353.5 c 128,-1,5
 90 379 90 379 66.5 417 c 128,-1,6
 43 455 43 455 43 514 c 0,7,8
 43 565 43 565 60 602.5 c 128,-1,9
 77 640 77 640 108.5 665 c 128,-1,10
 140 690 140 690 183 702 c 128,-1,11
 226 714 226 714 279 714 c 0,12,13
 340 714 340 714 394 703.5 c 128,-1,14
 448 693 448 693 483 673 c 1,15,-1
 440 558 l 1,16,17
 418 572 418 572 374 583.5 c 128,-1,18
 330 595 330 595 279 595 c 0,19,20
 231 595 231 595 205.5 576 c 128,-1,21
 180 557 180 557 180 525 c 0,22,23
 180 495 180 495 203.5 475 c 128,-1,24
 227 455 227 455 262.5 438 c 128,-1,25
 298 421 298 421 339.5 403 c 128,-1,26
 381 385 381 385 416.5 359.5 c 128,-1,27
 452 334 452 334 475.5 296.5 c 128,-1,28
 499 259 499 259 499 203 c 0,29,30
 499 108 499 108 447.5 56 c 128,-1,31
 396 4 396 4 308 -9 c 1,32,-1
 290 -43 l 1,33,34
 331 -47 331 -47 354.5 -64.5 c 128,-1,35
 378 -82 378 -82 378 -118 c 0,36,37
 378 -141 378 -141 366.5 -158 c 128,-1,38
 355 -175 355 -175 335 -186.5 c 128,-1,39
 315 -198 315 -198 288 -204 c 128,-1,40
 261 -210 261 -210 230 -210 c 256,41,42
 199 -210 199 -210 166 -204 c 1,43,-1
 175 -156 l 1,44,45
 182 -157 182 -157 188 -157 c 128,-1,46
 194 -157 194 -157 199 -157 c 0,47,48
 237 -157 237 -157 248 -148 c 128,-1,49
 259 -139 259 -139 259 -127 c 0,50,51
 259 -99 259 -99 173 -95 c 1,52,-1
 221 -14 l 1,53,54
 153 -12 153 -12 102.5 1 c 128,-1,55
 52 14 52 14 27 28 c 1,56,-1
 71 145 l 1,57,58
 82 139 82 139 99.5 132 c 128,-1,59
 117 125 117 125 139 119 c 128,-1,60
 161 113 161 113 185.5 109 c 128,-1,61
 210 105 210 105 236 105 c 0,62,63
 297 105 297 105 329.5 125.5 c 128,-1,64
 362 146 362 146 362 188 c 0,0,1
EndSplineSet
Substitution2: "'locl' Localized Forms in Latin lookup 4 subtable" Scommaaccent
Substitution2: "'locl' Localized Forms in Latin lookup 3 subtable" Scommaaccent
Substitution2: "'aalt' Access All Alternates lookup 0 subtable" Scommaaccent
Position2: "'cpsp' Capital Spacing lookup 0 subtable" dx=40 dy=0 dh=80 dv=0
EndChar

StartChar: scedilla
Encoding: 351 351 269
Width: 422
Flags: W
LayerCount: 2
Fore
SplineSet
264 138 m 0,0,1
 264 158 264 158 247 170 c 128,-1,2
 230 182 230 182 205 192 c 128,-1,3
 180 202 180 202 150 212.5 c 128,-1,4
 120 223 120 223 95 241.5 c 128,-1,5
 70 260 70 260 53 288.5 c 128,-1,6
 36 317 36 317 36 362 c 0,7,8
 36 436 36 436 80 475 c 128,-1,9
 124 514 124 514 207 514 c 0,10,11
 264 514 264 514 310 502 c 128,-1,12
 356 490 356 490 382 475 c 1,13,-1
 353 381 l 1,14,15
 330 390 330 390 295 400 c 128,-1,16
 260 410 260 410 224 410 c 0,17,18
 166 410 166 410 166 365 c 0,19,20
 166 347 166 347 183 336 c 128,-1,21
 200 325 200 325 225 315.5 c 128,-1,22
 250 306 250 306 280 295 c 128,-1,23
 310 284 310 284 335 266.5 c 128,-1,24
 360 249 360 249 377 221 c 128,-1,25
 394 193 394 193 394 149 c 0,26,27
 394 85 394 85 359 43.5 c 128,-1,28
 324 2 324 2 255 -9 c 1,29,-1
 237 -43 l 1,30,31
 278 -47 278 -47 301.5 -64.5 c 128,-1,32
 325 -82 325 -82 325 -118 c 0,33,34
 325 -141 325 -141 313.5 -158 c 128,-1,35
 302 -175 302 -175 282 -186.5 c 128,-1,36
 262 -198 262 -198 235 -204 c 128,-1,37
 208 -210 208 -210 177 -210 c 256,38,39
 146 -210 146 -210 113 -204 c 1,40,-1
 122 -156 l 1,41,42
 129 -157 129 -157 135 -157 c 128,-1,43
 141 -157 141 -157 146 -157 c 0,44,45
 184 -157 184 -157 195 -148 c 128,-1,46
 206 -139 206 -139 206 -127 c 0,47,48
 206 -99 206 -99 120 -95 c 1,49,-1
 169 -12 l 1,50,51
 125 -8 125 -8 87 3.5 c 128,-1,52
 49 15 49 15 25 31 c 1,53,-1
 61 128 l 1,54,55
 84 115 84 115 122 102.5 c 128,-1,56
 160 90 160 90 200 90 c 0,57,58
 229 90 229 90 246.5 101 c 128,-1,59
 264 112 264 112 264 138 c 0,0,1
EndSplineSet
Substitution2: "'locl' Localized Forms in Latin lookup 4 subtable" scommaaccent
Substitution2: "'locl' Localized Forms in Latin lookup 3 subtable" scommaaccent
Substitution2: "'aalt' Access All Alternates lookup 0 subtable" scommaaccent
EndChar

StartChar: Tcedilla
Encoding: 354 354 272
Width: 568
Flags: W
LayerCount: 2
Fore
SplineSet
216 0 m 1,0,-1
 216 578 l 1,1,-1
 11 578 l 1,2,-1
 11 700 l 1,3,-1
 557 700 l 1,4,-1
 557 578 l 1,5,-1
 353 578 l 1,6,-1
 353 0 l 1,7,-1
 326 0 l 1,8,-1
 302 -43 l 1,9,10
 343 -47 343 -47 366.5 -64.5 c 128,-1,11
 390 -82 390 -82 390 -118 c 0,12,13
 390 -141 390 -141 378.5 -158 c 128,-1,14
 367 -175 367 -175 347 -186.5 c 128,-1,15
 327 -198 327 -198 300 -204 c 128,-1,16
 273 -210 273 -210 242 -210 c 256,17,18
 211 -210 211 -210 178 -204 c 1,19,-1
 187 -156 l 1,20,21
 194 -157 194 -157 200 -157 c 128,-1,22
 206 -157 206 -157 211 -157 c 0,23,24
 249 -157 249 -157 260 -148 c 128,-1,25
 271 -139 271 -139 271 -127 c 0,26,27
 271 -99 271 -99 185 -95 c 1,28,-1
 242 0 l 1,29,-1
 216 0 l 1,0,-1
EndSplineSet
Substitution2: "'locl' Localized Forms in Latin lookup 4 subtable" Tcommaaccent
Substitution2: "'locl' Localized Forms in Latin lookup 3 subtable" Tcommaaccent
Substitution2: "'aalt' Access All Alternates lookup 0 subtable" Tcommaaccent
EndChar

StartChar: tcedilla
Encoding: 355 355 273
Width: 349
Flags: W
LayerCount: 2
Fore
SplineSet
5 500 m 1,0,-1
 74 500 l 1,1,-1
 74 594 l 1,2,-1
 204 631 l 1,3,-1
 204 500 l 1,4,-1
 326 500 l 1,5,-1
 326 390 l 1,6,-1
 204 390 l 1,7,-1
 204 198 l 2,8,9
 204 146 204 146 214.5 123 c 128,-1,10
 225 100 225 100 254 100 c 0,11,12
 274 100 274 100 288.5 104 c 128,-1,13
 303 108 303 108 321 116 c 1,14,-1
 344 17 l 1,15,16
 325 8 325 8 303 2 c 128,-1,17
 281 -4 281 -4 255 -9 c 1,18,-1
 237 -43 l 1,19,20
 278 -47 278 -47 301.5 -64.5 c 128,-1,21
 325 -82 325 -82 325 -118 c 0,22,23
 325 -141 325 -141 313.5 -158 c 128,-1,24
 302 -175 302 -175 282 -186.5 c 128,-1,25
 262 -198 262 -198 235 -204 c 128,-1,26
 208 -210 208 -210 177 -210 c 256,27,28
 146 -210 146 -210 113 -204 c 1,29,-1
 122 -156 l 1,30,31
 129 -157 129 -157 135 -157 c 128,-1,32
 141 -157 141 -157 146 -157 c 0,33,34
 184 -157 184 -157 195 -148 c 128,-1,35
 206 -139 206 -139 206 -127 c 0,36,37
 206 -99 206 -99 120 -95 c 1,38,-1
 170 -11 l 1,39,40
 121 -2 121 -2 97.5 33.5 c 128,-1,41
 74 69 74 69 74 138 c 2,42,-1
 74 390 l 1,43,-1
 5 390 l 1,44,-1
 5 500 l 1,0,-1
EndSplineSet
Substitution2: "'locl' Localized Forms in Latin lookup 4 subtable" tcommaaccent
Substitution2: "'locl' Localized Forms in Latin lookup 3 subtable" tcommaaccent
Substitution2: "'aalt' Access All Alternates lookup 0 subtable" tcommaaccent
EndChar

StartChar: Uogonek
Encoding: 370 370 284
Width: 627
Flags: W
LayerCount: 2
Fore
SplineSet
440 700 m 1,0,-1
 570 700 l 1,1,-1
 570 248 l 2,2,3
 570 180 570 180 552 131 c 128,-1,4
 534 82 534 82 502 50 c 0,5,6
 472 20 472 20 429 5 c 1,7,8
 384 -26 384 -26 384 -68 c 0,9,10
 384 -81 384 -81 389.5 -91.5 c 128,-1,11
 395 -102 395 -102 406 -108 c 128,-1,12
 417 -114 417 -114 432.5 -113.5 c 128,-1,13
 448 -113 448 -113 468 -103 c 1,14,-1
 487 -165 l 1,15,16
 472 -177 472 -177 439.5 -189 c 128,-1,17
 407 -201 407 -201 372 -201 c 0,18,19
 316 -201 316 -201 286.5 -173.5 c 128,-1,20
 257 -146 257 -146 257 -105 c 0,21,22
 257 -50 257 -50 310 -12 c 1,23,24
 57 -6 57 -6 57 231 c 2,25,-1
 57 700 l 1,26,-1
 194 700 l 1,27,-1
 194 258 l 2,28,29
 194 217 194 217 201.5 188.5 c 128,-1,30
 209 160 209 160 225 142.5 c 128,-1,31
 241 125 241 125 265 117.5 c 128,-1,32
 289 110 289 110 321 110 c 0,33,34
 384 110 384 110 412 145 c 128,-1,35
 440 180 440 180 440 258 c 2,36,-1
 440 700 l 1,0,-1
EndSplineSet
Position2: "'cpsp' Capital Spacing lookup 0 subtable" dx=40 dy=0 dh=80 dv=0
EndChar

StartChar: uogonek
Encoding: 371 371 285
Width: 538
Flags: W
LayerCount: 2
Fore
SplineSet
182 500 m 1,0,-1
 182 216 l 2,1,2
 182 155 182 155 196.5 128 c 128,-1,3
 211 101 211 101 253 101 c 0,4,5
 290 101 290 101 314.5 123 c 128,-1,6
 339 145 339 145 351 177 c 1,7,-1
 351 500 l 1,8,-1
 481 500 l 1,9,-1
 481 152 l 2,10,11
 481 111 481 111 485 71.5 c 128,-1,12
 489 32 489 32 497 0 c 1,13,-1
 479 0 l 1,14,15
 450 -10 450 -10 436.5 -28.5 c 128,-1,16
 423 -47 423 -47 423 -72 c 0,17,18
 424 -98 424 -98 445.5 -110.5 c 128,-1,19
 467 -123 467 -123 507 -103 c 1,20,-1
 526 -165 l 1,21,22
 511 -177 511 -177 479 -189 c 128,-1,23
 447 -201 447 -201 412 -201 c 0,24,25
 355 -201 355 -201 325.5 -175.5 c 128,-1,26
 296 -150 296 -150 296 -109 c 256,27,28
 296 -68 296 -68 323 -39 c 128,-1,29
 350 -10 350 -10 397 6 c 1,30,-1
 376 74 l 1,31,-1
 372 74 l 1,32,33
 349 36 349 36 308 11 c 128,-1,34
 267 -14 267 -14 211 -14 c 0,35,36
 173 -14 173 -14 143 -4 c 128,-1,37
 113 6 113 6 93 29 c 128,-1,38
 73 52 73 52 62.5 91 c 128,-1,39
 52 130 52 130 52 189 c 2,40,-1
 52 500 l 1,41,-1
 182 500 l 1,0,-1
EndSplineSet
EndChar

StartChar: longs
Encoding: 383 383 293
Width: 249
Flags: W
LayerCount: 2
Fore
SplineSet
12 500 m 1,0,-1
 81 500 l 1,1,-1
 81 528 l 2,2,3
 81 623 81 623 121 665.5 c 128,-1,4
 161 708 161 708 237 708 c 0,5,6
 282 708 282 708 313 701.5 c 128,-1,7
 344 695 344 695 371 684 c 1,8,-1
 345 583 l 1,9,10
 322 591 322 591 305 594.5 c 128,-1,11
 288 598 288 598 268 598 c 256,12,13
 248 598 248 598 236.5 592 c 128,-1,14
 225 586 225 586 219.5 573.5 c 128,-1,15
 214 561 214 561 212.5 542.5 c 128,-1,16
 211 524 211 524 211 500 c 2,17,-1
 211 0 l 1,18,-1
 81 0 l 1,19,-1
 81 390 l 1,20,-1
 12 390 l 1,21,-1
 12 500 l 1,0,-1
EndSplineSet
EndChar

StartChar: florin
Encoding: 402 402 294
Width: 567
Flags: W
LayerCount: 2
Fore
SplineSet
342 390 m 1,0,-1
 271 -34 l 2,1,2
 265 -71 265 -71 253.5 -102.5 c 128,-1,3
 242 -134 242 -134 221.5 -157.5 c 128,-1,4
 201 -181 201 -181 170.5 -194.5 c 128,-1,5
 140 -208 140 -208 96 -208 c 0,6,7
 82 -208 82 -208 61.5 -206 c 128,-1,8
 41 -204 41 -204 20 -201 c 128,-1,9
 -1 -198 -1 -198 -20.5 -193.5 c 128,-1,10
 -40 -189 -40 -189 -52 -184 c 1,11,-1
 -31 -79 l 1,12,13
 -8 -89 -8 -89 13 -93.5 c 128,-1,14
 34 -98 34 -98 62 -98 c 0,15,16
 98 -98 98 -98 118 -73.5 c 128,-1,17
 138 -49 138 -49 147 8 c 2,18,-1
 208 390 l 1,19,-1
 130 390 l 1,20,-1
 130 500 l 1,21,-1
 226 500 l 1,22,-1
 237 567 l 2,23,24
 243 604 243 604 253.5 631.5 c 128,-1,25
 264 659 264 659 282.5 677.5 c 128,-1,26
 301 696 301 696 330 705 c 128,-1,27
 359 714 359 714 402 714 c 0,28,29
 418 714 418 714 438.5 711.5 c 128,-1,30
 459 709 459 709 480 704.5 c 128,-1,31
 501 700 501 700 521 694.5 c 128,-1,32
 541 689 541 689 556 682 c 1,33,-1
 524 585 l 1,34,35
 475 604 475 604 429 604 c 0,36,37
 397 604 397 604 384.5 588.5 c 128,-1,38
 372 573 372 573 366 533 c 2,39,-1
 361 500 l 1,40,-1
 480 500 l 1,41,-1
 480 390 l 1,42,-1
 342 390 l 1,0,-1
EndSplineSet
EndChar

StartChar: uni0237
Encoding: 567 567 301
Width: 268
Flags: W
LayerCount: 2
Fore
SplineSet
69 500 m 1,0,-1
 199 500 l 1,1,-1
 199 -21 l 2,2,3
 199 -112 199 -112 163 -160 c 128,-1,4
 127 -208 127 -208 48 -208 c 0,5,6
 18 -208 18 -208 -16 -201 c 1,7,-1
 -16 -92 l 1,8,9
 -12 -92 -12 -92 -9 -92.5 c 128,-1,10
 -6 -93 -6 -93 -3 -93 c 0,11,12
 42 -93 42 -93 55.5 -64 c 128,-1,13
 69 -35 69 -35 69 16 c 2,14,-1
 69 500 l 1,0,-1
EndSplineSet
EndChar

StartChar: circumflex
Encoding: 710 710 303
Width: 440
Flags: W
LayerCount: 2
Fore
SplineSet
183 732 m 1,0,-1
 269 732 l 1,1,-1
 380 550 l 1,2,-1
 277 550 l 1,3,-1
 238 616 l 1,4,-1
 221 665 l 1,5,-1
 204 616 l 1,6,-1
 159 550 l 1,7,-1
 60 550 l 1,8,-1
 183 732 l 1,0,-1
EndSplineSet
EndChar

StartChar: caron
Encoding: 711 711 304
Width: 449
Flags: W
LayerCount: 2
Fore
SplineSet
266 550 m 1,0,-1
 175 550 l 1,1,-1
 60 732 l 1,2,-1
 170 732 l 1,3,-1
 209 666 l 1,4,-1
 225 617 l 1,5,-1
 243 666 l 1,6,-1
 288 732 l 1,7,-1
 389 732 l 1,8,-1
 266 550 l 1,0,-1
EndSplineSet
Substitution2: "'aalt' Access All Alternates lookup 0 subtable" caron.l
EndChar

StartChar: breve
Encoding: 728 728 305
Width: 461
Flags: W
LayerCount: 2
Fore
SplineSet
123 720 m 1,0,1
 140 690 140 690 170.5 675.5 c 128,-1,2
 201 661 201 661 235 661 c 256,3,4
 269 661 269 661 297.5 676 c 128,-1,5
 326 691 326 691 341 720 c 1,6,-1
 401 693 l 1,7,8
 398 669 398 669 384.5 645.5 c 128,-1,9
 371 622 371 622 349 604 c 128,-1,10
 327 586 327 586 297.5 575 c 128,-1,11
 268 564 268 564 234 564 c 0,12,13
 168 564 168 564 121 597.5 c 128,-1,14
 74 631 74 631 60 688 c 1,15,-1
 123 720 l 1,0,1
EndSplineSet
EndChar

StartChar: dotaccent
Encoding: 729 729 306
Width: 286
Flags: W
LayerCount: 2
Fore
SplineSet
60 641 m 256,0,1
 60 670 60 670 81.5 690.5 c 128,-1,2
 103 711 103 711 141 711 c 256,3,4
 179 711 179 711 202.5 690.5 c 128,-1,5
 226 670 226 670 226 641 c 256,6,7
 226 612 226 612 202.5 592.5 c 128,-1,8
 179 573 179 573 141 573 c 256,9,10
 103 573 103 573 81.5 592.5 c 128,-1,11
 60 612 60 612 60 641 c 256,0,1
EndSplineSet
EndChar

StartChar: ring
Encoding: 730 730 307
Width: 342
Flags: W
LayerCount: 2
Fore
SplineSet
60 647 m 0,0,1
 60 689 60 689 88.5 716 c 128,-1,2
 117 743 117 743 171 743 c 0,3,4
 222 743 222 743 252 718.5 c 128,-1,5
 282 694 282 694 282 647 c 0,6,7
 282 608 282 608 252.5 580.5 c 128,-1,8
 223 553 223 553 171 553 c 0,9,10
 118 553 118 553 89 578.5 c 128,-1,11
 60 604 60 604 60 647 c 0,0,1
132 647 m 0,12,13
 132 631 132 631 144 622.5 c 128,-1,14
 156 614 156 614 171 614 c 0,15,16
 188 614 188 614 199 622 c 128,-1,17
 210 630 210 630 210 647 c 256,18,19
 210 664 210 664 198.5 672.5 c 128,-1,20
 187 681 187 681 171 681 c 0,21,22
 156 681 156 681 144 673 c 128,-1,23
 132 665 132 665 132 647 c 0,12,13
EndSplineSet
EndChar

StartChar: ogonek
Encoding: 731 731 308
Width: 350
Flags: W
LayerCount: 2
Fore
SplineSet
263 10 m 1,0,1
 187 -12 187 -12 187 -69 c 0,2,3
 187 -87 187 -87 198 -99.5 c 128,-1,4
 209 -112 209 -112 229 -112 c 0,5,6
 247 -112 247 -112 271 -100 c 1,7,-1
 290 -162 l 1,8,9
 275 -174 275 -174 242.5 -185.5 c 128,-1,10
 210 -197 210 -197 175 -197 c 0,11,12
 119 -197 119 -197 89.5 -172 c 128,-1,13
 60 -147 60 -147 60 -106 c 256,14,15
 60 -65 60 -65 87.5 -36 c 128,-1,16
 115 -7 115 -7 163 10 c 1,17,-1
 263 10 l 1,0,1
EndSplineSet
EndChar

StartChar: tilde
Encoding: 732 732 309
Width: 452
Flags: W
LayerCount: 2
Fore
SplineSet
60 658 m 1,0,1
 91 695 91 695 117.5 709 c 128,-1,2
 144 723 144 723 168 723 c 0,3,4
 188 723 188 723 206.5 716 c 128,-1,5
 225 709 225 709 243 701 c 128,-1,6
 261 693 261 693 278 686 c 128,-1,7
 295 679 295 679 313 679 c 0,8,9
 327 679 327 679 341.5 685 c 128,-1,10
 356 691 356 691 372 706 c 1,11,-1
 392 636 l 1,12,13
 363 604 363 604 338.5 592 c 128,-1,14
 314 580 314 580 291 580 c 0,15,16
 271 580 271 580 252 586.5 c 128,-1,17
 233 593 233 593 215 601 c 128,-1,18
 197 609 197 609 179 615.5 c 128,-1,19
 161 622 161 622 143 622 c 0,20,21
 128 622 128 622 112 615.5 c 128,-1,22
 96 609 96 609 79 593 c 1,23,-1
 60 658 l 1,0,1
EndSplineSet
EndChar

StartChar: hungarumlaut
Encoding: 733 733 310
Width: 459
Flags: W
LayerCount: 2
Fore
SplineSet
95 700 m 1,0,-1
 214 700 l 1,1,-1
 214 684 l 1,2,-1
 138 571 l 1,3,-1
 60 571 l 1,4,-1
 95 700 l 1,0,-1
273 700 m 1,5,-1
 399 700 l 1,6,-1
 399 684 l 1,7,-1
 281 571 l 1,8,-1
 200 571 l 1,9,-1
 273 700 l 1,5,-1
EndSplineSet
EndChar

StartChar: uni0394
Encoding: 916 916 312
AltUni2: 002206.ffffffff.0
Width: 585
Flags: W
LayerCount: 2
Fore
SplineSet
12 0 m 1,0,-1
 12 71 l 1,1,-1
 253 705 l 1,2,-1
 332 705 l 1,3,-1
 575 71 l 1,4,-1
 575 0 l 1,5,-1
 12 0 l 1,0,-1
158 116 m 1,6,-1
 428 116 l 1,7,-1
 316 414 l 1,8,-1
 293 514 l 1,9,-1
 288 514 l 1,10,-1
 264 413 l 1,11,-1
 158 116 l 1,6,-1
EndSplineSet
EndChar

StartChar: uni03A9
Encoding: 937 937 313
AltUni2: 002126.ffffffff.0
Width: 778
Flags: W
LayerCount: 2
Fore
SplineSet
58 110 m 1,0,-1
 163 110 l 1,1,-1
 248 97 l 1,2,-1
 248 125 l 1,3,-1
 202 134 l 1,4,5
 172 148 172 148 146 171 c 128,-1,6
 120 194 120 194 100.5 227 c 128,-1,7
 81 260 81 260 70 302.5 c 128,-1,8
 59 345 59 345 59 397 c 0,9,10
 59 470 59 470 82.5 528.5 c 128,-1,11
 106 587 106 587 149.5 628 c 128,-1,12
 193 669 193 669 254 691.5 c 128,-1,13
 315 714 315 714 389 714 c 0,14,15
 467 714 467 714 528.5 690.5 c 128,-1,16
 590 667 590 667 632 625 c 128,-1,17
 674 583 674 583 696.5 524 c 128,-1,18
 719 465 719 465 719 393 c 0,19,20
 719 341 719 341 707 299.5 c 128,-1,21
 695 258 695 258 675.5 226 c 128,-1,22
 656 194 656 194 630.5 171.5 c 128,-1,23
 605 149 605 149 578 135 c 1,24,-1
 529 125 l 1,25,-1
 529 97 l 1,26,-1
 614 110 l 1,27,-1
 720 110 l 1,28,-1
 720 0 l 1,29,-1
 420 0 l 1,30,-1
 420 203 l 1,31,32
 446 207 446 207 473.5 220 c 128,-1,33
 501 233 501 233 523.5 255.5 c 128,-1,34
 546 278 546 278 560.5 311.5 c 128,-1,35
 575 345 575 345 575 392 c 0,36,37
 575 429 575 429 565 465 c 128,-1,38
 555 501 555 501 533 529.5 c 128,-1,39
 511 558 511 558 475.5 575 c 128,-1,40
 440 592 440 592 388 592 c 0,41,42
 299 592 299 592 251 541 c 128,-1,43
 203 490 203 490 203 389 c 0,44,45
 203 344 203 344 217 310.5 c 128,-1,46
 231 277 231 277 253 254.5 c 128,-1,47
 275 232 275 232 302.5 219.5 c 128,-1,48
 330 207 330 207 357 203 c 1,49,-1
 357 0 l 1,50,-1
 58 0 l 1,51,-1
 58 110 l 1,0,-1
EndSplineSet
EndChar

StartChar: pi
Encoding: 960 960 314
Width: 696
Flags: W
LayerCount: 2
Fore
SplineSet
566 156 m 2,0,1
 566 128 566 128 575 117 c 128,-1,2
 584 106 584 106 598 106 c 0,3,4
 608 106 608 106 620.5 108 c 128,-1,5
 633 110 633 110 642 112 c 1,6,-1
 662 22 l 1,7,8
 642 13 642 13 610.5 3.5 c 128,-1,9
 579 -6 579 -6 534 -6 c 0,10,11
 478 -6 478 -6 457 24 c 128,-1,12
 436 54 436 54 436 106 c 2,13,-1
 436 390 l 1,14,-1
 296 390 l 1,15,-1
 296 0 l 1,16,-1
 166 0 l 1,17,-1
 166 390 l 1,18,-1
 152 390 l 2,19,20
 134 390 134 390 120.5 380 c 128,-1,21
 107 370 107 370 95 346 c 1,22,-1
 19 394 l 1,23,24
 38 445 38 445 75.5 472.5 c 128,-1,25
 113 500 113 500 166 500 c 2,26,-1
 649 500 l 1,27,-1
 649 390 l 1,28,-1
 566 390 l 1,29,-1
 566 156 l 2,0,1
EndSplineSet
EndChar

StartChar: afii10051
Encoding: 1026 1026 316
Width: 740
Flags: W
LayerCount: 2
Fore
SplineSet
353 0 m 1,0,-1
 216 0 l 1,1,-1
 216 578 l 1,2,-1
 11 578 l 1,3,-1
 11 700 l 1,4,-1
 557 700 l 1,5,-1
 557 578 l 1,6,-1
 353 578 l 1,7,-1
 353 435 l 1,8,9
 369 441 369 441 403 449 c 128,-1,10
 437 457 437 457 491 457 c 0,11,12
 530 457 530 457 567.5 447 c 128,-1,13
 605 437 605 437 635 411.5 c 128,-1,14
 665 386 665 386 683.5 342.5 c 128,-1,15
 702 299 702 299 702 232 c 0,16,17
 702 116 702 116 645 54.5 c 128,-1,18
 588 -7 588 -7 461 -7 c 0,19,20
 433 -7 433 -7 419.5 -6 c 128,-1,21
 406 -5 406 -5 398 -3 c 1,22,-1
 398 114 l 1,23,24
 405 112 405 112 421.5 111.5 c 128,-1,25
 438 111 438 111 455 111 c 0,26,27
 505 111 505 111 531.5 140 c 128,-1,28
 558 169 558 169 558 226 c 0,29,30
 558 260 558 260 549 281.5 c 128,-1,31
 540 303 540 303 524 315 c 128,-1,32
 508 327 508 327 486 331 c 128,-1,33
 464 335 464 335 438 335 c 0,34,35
 415 335 415 335 389.5 329 c 128,-1,36
 364 323 364 323 353 317 c 1,37,-1
 353 0 l 1,0,-1
EndSplineSet
Position2: "'cpsp' Capital Spacing lookup 0 subtable" dx=40 dy=0 dh=80 dv=0
EndChar

StartChar: afii10053
Encoding: 1028 1028 318
Width: 577
Flags: W
LayerCount: 2
Fore
SplineSet
549 29 m 1,0,1
 534 18 534 18 511.5 9.5 c 128,-1,2
 489 1 489 1 463.5 -4 c 128,-1,3
 438 -9 438 -9 411 -11.5 c 128,-1,4
 384 -14 384 -14 358 -14 c 0,5,6
 293 -14 293 -14 235 5.5 c 128,-1,7
 177 25 177 25 133.5 68.5 c 128,-1,8
 90 112 90 112 64 181.5 c 128,-1,9
 38 251 38 251 38 350 c 0,10,11
 38 453 38 453 67 522.5 c 128,-1,12
 96 592 96 592 142.5 634.5 c 128,-1,13
 189 677 189 677 246.5 695.5 c 128,-1,14
 304 714 304 714 362 714 c 0,15,16
 422 714 422 714 467 706 c 128,-1,17
 512 698 512 698 539 687 c 1,18,-1
 513 568 l 1,19,20
 490 579 490 579 454.5 585.5 c 128,-1,21
 419 592 419 592 374 592 c 0,22,23
 339 592 339 592 307.5 581.5 c 128,-1,24
 276 571 276 571 251.5 549 c 128,-1,25
 227 527 227 527 209.5 494 c 128,-1,26
 192 461 192 461 185 416 c 1,27,-1
 460 416 l 1,28,-1
 460 304 l 1,29,-1
 182 304 l 1,30,31
 193 215 193 215 244.5 161.5 c 128,-1,32
 296 108 296 108 384 108 c 0,33,34
 429 108 429 108 464 117 c 128,-1,35
 499 126 499 126 521 139 c 1,36,-1
 549 29 l 1,0,1
EndSplineSet
Position2: "'cpsp' Capital Spacing lookup 0 subtable" dx=40 dy=0 dh=80 dv=0
EndChar

StartChar: afii10056
Encoding: 1031 1031 321
Width: 296
Flags: W
LayerCount: 2
Fore
SplineSet
19 792 m 0,0,1
 19 823 19 823 34.5 839.5 c 128,-1,2
 50 856 50 856 79 856 c 0,3,4
 107 856 107 856 122.5 839.5 c 128,-1,5
 138 823 138 823 138 792 c 0,6,7
 138 762 138 762 122.5 746 c 128,-1,8
 107 730 107 730 79 730 c 0,9,10
 50 730 50 730 34.5 746 c 128,-1,11
 19 762 19 762 19 792 c 0,0,1
159 792 m 0,12,13
 159 823 159 823 174.5 839.5 c 128,-1,14
 190 856 190 856 218 856 c 0,15,16
 247 856 247 856 262.5 839.5 c 128,-1,17
 278 823 278 823 278 792 c 0,18,19
 278 762 278 762 262.5 746 c 128,-1,20
 247 730 247 730 218 730 c 0,21,22
 190 730 190 730 174.5 746 c 128,-1,23
 159 762 159 762 159 792 c 0,12,13
79 700 m 1,24,-1
 216 700 l 1,25,-1
 216 0 l 1,26,-1
 79 0 l 1,27,-1
 79 700 l 1,24,-1
EndSplineSet
Position2: "'cpsp' Capital Spacing lookup 0 subtable" dx=40 dy=0 dh=80 dv=0
EndChar

StartChar: afii10058
Encoding: 1033 1033 323
Width: 935
Flags: W
LayerCount: 2
Fore
SplineSet
426 578 m 1,0,-1
 277 578 l 1,1,2
 273 483 273 483 268 405 c 128,-1,3
 263 327 263 327 254.5 264.5 c 128,-1,4
 246 202 246 202 232 154 c 128,-1,5
 218 106 218 106 196 71 c 0,6,7
 182 48 182 48 164.5 33 c 128,-1,8
 147 18 147 18 128 9 c 128,-1,9
 109 0 109 0 90.5 -3.5 c 128,-1,10
 72 -7 72 -7 56 -7 c 0,11,12
 33 -7 33 -7 17.5 -3.5 c 128,-1,13
 2 0 2 0 -13 7 c 1,14,-1
 2 125 l 1,15,16
 8 123 8 123 14 122 c 128,-1,17
 20 121 20 121 26 121 c 0,18,19
 42 121 42 121 57.5 129 c 128,-1,20
 73 137 73 137 84 156 c 1,21,22
 99 178 99 178 110 220.5 c 128,-1,23
 121 263 121 263 129.5 329 c 128,-1,24
 138 395 138 395 143 486.5 c 128,-1,25
 148 578 148 578 150 700 c 1,26,-1
 563 700 l 1,27,-1
 563 449 l 1,28,29
 568 450 568 450 579.5 451.5 c 128,-1,30
 591 453 591 453 604.5 454 c 128,-1,31
 618 455 618 455 632 456 c 128,-1,32
 646 457 646 457 658 457 c 0,33,34
 707 457 707 457 753 447 c 128,-1,35
 799 437 799 437 834.5 411.5 c 128,-1,36
 870 386 870 386 891 342.5 c 128,-1,37
 912 299 912 299 912 232 c 0,38,39
 912 112 912 112 837.5 51 c 128,-1,40
 763 -10 763 -10 624 -10 c 0,41,42
 612 -10 612 -10 594 -9.5 c 128,-1,43
 576 -9 576 -9 554.5 -8 c 128,-1,44
 533 -7 533 -7 509 -5 c 128,-1,45
 485 -3 485 -3 463 0 c 1,46,-1
 426 0 l 1,47,-1
 426 578 l 1,0,-1
631 112 m 0,48,49
 659 112 659 112 684 117.5 c 128,-1,50
 709 123 709 123 728 136.5 c 128,-1,51
 747 150 747 150 757.5 172 c 128,-1,52
 768 194 768 194 768 226 c 0,53,54
 768 260 768 260 756.5 281.5 c 128,-1,55
 745 303 745 303 726.5 315 c 128,-1,56
 708 327 708 327 683 331 c 128,-1,57
 658 335 658 335 631 335 c 0,58,59
 624 335 624 335 614 334 c 128,-1,60
 604 333 604 333 594 332 c 128,-1,61
 584 331 584 331 575.5 329.5 c 128,-1,62
 567 328 567 328 563 327 c 1,63,-1
 563 118 l 1,64,65
 574 115 574 115 592.5 113.5 c 128,-1,66
 611 112 611 112 631 112 c 0,48,49
EndSplineSet
Position2: "'cpsp' Capital Spacing lookup 0 subtable" dx=40 dy=0 dh=80 dv=0
EndChar

StartChar: afii10059
Encoding: 1034 1034 324
Width: 962
Flags: W
LayerCount: 2
Fore
SplineSet
453 305 m 1,0,-1
 197 305 l 1,1,-1
 197 0 l 1,2,-1
 60 0 l 1,3,-1
 60 700 l 1,4,-1
 197 700 l 1,5,-1
 197 427 l 1,6,-1
 453 427 l 1,7,-1
 453 700 l 1,8,-1
 590 700 l 1,9,-1
 590 434 l 1,10,11
 595 435 595 435 606.5 436.5 c 128,-1,12
 618 438 618 438 631.5 439 c 128,-1,13
 645 440 645 440 659 441 c 128,-1,14
 673 442 673 442 685 442 c 0,15,16
 734 442 734 442 780 433 c 128,-1,17
 826 424 826 424 861.5 400 c 128,-1,18
 897 376 897 376 918 334 c 128,-1,19
 939 292 939 292 939 225 c 0,20,21
 939 105 939 105 865 47.5 c 128,-1,22
 791 -10 791 -10 651 -10 c 0,23,24
 637 -10 637 -10 613 -9 c 128,-1,25
 589 -8 589 -8 561.5 -6.5 c 128,-1,26
 534 -5 534 -5 505 -2.5 c 128,-1,27
 476 0 476 0 453 3 c 1,28,-1
 453 305 l 1,0,-1
658 112 m 0,29,30
 689 112 689 112 714.5 117 c 128,-1,31
 740 122 740 122 758 134.5 c 128,-1,32
 776 147 776 147 785.5 167.5 c 128,-1,33
 795 188 795 188 795 219 c 0,34,35
 795 251 795 251 785 270.5 c 128,-1,36
 775 290 775 290 757 301 c 128,-1,37
 739 312 739 312 713.5 316 c 128,-1,38
 688 320 688 320 658 320 c 0,39,40
 651 320 651 320 641 319 c 128,-1,41
 631 318 631 318 621 317 c 128,-1,42
 611 316 611 316 602.5 314 c 128,-1,43
 594 312 594 312 590 311 c 1,44,-1
 590 118 l 1,45,46
 601 115 601 115 619.5 113.5 c 128,-1,47
 638 112 638 112 658 112 c 0,29,30
EndSplineSet
Position2: "'cpsp' Capital Spacing lookup 0 subtable" dx=40 dy=0 dh=80 dv=0
EndChar

StartChar: afii10060
Encoding: 1035 1035 325
Width: 758
Flags: W
LayerCount: 2
Fore
SplineSet
353 0 m 1,0,-1
 216 0 l 1,1,-1
 216 578 l 1,2,-1
 11 578 l 1,3,-1
 11 700 l 1,4,-1
 557 700 l 1,5,-1
 557 578 l 1,6,-1
 353 578 l 1,7,-1
 353 401 l 1,8,9
 378 416 378 416 421.5 429 c 128,-1,10
 465 442 465 442 525 442 c 0,11,12
 567 442 567 442 602 431 c 128,-1,13
 637 420 637 420 662.5 397 c 128,-1,14
 688 374 688 374 702 337 c 128,-1,15
 716 300 716 300 716 248 c 2,16,-1
 716 0 l 1,17,-1
 579 0 l 1,18,-1
 579 206 l 2,19,20
 579 266 579 266 555 295.5 c 128,-1,21
 531 325 531 325 477 325 c 0,22,23
 439 325 439 325 406 316.5 c 128,-1,24
 373 308 373 308 353 291 c 1,25,-1
 353 0 l 1,0,-1
EndSplineSet
Position2: "'cpsp' Capital Spacing lookup 0 subtable" dx=40 dy=0 dh=80 dv=0
EndChar

StartChar: afii10145
Encoding: 1039 1039 328
Width: 639
Flags: W
LayerCount: 2
Fore
SplineSet
60 0 m 1,0,-1
 60 700 l 1,1,-1
 197 700 l 1,2,-1
 197 122 l 1,3,-1
 442 122 l 1,4,-1
 442 700 l 1,5,-1
 579 700 l 1,6,-1
 579 0 l 1,7,-1
 379 0 l 1,8,-1
 364 -175 l 1,9,-1
 276 -175 l 1,10,-1
 256 0 l 1,11,-1
 60 0 l 1,0,-1
EndSplineSet
Position2: "'cpsp' Capital Spacing lookup 0 subtable" dx=40 dy=0 dh=80 dv=0
EndChar

StartChar: afii10018
Encoding: 1041 1041 330
Width: 570
Flags: W
LayerCount: 2
Fore
SplineSet
60 700 m 1,0,-1
 491 700 l 1,1,-1
 491 578 l 1,2,-1
 197 578 l 1,3,-1
 197 432 l 1,4,5
 214 435 214 435 238.5 438 c 128,-1,6
 263 441 263 441 287 441 c 0,7,8
 343 441 343 441 390 430 c 128,-1,9
 437 419 437 419 470.5 393.5 c 128,-1,10
 504 368 504 368 523 326.5 c 128,-1,11
 542 285 542 285 542 225 c 0,12,13
 542 166 542 166 522.5 122 c 128,-1,14
 503 78 503 78 466.5 49 c 128,-1,15
 430 20 430 20 378.5 5 c 128,-1,16
 327 -10 327 -10 263 -10 c 0,17,18
 246 -10 246 -10 220.5 -9 c 128,-1,19
 195 -8 195 -8 166.5 -6 c 128,-1,20
 138 -4 138 -4 110 -1 c 128,-1,21
 82 2 82 2 60 7 c 1,22,-1
 60 700 l 1,0,-1
273 103 m 0,23,24
 299 103 299 103 321.5 109.5 c 128,-1,25
 344 116 344 116 361 129.5 c 128,-1,26
 378 143 378 143 388 164 c 128,-1,27
 398 185 398 185 398 215 c 0,28,29
 398 251 398 251 387 273 c 128,-1,30
 376 295 376 295 357 307.5 c 128,-1,31
 338 320 338 320 313.5 324 c 128,-1,32
 289 328 289 328 261 328 c 0,33,34
 247 328 247 328 226 325.5 c 128,-1,35
 205 323 205 323 197 321 c 1,36,-1
 197 108 l 1,37,38
 208 105 208 105 230.5 104 c 128,-1,39
 253 103 253 103 273 103 c 0,23,24
EndSplineSet
Position2: "'cpsp' Capital Spacing lookup 0 subtable" dx=40 dy=0 dh=80 dv=0
EndChar

StartChar: afii10020
Encoding: 1043 1043 332
Width: 458
Flags: W
LayerCount: 2
Fore
SplineSet
467 578 m 1,0,-1
 197 578 l 1,1,-1
 197 0 l 1,2,-1
 60 0 l 1,3,-1
 60 700 l 1,4,-1
 467 700 l 1,5,-1
 467 578 l 1,0,-1
EndSplineSet
Position2: "'cpsp' Capital Spacing lookup 0 subtable" dx=40 dy=0 dh=80 dv=0
EndChar

StartChar: afii10021
Encoding: 1044 1044 333
Width: 691
Flags: W
LayerCount: 2
Fore
SplineSet
674 -125 m 1,0,-1
 577 -125 l 1,1,-1
 562 0 l 1,2,-1
 112 0 l 1,3,-1
 97 -125 l 1,4,-1
 0 -125 l 1,5,-1
 0 122 l 1,6,-1
 74 122 l 1,7,8
 81 133 81 133 97 171 c 128,-1,9
 113 209 113 209 129 278.5 c 128,-1,10
 145 348 145 348 156 452.5 c 128,-1,11
 167 557 167 557 166 700 c 1,12,-1
 585 700 l 1,13,-1
 585 122 l 1,14,-1
 674 122 l 1,15,-1
 674 -125 l 1,0,-1
448 122 m 1,16,-1
 448 578 l 1,17,-1
 293 578 l 1,18,19
 287 400 287 400 264.5 286.5 c 128,-1,20
 242 173 242 173 219 122 c 1,21,-1
 448 122 l 1,16,-1
EndSplineSet
Position2: "'cpsp' Capital Spacing lookup 0 subtable" dx=40 dy=0 dh=80 dv=0
EndChar

StartChar: afii10024
Encoding: 1046 1046 335
Width: 839
Flags: W
LayerCount: 2
Fore
SplineSet
350 700 m 1,0,-1
 480 700 l 1,1,-1
 480 389 l 1,2,-1
 515 403 l 1,3,-1
 660 700 l 1,4,-1
 814 700 l 1,5,-1
 651 393 l 1,6,-1
 604 359 l 1,7,-1
 661 317 l 1,8,-1
 845 0 l 1,9,-1
 680 0 l 1,10,-1
 519 304 l 1,11,-1
 480 304 l 1,12,-1
 480 0 l 1,13,-1
 350 0 l 1,14,-1
 350 316 l 1,15,-1
 314 302 l 1,16,-1
 153 0 l 1,17,-1
 -7 0 l 1,18,-1
 176 307 l 1,19,-1
 230 346 l 1,20,-1
 178 383 l 1,21,-1
 7 700 l 1,22,-1
 166 700 l 1,23,-1
 311 401 l 1,24,-1
 350 401 l 1,25,-1
 350 700 l 1,0,-1
EndSplineSet
Position2: "'cpsp' Capital Spacing lookup 0 subtable" dx=40 dy=0 dh=80 dv=0
EndChar

StartChar: afii10025
Encoding: 1047 1047 336
Width: 526
Flags: W
LayerCount: 2
Fore
SplineSet
120 310 m 1,0,-1
 120 417 l 1,1,-1
 144 417 l 2,2,3
 153 417 153 417 166 417 c 128,-1,4
 179 417 179 417 192.5 417.5 c 128,-1,5
 206 418 206 418 219 419.5 c 128,-1,6
 232 421 232 421 240 423 c 0,7,8
 275 431 275 431 300 451.5 c 128,-1,9
 325 472 325 472 325 507 c 0,10,11
 325 555 325 555 294.5 572.5 c 128,-1,12
 264 590 264 590 214 590 c 0,13,14
 169 590 169 590 130 578 c 128,-1,15
 91 566 91 566 71 555 c 1,16,-1
 36 671 l 1,17,18
 47 677 47 677 67.5 684 c 128,-1,19
 88 691 88 691 114.5 697.5 c 128,-1,20
 141 704 141 704 172 708 c 128,-1,21
 203 712 203 712 235 712 c 0,22,23
 279 712 279 712 321 704 c 128,-1,24
 363 696 363 696 396 676 c 128,-1,25
 429 656 429 656 449 622.5 c 128,-1,26
 469 589 469 589 469 537 c 256,27,28
 469 485 469 485 441.5 441 c 128,-1,29
 414 397 414 397 353 377 c 1,30,-1
 353 372 l 1,31,32
 418 359 418 359 454.5 316 c 128,-1,33
 491 273 491 273 491 201 c 0,34,35
 491 144 491 144 468 103.5 c 128,-1,36
 445 63 445 63 407.5 37 c 128,-1,37
 370 11 370 11 321 -1.5 c 128,-1,38
 272 -14 272 -14 221 -14 c 0,39,40
 155 -14 155 -14 101 -3 c 128,-1,41
 47 8 47 8 18 23 c 1,42,-1
 53 142 l 1,43,44
 76 131 76 131 119 119.5 c 128,-1,45
 162 108 162 108 221 108 c 0,46,47
 243 108 243 108 265.5 113.5 c 128,-1,48
 288 119 288 119 306 131.5 c 128,-1,49
 324 144 324 144 335 164 c 128,-1,50
 346 184 346 184 346 212 c 0,51,52
 346 259 346 259 311 283 c 128,-1,53
 276 307 276 307 186 309 c 0,54,55
 174 310 174 310 168 310 c 128,-1,56
 162 310 162 310 147 310 c 2,57,-1
 120 310 l 1,0,-1
EndSplineSet
Position2: "'cpsp' Capital Spacing lookup 0 subtable" dx=40 dy=0 dh=80 dv=0
EndChar

StartChar: afii10026
Encoding: 1048 1048 337
Width: 666
Flags: W
LayerCount: 2
Fore
SplineSet
468 388 m 1,0,-1
 476 479 l 1,1,-1
 471 479 l 1,2,-1
 424 385 l 1,3,-1
 163 0 l 1,4,-1
 60 0 l 1,5,-1
 60 700 l 1,6,-1
 197 700 l 1,7,-1
 197 319 l 1,8,-1
 187 225 l 1,9,-1
 193 225 l 1,10,-1
 242 322 l 1,11,-1
 503 700 l 1,12,-1
 605 700 l 1,13,-1
 605 0 l 1,14,-1
 468 0 l 1,15,-1
 468 388 l 1,0,-1
EndSplineSet
Position2: "'cpsp' Capital Spacing lookup 0 subtable" dx=40 dy=0 dh=80 dv=0
EndChar

StartChar: afii10029
Encoding: 1051 1051 340
Width: 623
Flags: W
LayerCount: 2
Fore
SplineSet
426 578 m 1,0,-1
 277 578 l 1,1,2
 273 483 273 483 268 405 c 128,-1,3
 263 327 263 327 254.5 264.5 c 128,-1,4
 246 202 246 202 232 154 c 128,-1,5
 218 106 218 106 196 71 c 0,6,7
 182 48 182 48 164.5 33 c 128,-1,8
 147 18 147 18 128 9 c 128,-1,9
 109 0 109 0 90.5 -3.5 c 128,-1,10
 72 -7 72 -7 56 -7 c 0,11,12
 33 -7 33 -7 17.5 -3.5 c 128,-1,13
 2 0 2 0 -13 7 c 1,14,-1
 2 125 l 1,15,16
 8 123 8 123 14 122 c 128,-1,17
 20 121 20 121 26 121 c 0,18,19
 42 121 42 121 57.5 129 c 128,-1,20
 73 137 73 137 84 156 c 1,21,22
 99 178 99 178 110 220.5 c 128,-1,23
 121 263 121 263 129.5 329 c 128,-1,24
 138 395 138 395 143 486.5 c 128,-1,25
 148 578 148 578 150 700 c 1,26,-1
 563 700 l 1,27,-1
 563 0 l 1,28,-1
 426 0 l 1,29,-1
 426 578 l 1,0,-1
EndSplineSet
Position2: "'cpsp' Capital Spacing lookup 0 subtable" dx=40 dy=0 dh=80 dv=0
EndChar

StartChar: afii10033
Encoding: 1055 1055 344
Width: 639
Flags: W
LayerCount: 2
Fore
SplineSet
442 578 m 1,0,-1
 197 578 l 1,1,-1
 197 0 l 1,2,-1
 60 0 l 1,3,-1
 60 700 l 1,4,-1
 579 700 l 1,5,-1
 579 0 l 1,6,-1
 442 0 l 1,7,-1
 442 578 l 1,0,-1
EndSplineSet
Position2: "'cpsp' Capital Spacing lookup 0 subtable" dx=40 dy=0 dh=80 dv=0
EndChar

StartChar: afii10037
Encoding: 1059 1059 348
Width: 568
Flags: W
LayerCount: 2
Fore
SplineSet
294 391 m 1,0,-1
 314 300 l 1,1,-1
 320 300 l 1,2,-1
 336 394 l 1,3,-1
 441 700 l 1,4,-1
 582 700 l 1,5,-1
 396 216 l 2,6,7
 374 159 374 159 353.5 117 c 128,-1,8
 333 75 333 75 309.5 47.5 c 128,-1,9
 286 20 286 20 257 6.5 c 128,-1,10
 228 -7 228 -7 189 -7 c 0,11,12
 156 -7 156 -7 135.5 -2.5 c 128,-1,13
 115 2 115 2 91 17 c 1,14,-1
 126 128 l 1,15,16
 143 119 143 119 157 117 c 128,-1,17
 171 115 171 115 187 115 c 0,18,19
 234 115 234 115 253 189 c 1,20,-1
 -9 700 l 1,21,-1
 152 700 l 1,22,-1
 294 391 l 1,0,-1
EndSplineSet
Position2: "'cpsp' Capital Spacing lookup 0 subtable" dx=40 dy=0 dh=80 dv=0
EndChar

StartChar: afii10038
Encoding: 1060 1060 349
Width: 802
Flags: W
LayerCount: 2
Fore
SplineSet
334 76 m 1,0,1
 315 73 315 73 295 72 c 128,-1,2
 275 71 275 71 252 71 c 0,3,4
 204 71 204 71 163 87.5 c 128,-1,5
 122 104 122 104 91.5 138.5 c 128,-1,6
 61 173 61 173 43.5 225.5 c 128,-1,7
 26 278 26 278 26 350 c 0,8,9
 26 418 26 418 43.5 471.5 c 128,-1,10
 61 525 61 525 93.5 562.5 c 128,-1,11
 126 600 126 600 171 620 c 128,-1,12
 216 640 216 640 271 640 c 0,13,14
 284 640 284 640 303 639 c 128,-1,15
 322 638 322 638 334 635 c 1,16,-1
 334 720 l 1,17,-1
 468 720 l 1,18,-1
 468 632 l 1,19,20
 487 637 487 637 511.5 638.5 c 128,-1,21
 536 640 536 640 551 640 c 0,22,23
 600 640 600 640 641 622.5 c 128,-1,24
 682 605 682 605 712.5 569.5 c 128,-1,25
 743 534 743 534 760 481.5 c 128,-1,26
 777 429 777 429 776 360 c 1,27,28
 777 289 777 289 758 235 c 128,-1,29
 739 181 739 181 706 144.5 c 128,-1,30
 673 108 673 108 629.5 89.5 c 128,-1,31
 586 71 586 71 536 71 c 0,32,33
 520 71 520 71 501.5 72.5 c 128,-1,34
 483 74 483 74 468 78 c 1,35,-1
 468 -20 l 1,36,-1
 334 -20 l 1,37,-1
 334 76 l 1,0,1
519 530 m 1,38,39
 509 529 509 529 492 528 c 128,-1,40
 475 527 475 527 463 524 c 1,41,-1
 463 184 l 1,42,43
 472 182 472 182 484.5 182 c 128,-1,44
 497 182 497 182 508 181 c 1,45,46
 536 182 536 182 560 192 c 128,-1,47
 584 202 584 202 602 224 c 128,-1,48
 620 246 620 246 630 279 c 128,-1,49
 640 312 640 312 639 359 c 1,50,51
 640 439 640 439 608 484 c 128,-1,52
 576 529 576 529 519 530 c 1,38,39
287 182 m 0,53,54
 295 182 295 182 311.5 182.5 c 128,-1,55
 328 183 328 183 339 187 c 1,56,-1
 339 526 l 1,57,58
 329 528 329 528 316 528.5 c 128,-1,59
 303 529 303 529 292 529 c 0,60,61
 237 529 237 529 200 486.5 c 128,-1,62
 163 444 163 444 163 351 c 0,63,64
 163 270 163 270 197 226 c 128,-1,65
 231 182 231 182 287 182 c 0,53,54
EndSplineSet
Position2: "'cpsp' Capital Spacing lookup 0 subtable" dx=40 dy=0 dh=80 dv=0
EndChar

StartChar: afii10040
Encoding: 1062 1062 351
Width: 682
Flags: W
LayerCount: 2
Fore
SplineSet
665 -125 m 1,0,-1
 568 -125 l 1,1,-1
 553 0 l 1,2,-1
 60 0 l 1,3,-1
 60 700 l 1,4,-1
 197 700 l 1,5,-1
 197 122 l 1,6,-1
 438 122 l 1,7,-1
 438 700 l 1,8,-1
 575 700 l 1,9,-1
 575 122 l 1,10,-1
 665 122 l 1,11,-1
 665 -125 l 1,0,-1
EndSplineSet
Position2: "'cpsp' Capital Spacing lookup 0 subtable" dx=40 dy=0 dh=80 dv=0
EndChar

StartChar: afii10041
Encoding: 1063 1063 352
Width: 606
Flags: W
LayerCount: 2
Fore
SplineSet
183 700 m 1,0,-1
 183 478 l 2,1,2
 183 418 183 418 206.5 388.5 c 128,-1,3
 230 359 230 359 284 359 c 0,4,5
 322 359 322 359 355.5 367.5 c 128,-1,6
 389 376 389 376 409 393 c 1,7,-1
 409 700 l 1,8,-1
 546 700 l 1,9,-1
 546 0 l 1,10,-1
 409 0 l 1,11,-1
 409 282 l 1,12,13
 383 267 383 267 339.5 254.5 c 128,-1,14
 296 242 296 242 236 242 c 0,15,16
 194 242 194 242 159.5 252.5 c 128,-1,17
 125 263 125 263 99.5 286.5 c 128,-1,18
 74 310 74 310 60 346.5 c 128,-1,19
 46 383 46 383 46 435 c 2,20,-1
 46 700 l 1,21,-1
 183 700 l 1,0,-1
EndSplineSet
Position2: "'cpsp' Capital Spacing lookup 0 subtable" dx=40 dy=0 dh=80 dv=0
EndChar

StartChar: afii10042
Encoding: 1064 1064 353
Width: 861
Flags: W
LayerCount: 2
Fore
SplineSet
60 0 m 1,0,-1
 60 700 l 1,1,-1
 197 700 l 1,2,-1
 197 122 l 1,3,-1
 362 122 l 1,4,-1
 362 700 l 1,5,-1
 499 700 l 1,6,-1
 499 122 l 1,7,-1
 664 122 l 1,8,-1
 664 700 l 1,9,-1
 801 700 l 1,10,-1
 801 0 l 1,11,-1
 60 0 l 1,0,-1
EndSplineSet
Position2: "'cpsp' Capital Spacing lookup 0 subtable" dx=40 dy=0 dh=80 dv=0
EndChar

StartChar: afii10043
Encoding: 1065 1065 354
Width: 911
Flags: W
LayerCount: 2
Fore
SplineSet
60 0 m 1,0,-1
 60 700 l 1,1,-1
 197 700 l 1,2,-1
 197 122 l 1,3,-1
 362 122 l 1,4,-1
 362 700 l 1,5,-1
 499 700 l 1,6,-1
 499 122 l 1,7,-1
 664 122 l 1,8,-1
 664 700 l 1,9,-1
 801 700 l 1,10,-1
 801 122 l 1,11,-1
 893 122 l 1,12,-1
 893 -125 l 1,13,-1
 797 -125 l 1,14,-1
 782 0 l 1,15,-1
 60 0 l 1,0,-1
EndSplineSet
Position2: "'cpsp' Capital Spacing lookup 0 subtable" dx=40 dy=0 dh=80 dv=0
EndChar

StartChar: afii10044
Encoding: 1066 1066 355
Width: 664
Flags: W
LayerCount: 2
Fore
SplineSet
155 578 m 1,0,-1
 -4 578 l 1,1,-1
 -4 700 l 1,2,-1
 292 700 l 1,3,-1
 292 449 l 1,4,5
 297 450 297 450 308.5 451.5 c 128,-1,6
 320 453 320 453 333.5 454 c 128,-1,7
 347 455 347 455 361.5 456 c 128,-1,8
 376 457 376 457 388 457 c 0,9,10
 437 457 437 457 482.5 447 c 128,-1,11
 528 437 528 437 563.5 411.5 c 128,-1,12
 599 386 599 386 620 342.5 c 128,-1,13
 641 299 641 299 641 232 c 0,14,15
 641 112 641 112 567 51 c 128,-1,16
 493 -10 493 -10 353 -10 c 0,17,18
 339 -10 339 -10 315 -9.5 c 128,-1,19
 291 -9 291 -9 263.5 -7 c 128,-1,20
 236 -5 236 -5 207.5 -2 c 128,-1,21
 179 1 179 1 155 7 c 1,22,-1
 155 578 l 1,0,-1
360 112 m 0,23,24
 388 112 388 112 413 117.5 c 128,-1,25
 438 123 438 123 457 136.5 c 128,-1,26
 476 150 476 150 486.5 172 c 128,-1,27
 497 194 497 194 497 226 c 0,28,29
 497 260 497 260 485.5 281.5 c 128,-1,30
 474 303 474 303 455.5 315 c 128,-1,31
 437 327 437 327 412 331 c 128,-1,32
 387 335 387 335 360 335 c 0,33,34
 353 335 353 335 343 334 c 128,-1,35
 333 333 333 333 323 332 c 128,-1,36
 313 331 313 331 304.5 329.5 c 128,-1,37
 296 328 296 328 292 327 c 1,38,-1
 292 118 l 1,39,40
 303 115 303 115 321.5 113.5 c 128,-1,41
 340 112 340 112 360 112 c 0,23,24
EndSplineSet
Position2: "'cpsp' Capital Spacing lookup 0 subtable" dx=40 dy=0 dh=80 dv=0
EndChar

StartChar: afii10045
Encoding: 1067 1067 356
Width: 798
Flags: W
LayerCount: 2
Fore
SplineSet
600 700 m 1,0,-1
 737 700 l 1,1,-1
 737 0 l 1,2,-1
 600 0 l 1,3,-1
 600 700 l 1,0,-1
60 700 m 1,4,-1
 197 700 l 1,5,-1
 197 449 l 1,6,7
 208 451 208 451 232 454 c 128,-1,8
 256 457 256 457 279 457 c 0,9,10
 329 457 329 457 374.5 447 c 128,-1,11
 420 437 420 437 454 411.5 c 128,-1,12
 488 386 488 386 508 342.5 c 128,-1,13
 528 299 528 299 528 233 c 0,14,15
 528 111 528 111 457 50.5 c 128,-1,16
 386 -10 386 -10 246 -10 c 0,17,18
 232 -10 232 -10 210 -9.5 c 128,-1,19
 188 -9 188 -9 162.5 -7 c 128,-1,20
 137 -5 137 -5 110 -2 c 128,-1,21
 83 1 83 1 60 7 c 1,22,-1
 60 700 l 1,4,-1
256 112 m 0,23,24
 313 112 313 112 348.5 138.5 c 128,-1,25
 384 165 384 165 384 227 c 0,26,27
 384 260 384 260 374 281 c 128,-1,28
 364 302 364 302 347 314 c 128,-1,29
 330 326 330 326 307 330.5 c 128,-1,30
 284 335 284 335 257 335 c 0,31,32
 243 335 243 335 224 332.5 c 128,-1,33
 205 330 205 330 197 327 c 1,34,-1
 197 118 l 1,35,36
 208 115 208 115 223.5 113.5 c 128,-1,37
 239 112 239 112 256 112 c 0,23,24
EndSplineSet
Position2: "'cpsp' Capital Spacing lookup 0 subtable" dx=40 dy=0 dh=80 dv=0
EndChar

StartChar: afii10046
Encoding: 1068 1068 357
Width: 569
Flags: W
LayerCount: 2
Fore
SplineSet
60 700 m 1,0,-1
 197 700 l 1,1,-1
 197 449 l 1,2,3
 202 450 202 450 213.5 451.5 c 128,-1,4
 225 453 225 453 238.5 454 c 128,-1,5
 252 455 252 455 266 456 c 128,-1,6
 280 457 280 457 292 457 c 0,7,8
 341 457 341 457 387 447 c 128,-1,9
 433 437 433 437 468.5 411.5 c 128,-1,10
 504 386 504 386 525 342.5 c 128,-1,11
 546 299 546 299 546 232 c 0,12,13
 546 112 546 112 471.5 51 c 128,-1,14
 397 -10 397 -10 258 -10 c 0,15,16
 244 -10 244 -10 220.5 -9.5 c 128,-1,17
 197 -9 197 -9 169 -7 c 128,-1,18
 141 -5 141 -5 112.5 -2 c 128,-1,19
 84 1 84 1 60 7 c 1,20,-1
 60 700 l 1,0,-1
265 112 m 0,21,22
 293 112 293 112 318 117.5 c 128,-1,23
 343 123 343 123 362 136.5 c 128,-1,24
 381 150 381 150 391.5 172 c 128,-1,25
 402 194 402 194 402 226 c 0,26,27
 402 260 402 260 390.5 281.5 c 128,-1,28
 379 303 379 303 360.5 315 c 128,-1,29
 342 327 342 327 317 331 c 128,-1,30
 292 335 292 335 265 335 c 0,31,32
 258 335 258 335 248 334 c 128,-1,33
 238 333 238 333 228 332 c 128,-1,34
 218 331 218 331 209.5 329.5 c 128,-1,35
 201 328 201 328 197 327 c 1,36,-1
 197 118 l 1,37,38
 208 115 208 115 226.5 113.5 c 128,-1,39
 245 112 245 112 265 112 c 0,21,22
EndSplineSet
Position2: "'cpsp' Capital Spacing lookup 0 subtable" dx=40 dy=0 dh=80 dv=0
EndChar

StartChar: afii10047
Encoding: 1069 1069 358
Width: 574
Flags: W
LayerCount: 2
Fore
SplineSet
130 410 m 1,0,-1
 399 410 l 1,1,2
 396 450 396 450 382.5 483.5 c 128,-1,3
 369 517 369 517 346 541 c 128,-1,4
 323 565 323 565 289 578.5 c 128,-1,5
 255 592 255 592 212 592 c 0,6,7
 158 592 158 592 118 580.5 c 128,-1,8
 78 569 78 569 53 555 c 1,9,-1
 24 671 l 1,10,11
 59 689 59 689 112 701.5 c 128,-1,12
 165 714 165 714 217 714 c 0,13,14
 286 714 286 714 344.5 695 c 128,-1,15
 403 676 403 676 445.5 632.5 c 128,-1,16
 488 589 488 589 512 519.5 c 128,-1,17
 536 450 536 450 536 350 c 0,18,19
 536 246 536 246 508 176 c 128,-1,20
 480 106 480 106 433 64 c 128,-1,21
 386 22 386 22 325 4 c 128,-1,22
 264 -14 264 -14 198 -14 c 0,23,24
 141 -14 141 -14 94.5 -4 c 128,-1,25
 48 6 48 6 20 19 c 1,26,-1
 56 138 l 1,27,28
 79 127 79 127 118 117.5 c 128,-1,29
 157 108 157 108 208 108 c 0,30,31
 247 108 247 108 280 119 c 128,-1,32
 313 130 313 130 338.5 153.5 c 128,-1,33
 364 177 364 177 380 213 c 128,-1,34
 396 249 396 249 400 300 c 1,35,-1
 130 300 l 1,36,-1
 130 410 l 1,0,-1
EndSplineSet
Position2: "'cpsp' Capital Spacing lookup 0 subtable" dx=40 dy=0 dh=80 dv=0
EndChar

StartChar: afii10048
Encoding: 1070 1070 359
Width: 897
Flags: W
LayerCount: 2
Fore
SplineSet
197 415 m 1,0,-1
 290 415 l 1,1,2
 303 558 303 558 374 636 c 128,-1,3
 445 714 445 714 573 714 c 0,4,5
 649 714 649 714 703 688 c 128,-1,6
 757 662 757 662 791.5 614 c 128,-1,7
 826 566 826 566 842.5 499 c 128,-1,8
 859 432 859 432 859 350 c 0,9,10
 859 175 859 175 787 80.5 c 128,-1,11
 715 -14 715 -14 573 -14 c 0,12,13
 507 -14 507 -14 456.5 8 c 128,-1,14
 406 30 406 30 371 70 c 128,-1,15
 336 110 336 110 316 167 c 128,-1,16
 296 224 296 224 290 293 c 1,17,-1
 197 293 l 1,18,-1
 197 0 l 1,19,-1
 60 0 l 1,20,-1
 60 700 l 1,21,-1
 197 700 l 1,22,-1
 197 415 l 1,0,-1
430 350 m 0,23,24
 430 297 430 297 437.5 252.5 c 128,-1,25
 445 208 445 208 461.5 176 c 128,-1,26
 478 144 478 144 505.5 126 c 128,-1,27
 533 108 533 108 573 108 c 0,28,29
 646 108 646 108 680.5 165 c 128,-1,30
 715 222 715 222 715 350 c 0,31,32
 715 401 715 401 708.5 445 c 128,-1,33
 702 489 702 489 686 522 c 128,-1,34
 670 555 670 555 642.5 573.5 c 128,-1,35
 615 592 615 592 573 592 c 0,36,37
 501 592 501 592 465.5 533.5 c 128,-1,38
 430 475 430 475 430 350 c 0,23,24
EndSplineSet
Position2: "'cpsp' Capital Spacing lookup 0 subtable" dx=40 dy=0 dh=80 dv=0
EndChar

StartChar: afii10049
Encoding: 1071 1071 360
Width: 580
Flags: W
LayerCount: 2
Fore
SplineSet
519 0 m 1,0,-1
 382 0 l 1,1,-1
 382 277 l 1,2,-1
 310 258 l 1,3,-1
 164 0 l 1,4,-1
 5 0 l 1,5,-1
 149 233 l 1,6,-1
 209 276 l 1,7,8
 177 284 177 284 149 300.5 c 128,-1,9
 121 317 121 317 100 343 c 128,-1,10
 79 369 79 369 67 404.5 c 128,-1,11
 55 440 55 440 55 485 c 0,12,13
 55 548 55 548 77 591 c 128,-1,14
 99 634 99 634 138 660.5 c 128,-1,15
 177 687 177 687 231 698.5 c 128,-1,16
 285 710 285 710 348 710 c 0,17,18
 365 710 365 710 387 709 c 128,-1,19
 409 708 409 708 432.5 706 c 128,-1,20
 456 704 456 704 478.5 701 c 128,-1,21
 501 698 501 698 519 693 c 1,22,-1
 519 0 l 1,0,-1
331 588 m 0,23,24
 304 588 304 588 280 583 c 128,-1,25
 256 578 256 578 238 566 c 128,-1,26
 220 554 220 554 209.5 533 c 128,-1,27
 199 512 199 512 199 479 c 0,28,29
 199 448 199 448 209 426.5 c 128,-1,30
 219 405 219 405 237 391.5 c 128,-1,31
 255 378 255 378 279 372 c 128,-1,32
 303 366 303 366 331 366 c 2,33,-1
 382 366 l 1,34,-1
 382 583 l 1,35,36
 371 585 371 585 359.5 586.5 c 128,-1,37
 348 588 348 588 331 588 c 0,23,24
EndSplineSet
Position2: "'cpsp' Capital Spacing lookup 0 subtable" dx=40 dy=0 dh=80 dv=0
EndChar

StartChar: afii10066
Encoding: 1073 1073 362
Width: 537
Flags: W
LayerCount: 2
Fore
SplineSet
142 406 m 1,0,1
 171 450 171 450 210.5 469.5 c 128,-1,2
 250 489 250 489 306 489 c 0,3,4
 397 489 397 489 450.5 433.5 c 128,-1,5
 504 378 504 378 504 261 c 0,6,7
 504 126 504 126 443 56 c 128,-1,8
 382 -14 382 -14 271 -14 c 0,9,10
 155 -14 155 -14 94 63 c 128,-1,11
 33 140 33 140 33 303 c 0,12,13
 33 389 33 389 43 450 c 128,-1,14
 53 511 53 511 71.5 553 c 128,-1,15
 90 595 90 595 115.5 620 c 128,-1,16
 141 645 141 645 172.5 659.5 c 128,-1,17
 204 674 204 674 240 680 c 128,-1,18
 276 686 276 686 316 690 c 0,19,20
 368 695 368 695 405 702.5 c 128,-1,21
 442 710 442 710 460 727 c 1,22,-1
 465 611 l 1,23,24
 445 594 445 594 408 587.5 c 128,-1,25
 371 581 371 581 308 576 c 1,26,27
 270 574 270 574 241 567 c 128,-1,28
 212 560 212 560 191 542 c 128,-1,29
 170 524 170 524 157.5 491.5 c 128,-1,30
 145 459 145 459 139 406 c 1,31,-1
 142 406 l 1,0,1
167 244 m 0,32,33
 167 180 167 180 192 138 c 128,-1,34
 217 96 217 96 269 96 c 0,35,36
 323 96 323 96 346.5 134 c 128,-1,37
 370 172 370 172 370 244 c 0,38,39
 370 309 370 309 348 344 c 128,-1,40
 326 379 326 379 275 379 c 0,41,42
 220 379 220 379 193.5 343 c 128,-1,43
 167 307 167 307 167 244 c 0,32,33
EndSplineSet
EndChar

StartChar: afii10067
Encoding: 1074 1074 363
Width: 505
Flags: W
LayerCount: 2
Fore
SplineSet
57 499 m 1,0,1
 92 502 92 502 141.5 505 c 128,-1,2
 191 508 191 508 248 508 c 0,3,4
 358 508 358 508 404.5 476.5 c 128,-1,5
 451 445 451 445 451 382 c 0,6,7
 451 347 451 347 431 314 c 128,-1,8
 411 281 411 281 368 266 c 1,9,-1
 368 262 l 1,10,11
 422 250 422 250 446 219.5 c 128,-1,12
 470 189 470 189 470 141 c 0,13,14
 470 66 470 66 412.5 29 c 128,-1,15
 355 -8 355 -8 228 -8 c 0,16,17
 186 -8 186 -8 139 -5.5 c 128,-1,18
 92 -3 92 -3 57 1 c 1,19,-1
 57 499 l 1,0,1
184 100 m 1,20,21
 198 98 198 98 210 97 c 128,-1,22
 222 96 222 96 240 96 c 0,23,24
 294 96 294 96 317 111 c 128,-1,25
 340 126 340 126 340 157 c 0,26,27
 340 183 340 183 320.5 199.5 c 128,-1,28
 301 216 301 216 251 216 c 2,29,-1
 184 216 l 1,30,-1
 184 100 l 1,20,21
253 296 m 2,31,32
 285 296 285 296 305.5 311.5 c 128,-1,33
 326 327 326 327 326 351 c 0,34,35
 326 377 326 377 308.5 390.5 c 128,-1,36
 291 404 291 404 245 404 c 0,37,38
 222 404 222 404 208.5 403 c 128,-1,39
 195 402 195 402 184 401 c 1,40,-1
 184 296 l 1,41,-1
 253 296 l 2,31,32
EndSplineSet
EndChar

StartChar: afii10068
Encoding: 1075 1075 364
Width: 376
Flags: W
LayerCount: 2
Fore
SplineSet
380 385 m 1,0,-1
 191 385 l 1,1,-1
 191 0 l 1,2,-1
 57 0 l 1,3,-1
 57 500 l 1,4,-1
 380 500 l 1,5,-1
 380 385 l 1,0,-1
EndSplineSet
EndChar

StartChar: afii10069
Encoding: 1076 1076 365
Width: 568
Flags: W
LayerCount: 2
Fore
SplineSet
554 -114 m 1,0,-1
 459 -114 l 1,1,-1
 444 0 l 1,2,-1
 108 0 l 1,3,-1
 93 -114 l 1,4,-1
 -2 -114 l 1,5,-1
 -2 115 l 1,6,-1
 57 115 l 1,7,8
 65 126 65 126 77.5 152.5 c 128,-1,9
 90 179 90 179 102.5 225 c 128,-1,10
 115 271 115 271 124 339 c 128,-1,11
 133 407 133 407 133 500 c 1,12,-1
 481 500 l 1,13,-1
 481 115 l 1,14,-1
 554 115 l 1,15,-1
 554 -114 l 1,0,-1
351 109 m 1,16,-1
 351 390 l 1,17,-1
 246 390 l 1,18,19
 244 354 244 354 239 313.5 c 128,-1,20
 234 273 234 273 226.5 235 c 128,-1,21
 219 197 219 197 209 164 c 128,-1,22
 199 131 199 131 187 109 c 1,23,-1
 351 109 l 1,16,-1
EndSplineSet
EndChar

StartChar: afii10072
Encoding: 1078 1078 367
Width: 693
Flags: W
LayerCount: 2
Fore
SplineSet
242 203 m 1,0,-1
 140 0 l 1,1,-1
 -6 0 l 1,2,-1
 125 229 l 1,3,-1
 159 259 l 1,4,-1
 108 297 l 1,5,-1
 5 500 l 1,6,-1
 144 500 l 1,7,-1
 237 297 l 1,8,-1
 280 297 l 1,9,-1
 280 500 l 1,10,-1
 404 500 l 1,11,-1
 404 287 l 1,12,-1
 442 301 l 1,13,-1
 536 500 l 1,14,-1
 674 500 l 1,15,-1
 565 297 l 1,16,-1
 526 265 l 1,17,-1
 577 225 l 1,18,-1
 698 0 l 1,19,-1
 549 0 l 1,20,-1
 447 207 l 1,21,-1
 404 207 l 1,22,-1
 404 0 l 1,23,-1
 280 0 l 1,24,-1
 280 217 l 1,25,-1
 242 203 l 1,0,-1
EndSplineSet
EndChar

StartChar: afii10073
Encoding: 1079 1079 368
Width: 432
Flags: W
LayerCount: 2
Fore
SplineSet
109 207 m 1,0,-1
 109 298 l 1,1,-1
 170 298 l 2,2,3
 205 298 205 298 227.5 312 c 128,-1,4
 250 326 250 326 250 349 c 0,5,6
 250 376 250 376 230 387.5 c 128,-1,7
 210 399 210 399 169 399 c 0,8,9
 130 399 130 399 100 389 c 128,-1,10
 70 379 70 379 52 368 c 1,11,-1
 24 467 l 1,12,13
 54 484 54 484 103.5 496.5 c 128,-1,14
 153 509 153 509 209 509 c 0,15,16
 295 509 295 509 337.5 477 c 128,-1,17
 380 445 380 445 380 384 c 0,18,19
 380 367 380 367 375.5 349.5 c 128,-1,20
 371 332 371 332 361 316 c 128,-1,21
 351 300 351 300 336.5 287.5 c 128,-1,22
 322 275 322 275 302 268 c 1,23,-1
 302 264 l 1,24,25
 355 252 355 252 377 221.5 c 128,-1,26
 399 191 399 191 399 140 c 0,27,28
 399 108 399 108 386 80.5 c 128,-1,29
 373 53 373 53 346.5 33 c 128,-1,30
 320 13 320 13 280 1 c 128,-1,31
 240 -11 240 -11 185 -11 c 256,32,33
 130 -11 130 -11 89.5 0.5 c 128,-1,34
 49 12 49 12 22 27 c 1,35,-1
 50 128 l 1,36,37
 73 115 73 115 105.5 107 c 128,-1,38
 138 99 138 99 178 99 c 0,39,40
 269 99 269 99 269 157 c 0,41,42
 269 183 269 183 245.5 195 c 128,-1,43
 222 207 222 207 158 207 c 2,44,-1
 109 207 l 1,0,-1
EndSplineSet
EndChar

StartChar: afii10074
Encoding: 1080 1080 369
Width: 545
Flags: W
LayerCount: 2
Fore
SplineSet
358 228 m 1,0,-1
 363 299 l 1,1,-1
 360 299 l 1,2,-1
 317 226 l 1,3,-1
 139 0 l 1,4,-1
 57 0 l 1,5,-1
 57 500 l 1,6,-1
 187 500 l 1,7,-1
 187 262 l 1,8,-1
 181 194 l 1,9,-1
 185 194 l 1,10,-1
 226 265 l 1,11,-1
 406 500 l 1,12,-1
 488 500 l 1,13,-1
 488 0 l 1,14,-1
 358 0 l 1,15,-1
 358 228 l 1,0,-1
EndSplineSet
EndChar

StartChar: afii10076
Encoding: 1082 1082 371
Width: 489
Flags: W
LayerCount: 2
Fore
SplineSet
222 207 m 1,0,-1
 187 207 l 1,1,-1
 187 0 l 1,2,-1
 57 0 l 1,3,-1
 57 500 l 1,4,-1
 187 500 l 1,5,-1
 187 287 l 1,6,-1
 218 301 l 1,7,-1
 335 500 l 1,8,-1
 474 500 l 1,9,-1
 353 310 l 1,10,-1
 302 272 l 1,11,-1
 358 233 l 1,12,-1
 493 0 l 1,13,-1
 344 0 l 1,14,-1
 222 207 l 1,0,-1
EndSplineSet
EndChar

StartChar: afii10077
Encoding: 1083 1083 372
Width: 515
Flags: W
LayerCount: 2
Fore
SplineSet
329 385 m 1,0,-1
 230 385 l 1,1,2
 224 314 224 314 216 244 c 128,-1,3
 208 174 208 174 190.5 118.5 c 128,-1,4
 173 63 173 63 143 28.5 c 128,-1,5
 113 -6 113 -6 65 -6 c 0,6,7
 7 -6 7 -6 -17 9 c 1,8,-1
 -1 117 l 1,9,10
 15 111 15 111 29 111 c 0,11,12
 49 111 49 111 64 128 c 128,-1,13
 79 145 79 145 89.5 189 c 128,-1,14
 100 233 100 233 106.5 308.5 c 128,-1,15
 113 384 113 384 116 500 c 1,16,-1
 459 500 l 1,17,-1
 459 0 l 1,18,-1
 329 0 l 1,19,-1
 329 385 l 1,0,-1
EndSplineSet
EndChar

StartChar: afii10078
Encoding: 1084 1084 373
Width: 666
Flags: W
LayerCount: 2
Fore
SplineSet
485 229 m 1,0,-1
 493 333 l 1,1,-1
 488 333 l 1,2,-1
 448 247 l 1,3,-1
 354 92 l 1,4,-1
 307 92 l 1,5,-1
 204 247 l 1,6,-1
 166 333 l 1,7,-1
 160 333 l 1,8,-1
 173 230 l 1,9,-1
 173 0 l 1,10,-1
 57 0 l 1,11,-1
 57 500 l 1,12,-1
 192 500 l 1,13,-1
 307 312 l 1,14,-1
 335 249 l 1,15,-1
 339 249 l 1,16,-1
 368 314 l 1,17,-1
 474 500 l 1,18,-1
 610 500 l 1,19,-1
 610 0 l 1,20,-1
 485 0 l 1,21,-1
 485 229 l 1,0,-1
EndSplineSet
EndChar

StartChar: afii10079
Encoding: 1085 1085 374
Width: 537
Flags: W
LayerCount: 2
Fore
SplineSet
350 197 m 1,0,-1
 187 197 l 1,1,-1
 187 0 l 1,2,-1
 57 0 l 1,3,-1
 57 500 l 1,4,-1
 187 500 l 1,5,-1
 187 312 l 1,6,-1
 350 312 l 1,7,-1
 350 500 l 1,8,-1
 480 500 l 1,9,-1
 480 0 l 1,10,-1
 350 0 l 1,11,-1
 350 197 l 1,0,-1
EndSplineSet
EndChar

StartChar: afii10081
Encoding: 1087 1087 376
Width: 532
Flags: W
LayerCount: 2
Fore
SplineSet
345 385 m 1,0,-1
 187 385 l 1,1,-1
 187 0 l 1,2,-1
 57 0 l 1,3,-1
 57 500 l 1,4,-1
 475 500 l 1,5,-1
 475 0 l 1,6,-1
 345 0 l 1,7,-1
 345 385 l 1,0,-1
EndSplineSet
EndChar

StartChar: afii10084
Encoding: 1090 1090 379
Width: 418
Flags: W
LayerCount: 2
Fore
SplineSet
417 385 m 1,0,-1
 276 385 l 1,1,-1
 276 0 l 1,2,-1
 142 0 l 1,3,-1
 142 385 l 1,4,-1
 1 385 l 1,5,-1
 1 500 l 1,6,-1
 417 500 l 1,7,-1
 417 385 l 1,0,-1
EndSplineSet
EndChar

StartChar: afii10086
Encoding: 1092 1092 381
Width: 700
Flags: W
LayerCount: 2
Fore
SplineSet
286 -6 m 1,0,1
 269 -12 269 -12 250.5 -13 c 128,-1,2
 232 -14 232 -14 217 -14 c 0,3,4
 126 -14 126 -14 77 51 c 128,-1,5
 28 116 28 116 28 250 c 0,6,7
 28 378 28 378 82 444 c 128,-1,8
 136 510 136 510 238 510 c 0,9,10
 266 510 266 510 286 506 c 1,11,-1
 286 700 l 1,12,-1
 414 700 l 1,13,-1
 414 505 l 1,14,15
 432 508 432 508 446 509 c 128,-1,16
 460 510 460 510 473 510 c 0,17,18
 572 510 572 510 622 451.5 c 128,-1,19
 672 393 672 393 672 260 c 0,20,21
 672 197 672 197 658.5 146.5 c 128,-1,22
 645 96 645 96 619 60 c 128,-1,23
 593 24 593 24 555.5 5 c 128,-1,24
 518 -14 518 -14 469 -14 c 0,25,26
 460 -14 460 -14 442.5 -12.5 c 128,-1,27
 425 -11 425 -11 414 -7 c 1,28,-1
 414 -200 l 1,29,-1
 286 -200 l 1,30,-1
 286 -6 l 1,0,1
444 407 m 0,31,32
 434 407 434 407 426.5 405.5 c 128,-1,33
 419 404 419 404 408 402 c 1,34,-1
 408 92 l 1,35,36
 416 90 416 90 426.5 89.5 c 128,-1,37
 437 89 437 89 449 89 c 0,38,39
 497 89 497 89 519.5 128.5 c 128,-1,40
 542 168 542 168 542 260 c 0,41,42
 542 338 542 338 520 372.5 c 128,-1,43
 498 407 498 407 444 407 c 0,31,32
251 89 m 0,44,45
 262 89 262 89 271.5 90.5 c 128,-1,46
 281 92 281 92 292 94 c 1,47,-1
 292 403 l 1,48,49
 273 407 273 407 253 407 c 0,50,51
 207 407 207 407 182.5 371.5 c 128,-1,52
 158 336 158 336 158 250 c 0,53,54
 158 172 158 172 180.5 130.5 c 128,-1,55
 203 89 203 89 251 89 c 0,44,45
EndSplineSet
EndChar

StartChar: afii10088
Encoding: 1094 1094 383
Width: 559
Flags: W
LayerCount: 2
Fore
SplineSet
545 -114 m 1,0,-1
 450 -114 l 1,1,-1
 435 0 l 1,2,-1
 57 0 l 1,3,-1
 57 500 l 1,4,-1
 187 500 l 1,5,-1
 187 115 l 1,6,-1
 342 115 l 1,7,-1
 342 500 l 1,8,-1
 472 500 l 1,9,-1
 472 115 l 1,10,-1
 545 115 l 1,11,-1
 545 -114 l 1,0,-1
EndSplineSet
EndChar

StartChar: afii10089
Encoding: 1095 1095 384
Width: 505
Flags: W
LayerCount: 2
Fore
SplineSet
163 500 m 1,0,-1
 163 386 l 2,1,2
 163 355 163 355 165.5 332.5 c 128,-1,3
 168 310 168 310 175.5 295.5 c 128,-1,4
 183 281 183 281 196.5 274 c 128,-1,5
 210 267 210 267 232 267 c 0,6,7
 261 267 261 267 282.5 274 c 128,-1,8
 304 281 304 281 318 291 c 1,9,-1
 318 500 l 1,10,-1
 448 500 l 1,11,-1
 448 0 l 1,12,-1
 318 0 l 1,13,-1
 318 196 l 1,14,15
 303 185 303 185 272 171.5 c 128,-1,16
 241 158 241 158 189 158 c 0,17,18
 152 158 152 158 123 166 c 128,-1,19
 94 174 94 174 74 194 c 128,-1,20
 54 214 54 214 43.5 247 c 128,-1,21
 33 280 33 280 33 330 c 2,22,-1
 33 500 l 1,23,-1
 163 500 l 1,0,-1
EndSplineSet
EndChar

StartChar: afii10090
Encoding: 1096 1096 385
Width: 754
Flags: W
LayerCount: 2
Fore
SplineSet
57 0 m 1,0,-1
 57 500 l 1,1,-1
 187 500 l 1,2,-1
 187 115 l 1,3,-1
 312 115 l 1,4,-1
 312 500 l 1,5,-1
 442 500 l 1,6,-1
 442 115 l 1,7,-1
 567 115 l 1,8,-1
 567 500 l 1,9,-1
 697 500 l 1,10,-1
 697 0 l 1,11,-1
 57 0 l 1,0,-1
EndSplineSet
EndChar

StartChar: afii10091
Encoding: 1097 1097 386
Width: 783
Flags: W
LayerCount: 2
Fore
SplineSet
769 -114 m 1,0,-1
 675 -114 l 1,1,-1
 660 0 l 1,2,-1
 57 0 l 1,3,-1
 57 500 l 1,4,-1
 187 500 l 1,5,-1
 187 115 l 1,6,-1
 312 115 l 1,7,-1
 312 500 l 1,8,-1
 442 500 l 1,9,-1
 442 115 l 1,10,-1
 567 115 l 1,11,-1
 567 500 l 1,12,-1
 697 500 l 1,13,-1
 697 115 l 1,14,-1
 769 115 l 1,15,-1
 769 -114 l 1,0,-1
EndSplineSet
EndChar

StartChar: afii10092
Encoding: 1098 1098 387
Width: 539
Flags: W
LayerCount: 2
Fore
SplineSet
235 109 m 1,0,1
 263 103 263 103 292 103 c 0,2,3
 340 103 340 103 362 119.5 c 128,-1,4
 384 136 384 136 384 171 c 0,5,6
 384 236 384 236 295 236 c 0,7,8
 260 236 260 236 235 229 c 1,9,-1
 235 109 l 1,0,1
235 322 m 1,10,11
 259 326 259 326 284 327.5 c 128,-1,12
 309 329 309 329 329 329 c 0,13,14
 381 329 381 329 417 317.5 c 128,-1,15
 453 306 453 306 475.5 285 c 128,-1,16
 498 264 498 264 508 235.5 c 128,-1,17
 518 207 518 207 518 174 c 0,18,19
 518 83 518 83 463.5 38 c 128,-1,20
 409 -7 409 -7 281 -7 c 0,21,22
 224 -7 224 -7 182 -5 c 128,-1,23
 140 -3 140 -3 105 0 c 1,24,-1
 105 385 l 1,25,-1
 -5 385 l 1,26,-1
 -5 500 l 1,27,-1
 235 500 l 1,28,-1
 235 322 l 1,10,11
EndSplineSet
EndChar

StartChar: afii10093
Encoding: 1099 1099 388
Width: 703
Flags: W
LayerCount: 2
Fore
SplineSet
187 109 m 1,0,1
 217 103 217 103 244 103 c 0,2,3
 289 103 289 103 307 119.5 c 128,-1,4
 325 136 325 136 325 171 c 0,5,6
 325 203 325 203 307 219.5 c 128,-1,7
 289 236 289 236 247 236 c 0,8,9
 214 236 214 236 187 229 c 1,10,-1
 187 109 l 1,0,1
187 322 m 1,11,12
 211 326 211 326 235.5 327.5 c 128,-1,13
 260 329 260 329 280 329 c 0,14,15
 331 329 331 329 365 317.5 c 128,-1,16
 399 306 399 306 420 285 c 128,-1,17
 441 264 441 264 450 235.5 c 128,-1,18
 459 207 459 207 459 174 c 0,19,20
 459 129 459 129 447 95 c 128,-1,21
 435 61 435 61 408 38.5 c 128,-1,22
 381 16 381 16 338 4.5 c 128,-1,23
 295 -7 295 -7 232 -7 c 0,24,25
 175 -7 175 -7 133.5 -5 c 128,-1,26
 92 -3 92 -3 57 0 c 1,27,-1
 57 500 l 1,28,-1
 187 500 l 1,29,-1
 187 322 l 1,11,12
516 500 m 1,30,-1
 646 500 l 1,31,-1
 646 0 l 1,32,-1
 516 0 l 1,33,-1
 516 500 l 1,30,-1
EndSplineSet
EndChar

StartChar: afii10094
Encoding: 1100 1100 389
Width: 490
Flags: W
LayerCount: 2
Fore
SplineSet
187 109 m 1,0,1
 217 103 217 103 244 103 c 0,2,3
 292 103 292 103 313.5 119.5 c 128,-1,4
 335 136 335 136 335 171 c 0,5,6
 335 236 335 236 247 236 c 0,7,8
 214 236 214 236 187 229 c 1,9,-1
 187 109 l 1,0,1
187 322 m 1,10,11
 211 326 211 326 235.5 327.5 c 128,-1,12
 260 329 260 329 280 329 c 0,13,14
 332 329 332 329 368 317.5 c 128,-1,15
 404 306 404 306 426.5 285 c 128,-1,16
 449 264 449 264 459 235.5 c 128,-1,17
 469 207 469 207 469 174 c 0,18,19
 469 83 469 83 415 38 c 128,-1,20
 361 -7 361 -7 232 -7 c 0,21,22
 175 -7 175 -7 133.5 -5 c 128,-1,23
 92 -3 92 -3 57 0 c 1,24,-1
 57 500 l 1,25,-1
 187 500 l 1,26,-1
 187 322 l 1,10,11
EndSplineSet
EndChar

StartChar: afii10095
Encoding: 1101 1101 390
Width: 459
Flags: W
LayerCount: 2
Fore
SplineSet
109 300 m 1,0,-1
 295 300 l 1,1,2
 290 350 290 350 262 377 c 128,-1,3
 234 404 234 404 179 404 c 0,4,5
 141 404 141 404 112 395 c 128,-1,6
 83 386 83 386 61 374 c 1,7,-1
 26 468 l 1,8,9
 92 514 92 514 204 514 c 256,10,11
 316 514 316 514 371 447.5 c 128,-1,12
 426 381 426 381 426 250 c 0,13,14
 426 118 426 118 364 52 c 128,-1,15
 302 -14 302 -14 194 -14 c 0,16,17
 147 -14 147 -14 99 -4.5 c 128,-1,18
 51 5 51 5 23 22 c 1,19,-1
 55 124 l 1,20,21
 78 111 78 111 109.5 103.5 c 128,-1,22
 141 96 141 96 173 96 c 0,23,24
 237 96 237 96 264 123 c 128,-1,25
 291 150 291 150 296 207 c 1,26,-1
 109 207 l 1,27,-1
 109 300 l 1,0,-1
EndSplineSet
EndChar

StartChar: afii10096
Encoding: 1102 1102 391
Width: 734
Flags: W
LayerCount: 2
Fore
SplineSet
480 -14 m 0,0,1
 424 -14 424 -14 384.5 1 c 128,-1,2
 345 16 345 16 319.5 44 c 128,-1,3
 294 72 294 72 280.5 112 c 128,-1,4
 267 152 267 152 263 202 c 1,5,-1
 187 202 l 1,6,-1
 187 0 l 1,7,-1
 57 0 l 1,8,-1
 57 500 l 1,9,-1
 187 500 l 1,10,-1
 187 312 l 1,11,-1
 264 312 l 1,12,13
 274 409 274 409 325.5 461.5 c 128,-1,14
 377 514 377 514 482 514 c 0,15,16
 539 514 539 514 580 495 c 128,-1,17
 621 476 621 476 648 441.5 c 128,-1,18
 675 407 675 407 687.5 358 c 128,-1,19
 700 309 700 309 700 250 c 0,20,21
 700 123 700 123 646 54.5 c 128,-1,22
 592 -14 592 -14 480 -14 c 0,0,1
387 250 m 0,23,24
 387 177 387 177 407.5 136.5 c 128,-1,25
 428 96 428 96 480 96 c 0,26,27
 526 96 526 96 546 130 c 128,-1,28
 566 164 566 164 566 250 c 0,29,30
 566 327 566 327 547 365.5 c 128,-1,31
 528 404 528 404 477 404 c 0,32,33
 431 404 431 404 409 369 c 128,-1,34
 387 334 387 334 387 250 c 0,23,24
EndSplineSet
EndChar

StartChar: afii10097
Encoding: 1103 1103 392
Width: 503
Flags: W
LayerCount: 2
Fore
SplineSet
321 189 m 1,0,-1
 261 177 l 1,1,-1
 165 0 l 1,2,-1
 10 0 l 1,3,-1
 107 157 l 1,4,-1
 156 194 l 1,5,6
 107 202 107 202 75 240.5 c 128,-1,7
 43 279 43 279 43 337 c 0,8,9
 43 428 43 428 103.5 471 c 128,-1,10
 164 514 164 514 289 514 c 0,11,12
 337 514 337 514 378.5 509 c 128,-1,13
 420 504 420 504 451 498 c 1,14,-1
 451 0 l 1,15,-1
 321 0 l 1,16,-1
 321 189 l 1,0,-1
321 257 m 1,17,-1
 321 395 l 1,18,19
 310 400 310 400 297 402 c 128,-1,20
 284 404 284 404 272 404 c 0,21,22
 227 404 227 404 202 385 c 128,-1,23
 177 366 177 366 177 328 c 256,24,25
 177 290 177 290 204.5 272 c 128,-1,26
 232 254 232 254 285 255 c 1,27,-1
 321 257 l 1,17,-1
EndSplineSet
EndChar

StartChar: afii10099
Encoding: 1106 1106 394
Width: 550
Flags: W
LayerCount: 2
Fore
SplineSet
-12 600 m 1,0,-1
 62 600 l 1,1,-1
 62 700 l 1,2,-1
 192 700 l 1,3,-1
 192 600 l 1,4,-1
 353 600 l 1,5,-1
 353 520 l 1,6,-1
 192 520 l 1,7,-1
 192 390 l 1,8,-1
 196 390 l 1,9,10
 219 422 219 422 255 441 c 128,-1,11
 291 460 291 460 345 460 c 0,12,13
 383 460 383 460 412 450 c 128,-1,14
 441 440 441 440 460 417 c 128,-1,15
 479 394 479 394 488.5 354.5 c 128,-1,16
 498 315 498 315 498 257 c 2,17,-1
 498 -21 l 2,18,19
 498 -112 498 -112 462 -160 c 128,-1,20
 426 -208 426 -208 347 -208 c 0,21,22
 317 -208 317 -208 283 -201 c 1,23,-1
 283 -92 l 1,24,25
 287 -92 287 -92 290.5 -92.5 c 128,-1,26
 294 -93 294 -93 298 -93 c 0,27,28
 341 -93 341 -93 354.5 -68.5 c 128,-1,29
 368 -44 368 -44 368 0 c 2,30,-1
 368 230 l 2,31,32
 368 291 368 291 351.5 318 c 128,-1,33
 335 345 335 345 290 345 c 0,34,35
 257 345 257 345 228.5 323 c 128,-1,36
 200 301 200 301 192 266 c 1,37,-1
 192 0 l 1,38,-1
 62 0 l 1,39,-1
 62 520 l 1,40,-1
 -12 520 l 1,41,-1
 -12 600 l 1,0,-1
EndSplineSet
EndChar

StartChar: afii10101
Encoding: 1108 1108 396
Width: 457
Flags: W
LayerCount: 2
Fore
SplineSet
435 31 m 1,0,1
 405 9 405 9 360 -2.5 c 128,-1,2
 315 -14 315 -14 270 -14 c 0,3,4
 210 -14 210 -14 166 5 c 128,-1,5
 122 24 122 24 93.5 58.5 c 128,-1,6
 65 93 65 93 51 142 c 128,-1,7
 37 191 37 191 37 250 c 0,8,9
 37 313 37 313 54 362 c 128,-1,10
 71 411 71 411 102 445 c 128,-1,11
 133 479 133 479 177 496.5 c 128,-1,12
 221 514 221 514 275 514 c 256,13,14
 329 514 329 514 365 505 c 128,-1,15
 401 496 401 496 428 482 c 1,16,-1
 398 376 l 1,17,18
 375 387 375 387 349.5 393 c 128,-1,19
 324 399 324 399 295 399 c 0,20,21
 248 399 248 399 214.5 375 c 128,-1,22
 181 351 181 351 171 297 c 1,23,-1
 367 297 l 1,24,-1
 367 209 l 1,25,-1
 170 209 l 1,26,27
 179 161 179 161 211.5 131 c 128,-1,28
 244 101 244 101 302 101 c 0,29,30
 336 101 336 101 361 109.5 c 128,-1,31
 386 118 386 118 405 130 c 1,32,-1
 435 31 l 1,0,1
EndSplineSet
EndChar

StartChar: afii10104
Encoding: 1111 1111 399
Width: 318
Flags: W
LayerCount: 2
Fore
SplineSet
21 642 m 0,0,1
 21 673 21 673 36.5 692.5 c 128,-1,2
 52 712 52 712 84 712 c 256,3,4
 116 712 116 712 131.5 692.5 c 128,-1,5
 147 673 147 673 147 642 c 0,6,7
 147 612 147 612 131.5 592.5 c 128,-1,8
 116 573 116 573 84 573 c 256,9,10
 52 573 52 573 36.5 592.5 c 128,-1,11
 21 612 21 612 21 642 c 0,0,1
172 642 m 0,12,13
 172 673 172 673 187.5 692.5 c 128,-1,14
 203 712 203 712 235 712 c 256,15,16
 267 712 267 712 282.5 692.5 c 128,-1,17
 298 673 298 673 298 642 c 0,18,19
 298 612 298 612 282.5 592.5 c 128,-1,20
 267 573 267 573 235 573 c 256,21,22
 203 573 203 573 187.5 592.5 c 128,-1,23
 172 612 172 612 172 642 c 0,12,13
93 500 m 1,24,-1
 223 500 l 1,25,-1
 223 0 l 1,26,-1
 93 0 l 1,27,-1
 93 500 l 1,24,-1
EndSplineSet
EndChar

StartChar: afii10106
Encoding: 1113 1113 401
Width: 762
Flags: W
LayerCount: 2
Fore
SplineSet
459 322 m 1,0,1
 483 326 483 326 507.5 327.5 c 128,-1,2
 532 329 532 329 552 329 c 0,3,4
 604 329 604 329 640 317.5 c 128,-1,5
 676 306 676 306 698.5 285 c 128,-1,6
 721 264 721 264 731 235.5 c 128,-1,7
 741 207 741 207 741 174 c 0,8,9
 741 83 741 83 687 38 c 128,-1,10
 633 -7 633 -7 504 -7 c 0,11,12
 447 -7 447 -7 405.5 -5 c 128,-1,13
 364 -3 364 -3 329 0 c 1,14,-1
 329 385 l 1,15,-1
 230 385 l 1,16,17
 224 314 224 314 216 244 c 128,-1,18
 208 174 208 174 190.5 118.5 c 128,-1,19
 173 63 173 63 143 28.5 c 128,-1,20
 113 -6 113 -6 65 -6 c 0,21,22
 7 -6 7 -6 -17 9 c 1,23,-1
 -1 117 l 1,24,25
 15 111 15 111 29 111 c 0,26,27
 49 111 49 111 64 128 c 128,-1,28
 79 145 79 145 89.5 189 c 128,-1,29
 100 233 100 233 106.5 308.5 c 128,-1,30
 113 384 113 384 116 500 c 1,31,-1
 459 500 l 1,32,-1
 459 322 l 1,0,1
519 236 m 0,33,34
 484 236 484 236 459 229 c 1,35,-1
 459 108 l 1,36,37
 473 105 473 105 487.5 104 c 128,-1,38
 502 103 502 103 516 103 c 0,39,40
 564 103 564 103 585.5 119.5 c 128,-1,41
 607 136 607 136 607 171 c 0,42,43
 607 236 607 236 519 236 c 0,33,34
EndSplineSet
EndChar

StartChar: afii10107
Encoding: 1114 1114 402
Width: 784
Flags: W
LayerCount: 2
Fore
SplineSet
480 321 m 1,0,1
 504 325 504 325 529 326.5 c 128,-1,2
 554 328 554 328 574 328 c 0,3,4
 626 328 626 328 662 316.5 c 128,-1,5
 698 305 698 305 720.5 284 c 128,-1,6
 743 263 743 263 753 235 c 128,-1,7
 763 207 763 207 763 174 c 0,8,9
 763 83 763 83 708.5 38 c 128,-1,10
 654 -7 654 -7 526 -7 c 0,11,12
 469 -7 469 -7 427 -5 c 128,-1,13
 385 -3 385 -3 350 0 c 1,14,-1
 350 199 l 1,15,-1
 187 199 l 1,16,-1
 187 0 l 1,17,-1
 57 0 l 1,18,-1
 57 500 l 1,19,-1
 187 500 l 1,20,-1
 187 314 l 1,21,-1
 350 314 l 1,22,-1
 350 500 l 1,23,-1
 480 500 l 1,24,-1
 480 321 l 1,0,1
480 109 m 1,25,26
 508 103 508 103 537 103 c 0,27,28
 585 103 585 103 607 119.5 c 128,-1,29
 629 136 629 136 629 171 c 0,30,31
 629 235 629 235 540 235 c 0,32,33
 505 235 505 235 480 228 c 1,34,-1
 480 109 l 1,25,26
EndSplineSet
EndChar

StartChar: afii10108
Encoding: 1115 1115 403
Width: 550
Flags: W
LayerCount: 2
Fore
SplineSet
-12 600 m 1,0,-1
 62 600 l 1,1,-1
 62 700 l 1,2,-1
 192 700 l 1,3,-1
 192 600 l 1,4,-1
 353 600 l 1,5,-1
 353 520 l 1,6,-1
 192 520 l 1,7,-1
 192 390 l 1,8,-1
 196 390 l 1,9,10
 219 422 219 422 255 441 c 128,-1,11
 291 460 291 460 345 460 c 0,12,13
 383 460 383 460 412 450 c 128,-1,14
 441 440 441 440 460 417 c 128,-1,15
 479 394 479 394 488.5 354.5 c 128,-1,16
 498 315 498 315 498 257 c 2,17,-1
 498 0 l 1,18,-1
 368 0 l 1,19,-1
 368 230 l 2,20,21
 368 291 368 291 351.5 318 c 128,-1,22
 335 345 335 345 290 345 c 0,23,24
 257 345 257 345 228.5 323 c 128,-1,25
 200 301 200 301 192 266 c 1,26,-1
 192 0 l 1,27,-1
 62 0 l 1,28,-1
 62 520 l 1,29,-1
 -12 520 l 1,30,-1
 -12 600 l 1,0,-1
EndSplineSet
EndChar

StartChar: afii10193
Encoding: 1119 1119 406
Width: 532
Flags: W
LayerCount: 2
Fore
SplineSet
57 0 m 1,0,-1
 57 500 l 1,1,-1
 187 500 l 1,2,-1
 187 115 l 1,3,-1
 345 115 l 1,4,-1
 345 500 l 1,5,-1
 475 500 l 1,6,-1
 475 0 l 1,7,-1
 327 0 l 1,8,-1
 312 -175 l 1,9,-1
 224 -175 l 1,10,-1
 204 0 l 1,11,-1
 57 0 l 1,0,-1
EndSplineSet
EndChar

StartChar: afii10146
Encoding: 1122 1122 407
Width: 651
Flags: W
LayerCount: 2
Fore
SplineSet
0 648 m 1,0,-1
 142 648 l 1,1,-1
 142 725 l 1,2,-1
 279 725 l 1,3,-1
 279 648 l 1,4,-1
 479 648 l 1,5,-1
 479 533 l 1,6,-1
 279 533 l 1,7,-1
 279 443 l 1,8,9
 284 444 284 444 295.5 445.5 c 128,-1,10
 307 447 307 447 320.5 448 c 128,-1,11
 334 449 334 449 348 450 c 128,-1,12
 362 451 362 451 374 451 c 0,13,14
 423 451 423 451 469 441.5 c 128,-1,15
 515 432 515 432 550.5 407 c 128,-1,16
 586 382 586 382 607 340 c 128,-1,17
 628 298 628 298 628 232 c 0,18,19
 628 112 628 112 553.5 51 c 128,-1,20
 479 -10 479 -10 340 -10 c 0,21,22
 326 -10 326 -10 302.5 -9.5 c 128,-1,23
 279 -9 279 -9 251 -7 c 128,-1,24
 223 -5 223 -5 194.5 -2 c 128,-1,25
 166 1 166 1 142 7 c 1,26,-1
 142 533 l 1,27,-1
 0 533 l 1,28,-1
 0 648 l 1,0,-1
347 112 m 0,29,30
 375 112 375 112 400 117.5 c 128,-1,31
 425 123 425 123 444 136.5 c 128,-1,32
 463 150 463 150 473.5 172 c 128,-1,33
 484 194 484 194 484 226 c 0,34,35
 484 260 484 260 472.5 281.5 c 128,-1,36
 461 303 461 303 442.5 315 c 128,-1,37
 424 327 424 327 399 331 c 128,-1,38
 374 335 374 335 347 335 c 0,39,40
 340 335 340 335 330 334 c 128,-1,41
 320 333 320 333 310 332 c 128,-1,42
 300 331 300 331 291.5 329.5 c 128,-1,43
 283 328 283 328 279 327 c 1,44,-1
 279 118 l 1,45,46
 290 115 290 115 308.5 113.5 c 128,-1,47
 327 112 327 112 347 112 c 0,29,30
EndSplineSet
Position2: "'cpsp' Capital Spacing lookup 0 subtable" dx=40 dy=0 dh=80 dv=0
EndChar

StartChar: afii10194
Encoding: 1123 1123 408
Width: 539
Flags: W
LayerCount: 2
Fore
SplineSet
-5 500 m 1,0,-1
 105 500 l 1,1,-1
 105 700 l 1,2,-1
 235 700 l 1,3,-1
 235 500 l 1,4,-1
 395 500 l 1,5,-1
 395 407 l 1,6,-1
 235 407 l 1,7,-1
 235 322 l 1,8,9
 259 326 259 326 284 327.5 c 128,-1,10
 309 329 309 329 329 329 c 0,11,12
 381 329 381 329 417 317.5 c 128,-1,13
 453 306 453 306 475.5 285 c 128,-1,14
 498 264 498 264 508 235.5 c 128,-1,15
 518 207 518 207 518 174 c 0,16,17
 518 83 518 83 463.5 38 c 128,-1,18
 409 -7 409 -7 281 -7 c 0,19,20
 224 -7 224 -7 182 -5 c 128,-1,21
 140 -3 140 -3 105 0 c 1,22,-1
 105 407 l 1,23,-1
 -5 407 l 1,24,-1
 -5 500 l 1,0,-1
235 109 m 1,25,26
 263 103 263 103 292 103 c 0,27,28
 340 103 340 103 362 119.5 c 128,-1,29
 384 136 384 136 384 171 c 0,30,31
 384 236 384 236 295 236 c 0,32,33
 260 236 260 236 235 229 c 1,34,-1
 235 109 l 1,25,26
EndSplineSet
EndChar

StartChar: afii10147
Encoding: 1138 1138 409
Width: 670
Flags: W
LayerCount: 2
Fore
SplineSet
38 350 m 0,0,1
 38 525 38 525 115 619.5 c 128,-1,2
 192 714 192 714 335 714 c 0,3,4
 410 714 410 714 466 688 c 128,-1,5
 522 662 522 662 559 614 c 128,-1,6
 596 566 596 566 614 499 c 128,-1,7
 632 432 632 432 632 350 c 0,8,9
 632 175 632 175 554.5 80.5 c 128,-1,10
 477 -14 477 -14 335 -14 c 0,11,12
 259 -14 259 -14 203 12 c 128,-1,13
 147 38 147 38 110.5 86 c 128,-1,14
 74 134 74 134 56 201 c 128,-1,15
 38 268 38 268 38 350 c 0,0,1
488 407 m 1,16,17
 480 496 480 496 440 544 c 128,-1,18
 400 592 400 592 335 592 c 0,19,20
 306 592 306 592 280 582 c 128,-1,21
 254 572 254 572 233.5 550 c 128,-1,22
 213 528 213 528 199.5 492.5 c 128,-1,23
 186 457 186 457 182 407 c 1,24,-1
 488 407 l 1,16,17
182 297 m 1,25,26
 190 202 190 202 231 155 c 128,-1,27
 272 108 272 108 335 108 c 0,28,29
 364 108 364 108 390.5 117.5 c 128,-1,30
 417 127 417 127 437.5 148.5 c 128,-1,31
 458 170 458 170 471.5 206 c 128,-1,32
 485 242 485 242 488 297 c 1,33,-1
 182 297 l 1,25,26
EndSplineSet
Position2: "'cpsp' Capital Spacing lookup 0 subtable" dx=40 dy=0 dh=80 dv=0
EndChar

StartChar: afii10195
Encoding: 1139 1139 410
Width: 537
Flags: W
LayerCount: 2
Fore
SplineSet
33 250 m 0,0,1
 33 377 33 377 95 445.5 c 128,-1,2
 157 514 157 514 269 514 c 0,3,4
 329 514 329 514 373 495 c 128,-1,5
 417 476 417 476 446 441.5 c 128,-1,6
 475 407 475 407 489.5 358 c 128,-1,7
 504 309 504 309 504 250 c 0,8,9
 504 123 504 123 442.5 54.5 c 128,-1,10
 381 -14 381 -14 269 -14 c 0,11,12
 209 -14 209 -14 165 5 c 128,-1,13
 121 24 121 24 91.5 58.5 c 128,-1,14
 62 93 62 93 47.5 142 c 128,-1,15
 33 191 33 191 33 250 c 0,0,1
370 289 m 1,16,17
 362 349 362 349 336.5 376.5 c 128,-1,18
 311 404 311 404 269 404 c 0,19,20
 250 404 250 404 233 398 c 128,-1,21
 216 392 216 392 202.5 378.5 c 128,-1,22
 189 365 189 365 179.5 343 c 128,-1,23
 170 321 170 321 167 289 c 1,24,-1
 370 289 l 1,16,17
167 207 m 1,25,26
 173 153 173 153 201 124.5 c 128,-1,27
 229 96 229 96 269 96 c 0,28,29
 307 96 307 96 335.5 120.5 c 128,-1,30
 364 145 364 145 370 207 c 1,31,-1
 167 207 l 1,25,26
EndSplineSet
EndChar

StartChar: afii10148
Encoding: 1140 1140 411
Width: 629
Flags: W
LayerCount: 2
Fore
SplineSet
347 -5 m 1,0,-1
 249 -5 l 1,1,-1
 -13 700 l 1,2,-1
 146 700 l 1,3,-1
 286 289 l 1,4,-1
 304 170 l 1,5,-1
 308 170 l 1,6,-1
 324 290 l 1,7,-1
 393 519 l 2,8,9
 409 573 409 573 426 609.5 c 128,-1,10
 443 646 443 646 464.5 668 c 128,-1,11
 486 690 486 690 513 699.5 c 128,-1,12
 540 709 540 709 576 709 c 0,13,14
 614 709 614 709 638 703 c 128,-1,15
 662 697 662 697 683 686 c 1,16,-1
 653 570 l 1,17,18
 636 579 636 579 621.5 582 c 128,-1,19
 607 585 607 585 591 585 c 0,20,21
 568 585 568 585 553 567.5 c 128,-1,22
 538 550 538 550 525 510 c 2,23,-1
 347 -5 l 1,0,-1
EndSplineSet
Position2: "'cpsp' Capital Spacing lookup 0 subtable" dx=40 dy=0 dh=80 dv=0
EndChar

StartChar: afii10196
Encoding: 1141 1141 412
Width: 527
Flags: W
LayerCount: 2
Fore
SplineSet
289 -5 m 1,0,-1
 210 -5 l 1,1,-1
 -7 500 l 1,2,-1
 144 500 l 1,3,-1
 237 238 l 1,4,-1
 254 161 l 1,5,-1
 258 161 l 1,6,-1
 273 240 l 1,7,-1
 296 311 l 2,8,9
 313 365 313 365 328.5 403 c 128,-1,10
 344 441 344 441 362.5 464.5 c 128,-1,11
 381 488 381 488 404.5 498.5 c 128,-1,12
 428 509 428 509 461 509 c 0,13,14
 485 509 485 509 507 504.5 c 128,-1,15
 529 500 529 500 543 492 c 1,16,-1
 525 386 l 1,17,18
 507 395 507 395 491 395 c 0,19,20
 474 395 474 395 458.5 381 c 128,-1,21
 443 367 443 367 427 329 c 2,22,-1
 289 -5 l 1,0,-1
EndSplineSet
EndChar

StartChar: uni048A
Encoding: 1162 1162 413
Width: 712
Flags: W
LayerCount: 2
Fore
SplineSet
468 388 m 1,0,-1
 476 479 l 1,1,-1
 471 479 l 1,2,-1
 424 385 l 1,3,-1
 163 0 l 1,4,-1
 60 0 l 1,5,-1
 60 700 l 1,6,-1
 197 700 l 1,7,-1
 197 319 l 1,8,-1
 187 225 l 1,9,-1
 193 225 l 1,10,-1
 242 322 l 1,11,-1
 503 700 l 1,12,-1
 605 700 l 1,13,-1
 605 115 l 1,14,-1
 722 115 l 1,15,-1
 722 84 l 1,16,-1
 626 -130 l 1,17,-1
 532 -130 l 1,18,-1
 577 0 l 1,19,-1
 468 0 l 1,20,-1
 468 388 l 1,0,-1
260 874 m 1,21,22
 264 842 264 842 283.5 828 c 128,-1,23
 303 814 303 814 334 814 c 0,24,25
 401 814 401 814 408 873 c 1,26,-1
 519 856 l 1,27,28
 508 793 508 793 461.5 764 c 128,-1,29
 415 735 415 735 333 735 c 0,30,31
 292 735 292 735 258 741 c 128,-1,32
 224 747 224 747 198.5 760.5 c 128,-1,33
 173 774 173 774 156.5 797 c 128,-1,34
 140 820 140 820 136 854 c 1,35,-1
 260 874 l 1,21,22
EndSplineSet
Position2: "'cpsp' Capital Spacing lookup 0 subtable" dx=40 dy=0 dh=80 dv=0
EndChar

StartChar: uni048B
Encoding: 1163 1163 414
Width: 590
Flags: W
LayerCount: 2
Fore
SplineSet
358 228 m 1,0,-1
 363 299 l 1,1,-1
 360 299 l 1,2,-1
 317 226 l 1,3,-1
 139 0 l 1,4,-1
 57 0 l 1,5,-1
 57 500 l 1,6,-1
 187 500 l 1,7,-1
 187 262 l 1,8,-1
 181 194 l 1,9,-1
 185 194 l 1,10,-1
 226 265 l 1,11,-1
 406 500 l 1,12,-1
 488 500 l 1,13,-1
 488 115 l 1,14,-1
 595 115 l 1,15,-1
 595 84 l 1,16,-1
 499 -114 l 1,17,-1
 405 -114 l 1,18,-1
 450 0 l 1,19,-1
 358 0 l 1,20,-1
 358 228 l 1,0,-1
219 704 m 1,21,22
 226 665 226 665 242.5 649 c 128,-1,23
 259 633 259 633 285 633 c 0,24,25
 313 633 313 633 329.5 649 c 128,-1,26
 346 665 346 665 352 703 c 1,27,-1
 451 678 l 1,28,29
 439 613 439 613 392 581.5 c 128,-1,30
 345 550 345 550 282 550 c 0,31,32
 251 550 251 550 222 557 c 128,-1,33
 193 564 193 564 170 579.5 c 128,-1,34
 147 595 147 595 131 619 c 128,-1,35
 115 643 115 643 109 678 c 1,36,-1
 219 704 l 1,21,22
EndSplineSet
EndChar

